<svg xmlns="http://www.w3.org/2000/svg">
<defs>
<font id="BookAkhanake" horiz-adv-x="0" >
  <font-face 
    font-family="Book_Akhanake"
    font-weight="400"
    font-stretch="normal"
    units-per-em="2000"
    panose-1="2 0 0 0 0 0 0 0 0 0"
    ascent="1600"
    descent="-400"
    x-height="774.997"
    cap-height="1246"
    bbox="-1282 -1306 1708.16 2331"
    underline-thickness="72"
    underline-position="-149"
    unicode-range="U+0020-U+25CC"
  />
<missing-glyph horiz-adv-x="963" 
d="M92 136c0.666992 62 1.66699 124.999 3 188.999s2.5 127.667 3.5 191s1.5 126 1.5 188s-0.333008 122 -1 180c-10.667 5.33301 -18.834 11.833 -24.501 19.5s-9.83398 15.5 -12.501 23.5s-4.16699 15.667 -4.5 23s-0.5 13.666 -0.5 18.999
c0 18.667 10.167 35.334 30.5 50.001s47 27.834 80 39.501s70.833 21.667 113.5 30s86.334 15.5 131.001 21.5s88.5 10.833 131.5 14.5s81.833 6.66699 116.5 9s63 3.83301 85 4.5s34.333 1 37 1c26.667 0 48.334 -1.5 65.001 -4.5s29.667 -7.66699 39 -14
s15.666 -15 18.999 -26s5 -24.5 5 -40.5c0 -5.33301 -0.166992 -11.833 -0.5 -19.5s-1.83301 -15.5 -4.5 -23.5s-7 -15.667 -13 -23s-14.333 -13.666 -25 -18.999c4.66699 -144.667 7.66699 -290.167 9 -436.5s-1.66699 -297.833 -9 -454.5
c-3.33301 -8.66699 -7 -16.334 -11 -23.001c-3.33301 -5.33301 -7.66602 -10.166 -12.999 -14.499s-11.333 -5.83301 -18 -4.5c-50 6.66699 -104.333 9.16699 -163 7.5s-117.334 -6 -176.001 -13s-115.5 -15.167 -170.5 -24.5l-146.5 -25.5
c-42.667 -7.66699 -77.167 -13.667 -103.5 -18s-40.166 -4.83301 -41.499 -1.5c-9.33301 18.667 -14.833 35 -16.5 49s0.333008 27.5 6 40.5s15 26.167 28 39.5s29.833 28.666 50.5 45.999zM590 971.999c-10.667 0 -25.999 -0.165039 -45.999 -0.498047s-41.833 -1 -65.5 -2
s-47.834 -2.5 -72.501 -4.5s-47 -4.66699 -67 -8s-36.5 -7.5 -49.5 -12.5s-19.5 -10.833 -19.5 -17.5c-16 -240.667 -16 -481 0 -721c0.666992 -14 6.5 -24.167 17.5 -30.5s23.5 -10.333 37.5 -12s27.833 -2.16699 41.5 -1.5s24.167 1 31.5 1c10.667 0 23 0.5 37 1.5

<glyph glyph-name="quotedblleft" unicode="&#x91;&#x91;" horiz-adv-x="517" 
d="M101 784c-5.33301 31.333 -9.33301 59.002 -12 83.002s-4.5 47.167 -5.5 69.5s-1.66699 44.833 -2 67.5s-0.5 48.667 -0.5 78c0 14.667 0.333008 29.5 1 44.5s3.5 28.5 8.5 40.5s12.667 21.833 23 29.5s25.166 11.5 44.499 11.5s35.166 -5.16699 47.499 -15.5
s22 -23.833 29 -40.5s12.167 -35.334 15.5 -56.001s5.33301 -41.334 6 -62.001s0.833984 -40.5 0.500977 -59.5s-0.5 -34.833 -0.5 -47.5v-105c0 -12 -3.33301 -21.833 -10 -29.5s-15 -13.5 -25 -17.5s-20.667 -6.83301 -32 -8.5s-21.666 -2.5 -30.999 -2.5
c-14.667 0 -25.5 0.833008 -32.5 2.5s-15.167 7.5 -24.5 17.5zM273 1140c0 24 8.00293 41.332 24.0029 51.999s33.667 16 53 16c21.333 0 38.5 -6.33301 51.5 -19s23.167 -29.167 30.5 -49.5s12.333 -43.166 15 -68.499s4 -50.5 4 -75.5s-0.5 -48.667 -1.5 -71
s-1.5 -40.5 -1.5 -54.5c0 -12 -0.333008 -22.333 -1 -31s-2.83398 -15.667 -6.50098 -21s-9.33398 -9.16602 -17.001 -11.499s-18.834 -3.5 -33.501 -3.5c-22.667 0 -41.167 7.16699 -55.5 21.5s-25.833 32.666 -34.5 54.999s-15 47 -19 74s-6.5 53 -7.5 78
s-1.33301 47.333 -1 67s0.5 33.5 0.5 41.5z" />
    <glyph glyph-name="quotedblright" unicode="&#x92;&#x92;" horiz-adv-x="582" 
d="M286 802c2.66699 39.333 4.33789 81.334 5.00488 126.001s2.16699 86.167 4.5 124.5s6.16602 70.833 11.499 97.5s14 41.667 26 45c28.667 8 51.667 11 69 9s30.833 -8.83301 40.5 -20.5s16.167 -28.167 19.5 -49.5s5 -48 5 -80
c0 -12.667 -0.833008 -27.334 -2.5 -44.001s-3.83398 -34.167 -6.50098 -52.5s-5.83398 -37 -9.50098 -56s-7.5 -36.833 -11.5 -53.5c-3.33301 -14 -7.16602 -27 -11.499 -39s-9.83301 -22.5 -16.5 -31.5s-14.834 -16 -24.501 -21s-21.5 -7.5 -35.5 -7.5
c-6.66699 0 -13.834 1.16699 -21.501 3.5s-14.834 5.66602 -21.501 9.99902s-12 9.83301 -16 16.5s-5.33301 14.334 -4 23.001zM300.004 1139c0 -28.667 -2.83203 -54.6709 -8.49902 -78.0039s-11.167 -47.666 -16.5 -72.999c-5.33301 -26 -10 -50 -14 -72
s-9.33301 -41 -16 -57s-16 -28.167 -28 -36.5s-28.667 -11.166 -50 -8.49902c-9.33301 0.666992 -18.666 1.66699 -27.999 3s-17.833 3.66602 -25.5 6.99902s-13.834 8.33301 -18.501 15s-7 15.667 -7 27c0 10.667 1.16699 24.167 3.5 40.5s5.5 34.333 9.5 54
s8.5 40.334 13.5 62.001l15.5 64.5l9.5 42.5c3 13.667 6.16699 26.334 9.5 38.001s7.16602 21.667 11.499 30s10.166 14.5 17.499 18.5c5.33301 2.66699 11.833 4.5 19.5 5.5s15.334 1.33301 23.001 1s15 -1.16602 22 -2.49902s12.5 -2.66602 16.5 -3.99902
c8 -3.33301 16.833 -11.833 26.5 -25.5s14.5 -30.834 14.5 -51.501z" />
    <glyph glyph-name="copyright2" unicode="&#x3b;&#x3b;For&#x20;Education&#x20;Used&#x20;Only&#x3b;&#x3b;" horiz-adv-x="1176" 
d="M204 57c-24.667 14 -45.8369 33.333 -63.5039 58s-32 52 -43 82s-19.167 61.167 -24.5 93.5s-8 63.5 -8 93.5c0 42.667 7.33301 87.334 22 134.001s34.834 92.334 60.501 137.001s56.334 87.167 92.001 127.5s74.334 75.666 116.001 105.999s85.667 54.5 132 72.5
s93.5 27 141.5 27c86.667 0 160.667 -10 222 -30s111.5 -50 150.5 -90s67.5 -90.333 85.5 -151s27 -132 27 -214c0 -79.333 -16.5 -151.333 -49.5 -216s-76.667 -119.834 -131 -165.501s-116.666 -81 -186.999 -106s-142.5 -37.5 -216.5 -37.5c-32 0 -60.667 0.333008 -86 1
s-50 3.5 -74 8.5s-49 12.833 -75 23.5s-56.333 26 -91 46zM242.997 394c0 -47.333 6.83203 -87.334 20.499 -120.001s33.667 -59.167 60 -79.5s59.333 -35.166 99 -44.499s85.5 -14 137.5 -14c69.333 0 127.833 11.667 175.5 35s86.334 55 116.001 95
s51.167 87.167 64.5 141.5s20 112.5 20 174.5c0 86.667 -20.667 149.667 -62 189s-106.333 59 -195 59c-59.333 0 -115.5 -11.167 -168.5 -33.5s-99.333 -53 -139 -92s-71 -85 -94 -138s-34.5 -110.5 -34.5 -172.5zM519.996 175.999
c-30.667 0 -57.1709 4.99609 -79.5039 14.9961s-40.833 23.5 -55.5 40.5s-25.5 36.833 -32.5 59.5s-10.5 47 -10.5 73c0 44.667 5.66699 87.834 17 129.501s28.333 78.667 51 111s51.334 58.166 86.001 77.499s75.667 29 123 29c12.667 0 26 -0.333008 40 -1
s26.833 -3.16699 38.5 -7.5s21.334 -11.333 29.001 -21s11.5 -23.167 11.5 -40.5c0 -13.333 -6.33301 -23.666 -19 -30.999s-28.334 -14.166 -47.001 -20.499s-39 -13.666 -61 -21.999s-42.667 -19.666 -62 -33.999s-35.333 -33.5 -48 -57.5s-19.334 -54.667 -20.001 -92
c0 -12.667 1.16699 -22.334 3.5 -29.001s6.33301 -11.5 12 -14.5s12.834 -4.83301 21.501 -5.5s19.334 -1 32.001 -1c24.667 0 47.834 4.16699 69.501 12.5s43 17.5 64 27.5s42.333 19.167 64 27.5s44.834 12.5 69.501 12.5c10 0 19.167 -2.5 27.5 -7.5
s12.5 -12.5 12.5 -22.5c0 -21.333 -6 -41.333 -18 -60s-27.833 -35.667 -47.5 -51s-41.667 -29 -66 -41s-49 -22.167 -74 -30.5s-49 -14.666 -72 -18.999s-42.833 -6.5 -59.5 -6.5z" />
    <glyph glyph-name="registered2" unicode="&#x3b;&#x3b;Registered&#x3b;&#x3b;" horiz-adv-x="1243" 
d="M79 452c0 32 5.66992 70.668 17.0029 116.001s29.166 91.833 53.499 139.5s55.666 94.167 93.999 139.5s84.5 83.833 138.5 115.5s116.167 54 186.5 67s149.833 11.167 238.5 -5.5c40.667 -8 77.834 -22.667 111.501 -44s64.167 -47.166 91.5 -77.499
s51.166 -64 71.499 -101s37.333 -75 51 -114s24 -77.667 31 -116s10.5 -73.833 10.5 -106.5c0 -46.667 -7.66699 -91.334 -23 -134.001s-36.333 -82.334 -63 -119.001s-58 -69.834 -94 -99.501s-74.667 -55.167 -116 -76.5s-84.333 -37.666 -129 -48.999s-89 -17 -133 -17
c-46.667 0 -92.334 5 -137.001 15s-86.834 24.667 -126.501 44s-76.167 43 -109.5 71s-62.166 59.833 -86.499 95.5s-43.333 75 -57 118s-20.5 89.167 -20.5 138.5zM233.003 425.001c0 -48 9.66895 -91.999 29.002 -131.999s45.166 -74.5 77.499 -103.5
s69.666 -51.5 111.999 -67.5s86.5 -24 132.5 -24c56 0 109.833 10.333 161.5 31s97.334 49.167 137.001 85.5s71.5 79.166 95.5 128.499s36 103 36 161c0 60 -9.5 114.833 -28.5 164.5s-46 92 -81 127s-76.833 61.333 -125.5 79s-103 24.5 -163 20.5
c-62 -4 -116.667 -19.833 -164 -47.5s-87.333 -63.167 -120 -106.5s-57.334 -92.333 -74.001 -147s-25 -111 -25 -169zM831.005 305.002c-21.333 0 -46.668 4.00195 -76.001 12.002s-59 17.5 -89 28.5s-58 22 -84 33l-61 25.5c-2 -24.667 -4.16699 -48.667 -6.5 -72
s-5.5 -44.333 -9.5 -63s-8.66699 -34.667 -14 -48s-11.333 -22.333 -18 -27c-2 0 -8.16699 -0.333008 -18.5 -1s-21.333 -0.833984 -33 -0.500977s-22.167 1.66602 -31.5 3.99902s-14 6.5 -14 12.5v351c-15.333 12 -27 21.667 -35 29s-12 19 -12 35c0 34 11 64.667 33 92
s48.833 50.833 80.5 70.5s65.5 34.667 101.5 45s68 15.5 96 15.5c20 0 39 -3 57 -9s34 -14.667 48 -26s25.167 -25.5 33.5 -42.5s12.5 -36.5 12.5 -58.5c0 -28 -3 -51.667 -9 -71s-15 -36.833 -27 -52.5s-27 -30.5 -45 -44.5l-62 -47c8 -2 21.833 -6.5 41.5 -13.5l62 -23
l62 -24.5c19.667 -8 33.5 -14 41.5 -18c2 0 4.83301 -1.33301 8.5 -4s7.33398 -7.5 11.001 -14.5s6.66699 -16.667 9 -29s3.5 -28.5 3.5 -48.5c0 -4 -2.5 -7.16699 -7.5 -9.5s-10.833 -4 -17.5 -5s-13 -1.5 -19 -1.5h-12zM517.003 640.004
c0 -2 0.167969 -11.166 0.500977 -27.499s1.16602 -34.5 2.49902 -54.5c21.333 7.33301 43 18.333 65 33s40.333 30.667 55 48s23.667 34.666 27 51.999s-3 32 -19 44c-14 0 -28.667 -2 -44 -6s-29.5 -9.83301 -42.5 -17.5s-23.667 -17.5 -32 -29.5s-12.5 -26 -12.5 -42z
" />
    <glyph glyph-name="trademark2" unicode="&#x3b;&#x3b;Trademark&#x3b;&#x3b;" horiz-adv-x="1221" 
d="M105 920c-27.333 0 -46.832 4.66895 -58.499 14.002s-17.5 27.666 -17.5 54.999c0 11.333 5.5 21.333 16.5 30s24.667 16 41 22s34.333 11 54 15s38 7.16699 55 9.5s31.333 4 43 5s18.167 1.5 19.5 1.5c2.66699 0 9.83398 0.666992 21.501 2s26 2.83301 43 4.5
s36 3.66699 57 6l62 7l58.5 6.5l47 5c22 -2 39.667 -3.5 53 -4.5s23 -5.5 29 -13.5c3.33301 0.666992 6.66602 1.16699 9.99902 1.5s6.66602 0.5 9.99902 0.5c21.333 0 38.5 -7.66699 51.5 -23s23.667 -33.833 32 -55.5s15.5 -44 21.5 -67s13 -42.167 21 -57.5
c23.333 18 42.833 39.5 58.5 64.5s31.5 49 47.5 72s34.333 42.5 55 58.5s47.667 24 81 24c35.333 0 62.5 -7.83301 81.5 -23.5s34.167 -39.167 45.5 -70.5c0 -10 0.5 -25.667 1.5 -47s2 -45.166 3 -71.499s2.16699 -54.166 3.5 -83.499l4 -84
c1.33301 -26.667 2.33301 -50.834 3 -72.501s1 -37.834 1 -48.501c0 -15.333 -3.66699 -28 -11 -38s-16.5 -18 -27.5 -24s-23 -10.167 -36 -12.5s-25.5 -3.5 -37.5 -3.5c-6 0 -11.667 0.166992 -17 0.5s-10.333 1.5 -15 3.5s-8.33398 5 -11.001 9s-4 10 -4 18
c2 56.667 2.83301 115.5 2.5 176.5s-1.16602 122.167 -2.49902 183.5c-17.333 -39.333 -39 -72.5 -65 -99.5s-52.667 -46.167 -80 -57.5s-53.333 -13.833 -78 -7.5s-44.334 23.166 -59.001 50.499c0 -15.333 0.833008 -33 2.5 -53s2.66699 -40.167 3 -60.5
s-0.333984 -40.333 -2.00098 -60s-6 -37.167 -13 -52.5s-17.167 -27.666 -30.5 -36.999s-31 -14 -53 -14c-18.667 0 -33.834 8 -45.501 24s-20.667 37.167 -27 63.5s-10.833 55.833 -13.5 88.5s-4 65.5 -4 98.5s0.5 64.833 1.5 95.5l2.5 78h-51
c-17.333 0 -33.666 -2.33301 -48.999 -7c-5.33301 -11.333 -10 -25 -14 -41s-7.16699 -32 -9.5 -48s-4 -31 -5 -45s-1.5 -25 -1.5 -33c0 -4 0.833008 -8.16699 2.5 -12.5s3.33398 -10 5.00098 -17s3.33398 -16 5.00098 -27s2.5 -25.167 2.5 -42.5
c0 -19.333 -1.5 -40.166 -4.5 -62.499s-8.66699 -43 -17 -62s-20.166 -34.833 -35.499 -47.5s-35.333 -19 -60 -19c-8.66699 2.66699 -16.334 5.66699 -23.001 9c-6 3.33301 -11.333 6.83301 -16 10.5s-7 7.5 -7 11.5c0.666992 31.333 1.66699 67.166 3 107.499
s2.33301 79.5 3 117.5s0.666992 72.667 0 104s-2.66699 53.666 -6 66.999z" />
    <glyph glyph-name="multiply2" unicode="&#x3b;&#x3b;Multiply&#x3b;&#x3b;" horiz-adv-x="918" 
d="M563 610c-1.33301 -1.33301 -2 -2.33496 -2 -3.00195c34 -21.333 68.5 -41.666 103.5 -60.999s66.667 -38 95 -56s51.5 -35.5 69.5 -52.5s27 -33.5 27 -49.5c0 -20 -3.16699 -36.167 -9.5 -48.5s-15 -21.5 -26 -27.5s-23.5 -9.5 -37.5 -10.5s-28.667 -0.5 -44 1.5
c-24 2.66699 -49 8.66699 -75 18s-52 20.333 -78 33s-51.667 26.667 -77 42l-72 45l-74 -90c-26 -30.667 -51.5 -59.167 -76.5 -85.5s-48.667 -49 -71 -68s-41.5 -31.5 -57.5 -37.5c-26.667 0.666992 -50.334 10.334 -71.001 29.001s-32.667 44.667 -36 78l41.5 51l57.5 71
l63.5 80.5l60.5 79.5c-22 15.333 -43 31 -63 47s-37.833 32 -53.5 48s-28.167 31.833 -37.5 47.5s-14.333 30.5 -15 44.5c-1.33301 34 6.16699 62 22.5 84s41.5 33 75.5 33c17.333 0 35.333 -4.33301 54 -13s37 -19.5 55 -32.5s35 -27 51 -42l43 -40.5l81 86.5l85 86
l74.5 73l48.5 47.5c18 0 35.167 0.833008 51.5 2.5s30.5 1.16699 42.5 -1.5s21.667 -9 29 -19s11 -26.333 11 -49c0 -22 -4.83301 -43.167 -14.5 -63.5s-22.167 -39.833 -37.5 -58.5s-32.666 -37 -51.999 -55l-58.5 -54l-57 -54c-18.333 -18 -33.833 -36.667 -46.5 -56z" />
    <glyph glyph-name="divide2" unicode="&#x3b;&#x3b;Divide&#x3b;&#x3b;" horiz-adv-x="842" 
d="M253 236c0 18.667 3.66797 35.8359 11.001 51.5029s17.5 29.167 30.5 40.5s27.833 20 44.5 26s34.667 9 54 9c7.33301 0 16 -0.666992 26 -2s19.667 -4.5 29 -9.5s17.166 -12.5 23.499 -22.5s9.5 -24 9.5 -42c0 -20.667 -3.66699 -38.834 -11 -54.501
s-17.333 -28.834 -30 -39.501s-27.5 -18.834 -44.5 -24.501s-34.833 -8.5 -53.5 -8.5c-25.333 0 -46.5 6.33301 -63.5 19s-25.5 31.667 -25.5 57zM51.001 590.002c0 12.667 3.50195 24.502 10.502 35.502s15.667 20.833 26 29.5s21.333 16.167 33 22.5
s22.167 11.166 31.5 14.499c10.667 2 26.334 4.33301 47.001 7l69 8.5l79 9.5l78 9.5c24.667 3 46.5 5.83301 65.5 8.5s32.833 5 41.5 7c3.33301 0 11.166 1.33301 23.499 4l40 9l39.5 9c12 2.66699 19.667 4 23 4c12.667 0 26.5 -2.33301 41.5 -7
s28.833 -11.334 41.5 -20.001s23.167 -19.334 31.5 -32.001s12.5 -27 12.5 -43c-0.666992 -33.333 -9.83398 -57.166 -27.501 -71.499s-42.667 -24 -75 -29s-71.666 -7.83301 -117.999 -8.5s-98.5 -4.33398 -156.5 -11.001c-36 -4 -68.833 -9.16699 -98.5 -15.5
s-56.334 -12.666 -80.001 -18.999l-61.5 -16c-17.333 -4.33301 -31 -6.5 -41 -6.5c-12.667 0 -23.834 3.5 -33.501 10.5s-17.667 15.667 -24 26s-11 21.333 -14 33s-4.5 22.167 -4.5 31.5zM253.003 907.004c0 16 3 30.834 9 44.501s14.167 25.667 24.5 36
s22.333 18.5 36 24.5s28.5 9 44.5 9c38 0 64.667 -9.5 80 -28.5s23 -44.5 23 -76.5c0 -38 -8.16699 -63.833 -24.5 -77.5s-42.5 -20.5 -78.5 -20.5c-16 0 -30.833 1.66699 -44.5 5s-25.667 8.66602 -36 15.999s-18.5 16.5 -24.5 27.5s-9 24.5 -9 40.5z" />
    <glyph glyph-name="rulakkhangyao" unicode="&#xc4;&#xd2;" horiz-adv-x="1765" 
d="M715 -610c-15.333 0 -26.1641 3.50781 -32.4971 10.5078s-10.166 16.167 -11.499 27.5s-1.16602 24.666 0.500977 39.999s2.5 31 2.5 47c4 54 7.83301 101.833 11.5 143.5l9.5 110.5l7 85l5.5 67.5c1.66699 20.333 3 39.833 4 58.5s2.16699 38 3.5 58
c0.666992 20.667 1.66699 47.667 3 81s1.83301 70.166 1.5 110.499s-1.66602 82.666 -3.99902 126.999s-6.5 87.833 -12.5 130.5s-13.833 83.5 -23.5 122.5s-22.167 73.167 -37.5 102.5s-33.833 52.666 -55.5 69.999s-46.834 25.666 -75.501 24.999
c-39.333 -0.666992 -71.5 -7.83398 -96.5 -21.501s-44.833 -30.834 -59.5 -51.501s-25 -43.5 -31 -68.5s-9.83301 -49.333 -11.5 -73s-1.83398 -45.167 -0.500977 -64.5s2 -33.666 2 -42.999c0 -16.667 4.5 -31.834 13.5 -45.501s18.833 -27.5 29.5 -41.5
s20.5 -28.667 29.5 -44s13.5 -33 13.5 -53c0 -26 -7 -55.167 -21 -87.5s-31.5 -62.833 -52.5 -91.5s-43.667 -53.334 -68 -74.001s-46.5 -32.667 -66.5 -36c-15.333 -2 -28.333 1.5 -39 10.5s-19.5 21.333 -26.5 37s-12.333 33.334 -16 53.001s-6.33398 39 -8.00098 58
s-2.83398 36.5 -3.50098 52.5v37l-1 30c-0.666992 21.333 -0.333984 50.166 0.999023 86.499s4.33301 78 9 125s12 95.333 22 145s23.5 98.5 40.5 146.5s38.833 91.167 65.5 129.5s58.5 69.833 95.5 94.5s80.5 38.334 130.5 41.001c58 2.66699 108.5 -4.83301 151.5 -22.5
s80.167 -42.834 111.5 -75.501s57.5 -71 78.5 -115s38 -90.833 51 -140.5s22.667 -100.5 29 -152.5s10.666 -102 12.999 -150s3.5 -92.667 3.5 -134v-104c0 -30.667 0.5 -71 1.5 -121s0.833008 -103.667 -0.5 -161s-5 -115.333 -11 -174s-15.833 -111.5 -29.5 -158.5
s-32.167 -85.333 -55.5 -115s-53.333 -44.5 -90 -44.5zM1427 -500.992c-2 9.33301 -2.50098 21.3398 -1.50098 36.0068s2.66699 36.667 5 66l9.5 118c4 49.333 8.33301 113.833 13 193.5s9.16699 176.834 13.5 291.501s8.5 252 12.5 412c0 4.66699 -0.5 13 -1.5 25
s-2.83301 25.5 -5.5 40.5s-6.16699 30.833 -10.5 47.5s-9.5 31.834 -15.5 45.501s-13 25 -21 34s-16.667 13.5 -26 13.5c-23.333 0 -43.833 -6.33301 -61.5 -19s-33.667 -29.334 -48 -50.001s-27.166 -44.334 -38.499 -71.001s-22 -53.667 -32 -81l-30 -81
c-10 -26.667 -20.667 -50.334 -32 -71.001s-23.666 -37.334 -36.999 -50.001s-28.666 -19 -45.999 -19c-20 0 -38 3.83301 -54 11.5s-29.5 18 -40.5 31s-19.333 28.167 -25 45.5s-8.5 36 -8.5 56c0 32.667 7.5 68.167 22.5 106.5s34.833 76.5 59.5 114.5s53 74.5 85 109.5
s65.167 66 99.5 93s68.5 48.667 102.5 65s65.667 24.5 95 24.5c48 0 87.667 -11 119 -33s56.5 -51.167 75.5 -87.5s32.667 -77.833 41 -124.5s14 -94.334 17 -143.001s4 -96.334 3 -143.001s-1.5 -88.667 -1.5 -126v-63c0 -32 -0.5 -70.833 -1.5 -116.5
s-2.66699 -96 -5 -151s-5.83301 -110.333 -10.5 -166s-10.834 -109.834 -18.501 -162.501s-17 -99.334 -28 -140.001s-24.167 -73.334 -39.5 -98.001s-33 -37 -53 -37c-8.66699 0 -16.667 0.333008 -24 1s-14.333 2.66699 -21 6s-12.834 8.5 -18.501 15.5
s-11.5 17.167 -17.5 30.5z" />
    <glyph glyph-name="lulakkhangyao" unicode="&#xc6;&#xd2;" horiz-adv-x="1774" 
d="M747 -551c0 82 3.99414 163.165 11.9941 243.498s17 160.333 27 240s19 159.667 27 240s12 161.833 12 244.5c0 7.33301 -0.166992 18.166 -0.5 32.499s-0.833008 30.5 -1.5 48.5s-1.5 36.667 -2.5 56s-2 37.666 -3 54.999s-2 32.5 -3 45.5s-2.16699 22.167 -3.5 27.5
c-6 28 -14.667 51 -26 69s-24.333 32.167 -39 42.5s-30.667 17.333 -48 21s-35.333 5.5 -54 5.5c-16 0 -31 -4.66699 -45 -14s-26.667 -20.833 -38 -34.5s-21.166 -28.5 -29.499 -44.5s-14.5 -31 -18.5 -45c-10 -35.333 -19 -71.666 -27 -108.999l-24.5 -115.5
c-8.33301 -39.667 -17.5 -80.167 -27.5 -121.5s-21.667 -83.333 -35 -126c-5.33301 -18.667 -11 -32.5 -17 -41.5s-13 -15.167 -21 -18.5s-17.5 -4.83301 -28.5 -4.5s-24.5 0.5 -40.5 0.5c-40 0 -76.833 11.833 -110.5 35.5s-62.667 53.5 -87 89.5s-43.5 75.167 -57.5 117.5
s-21 82.166 -21 119.499c0 32 6.16699 57.667 18.5 77s34.5 29 66.5 29c21.333 0 39.5 -7.5 54.5 -22.5s27.5 -32.667 37.5 -53s17.833 -41.333 23.5 -63s9.83398 -39.167 12.501 -52.5c15.333 10 27.833 26.5 37.5 49.5s18.334 50 26.001 81s14.834 64.667 21.501 101
s14.667 72.5 24 108.5s20.666 70.833 33.999 104.5s30.5 63.5 51.5 89.5s46.5 46.833 76.5 62.5s66.333 23.5 109 23.5c67.333 0 123.833 -11 169.5 -33s83 -51.5 112 -88.5s51.167 -79.833 66.5 -128.5s26.333 -99.667 33 -153s10.334 -107.666 11.001 -162.999
s1 -107.666 1 -156.999c0 -18 -1.16699 -47.833 -3.5 -89.5s-5.66602 -90.167 -9.99902 -145.5s-9.66602 -115.166 -15.999 -179.499s-13.333 -128.166 -21 -191.499s-16 -123.833 -25 -181.5s-18.5 -107.834 -28.5 -150.501c-4.66699 -19.333 -10 -34.5 -16 -45.5
s-12.333 -19.167 -19 -24.5s-13.5 -8.66602 -20.5 -9.99902s-13.833 -2 -20.5 -2c-8 0 -15.333 0.166992 -22 0.5s-13 1.83301 -19 4.5s-11.833 7 -17.5 13s-11.167 14.333 -16.5 25v106zM1427.99 -402.002c0 84.667 4.16992 169.168 12.5029 253.501
s18.333 170.166 30 257.499l36 269.5c12.333 92.333 22.166 189.166 29.499 290.499c2.66699 18.667 3.5 36.834 2.5 54.501s-4.33301 33.167 -10 46.5s-13.667 23.833 -24 31.5s-23.5 11.167 -39.5 10.5c-38.667 -2 -70.167 -11.333 -94.5 -28s-44.5 -37 -60.5 -61
s-29.667 -49.667 -41 -77s-23.333 -52.5 -36 -75.5s-27.834 -42.167 -45.501 -57.5s-40.5 -23 -68.5 -23c-13.333 0 -25.833 3 -37.5 9s-21.667 13.667 -30 23s-15 19.666 -20 30.999s-7.5 22.333 -7.5 33c0 40.667 8.33301 79.667 25 117s38.334 72.166 65.001 104.499
s57.167 61.666 91.5 87.999s69.166 48.833 104.499 67.5s69.833 33.167 103.5 43.5s63.167 15.5 88.5 15.5c53.333 0 94.5 -11 123.5 -33s49.833 -50.833 62.5 -86.5s19.334 -76.5 20.001 -122.5s-0.666016 -93 -3.99902 -141c-5.33301 -71.333 -12.666 -143 -21.999 -215
l-28 -216.5c-9.33301 -72.333 -17.5 -145.166 -24.5 -218.499s-10.5 -147 -10.5 -221c0 -24 2.16699 -47.5 6.5 -70.5s9.16602 -46.167 14.499 -69.5s10.166 -47 14.499 -71s6.5 -49.333 6.5 -76c0 -21.333 -1 -40.5 -3 -57.5s-6.16699 -31.5 -12.5 -43.5
s-15.833 -21.167 -28.5 -27.5s-29.667 -9.5 -51 -9.5c-34.667 0 -61.334 8.83301 -80.001 26.5s-32.334 39.334 -41.001 65.001s-13.667 53.334 -15 83.001s-2 56.5 -2 80.5z" />
    <glyph glyph-name=".notdef" horiz-adv-x="963" 
d="M92 136c0.666992 62 1.66699 124.999 3 188.999s2.5 127.667 3.5 191s1.5 126 1.5 188s-0.333008 122 -1 180c-10.667 5.33301 -18.834 11.833 -24.501 19.5s-9.83398 15.5 -12.501 23.5s-4.16699 15.667 -4.5 23s-0.5 13.666 -0.5 18.999
c0 18.667 10.167 35.334 30.5 50.001s47 27.834 80 39.501s70.833 21.667 113.5 30s86.334 15.5 131.001 21.5s88.5 10.833 131.5 14.5s81.833 6.66699 116.5 9s63 3.83301 85 4.5s34.333 1 37 1c26.667 0 48.334 -1.5 65.001 -4.5s29.667 -7.66699 39 -14
s15.666 -15 18.999 -26s5 -24.5 5 -40.5c0 -5.33301 -0.166992 -11.833 -0.5 -19.5s-1.83301 -15.5 -4.5 -23.5s-7 -15.667 -13 -23s-14.333 -13.666 -25 -18.999c4.66699 -144.667 7.66699 -290.167 9 -436.5s-1.66699 -297.833 -9 -454.5
c-3.33301 -8.66699 -7 -16.334 -11 -23.001c-3.33301 -5.33301 -7.66602 -10.166 -12.999 -14.499s-11.333 -5.83301 -18 -4.5c-50 6.66699 -104.333 9.16699 -163 7.5s-117.334 -6 -176.001 -13s-115.5 -15.167 -170.5 -24.5l-146.5 -25.5
c-42.667 -7.66699 -77.167 -13.667 -103.5 -18s-40.166 -4.83301 -41.499 -1.5c-9.33301 18.667 -14.833 35 -16.5 49s0.333008 27.5 6 40.5s15 26.167 28 39.5s29.833 28.666 50.5 45.999zM590 971.999c-10.667 0 -25.999 -0.165039 -45.999 -0.498047s-41.833 -1 -65.5 -2
s-47.834 -2.5 -72.501 -4.5s-47 -4.66699 -67 -8s-36.5 -7.5 -49.5 -12.5s-19.5 -10.833 -19.5 -17.5c-16 -240.667 -16 -481 0 -721c0.666992 -14 6.5 -24.167 17.5 -30.5s23.5 -10.333 37.5 -12s27.833 -2.16699 41.5 -1.5s24.167 1 31.5 1c10.667 0 23 0.5 37 1.5
s29 2.5 45 4.5s32.5 4.33301 49.5 7l49.5 8l118 22c4 114 6.66699 227 8 339s-1.33398 225 -8.00098 339c-1.33301 26.667 -4.66602 46.167 -9.99902 58.5s-12.5 20.666 -21.5 24.999s-19.833 6.16602 -32.5 5.49902s-27 -1 -43 -1z" />
    <glyph glyph-name="space" unicode=" " horiz-adv-x="690" 
 />
    <glyph glyph-name="exclam" unicode="!" horiz-adv-x="458" 
d="M141 458l-0.000976562 78.001c0 32 0.166992 67.333 0.5 106s1.5 79.5 3.5 122.5s5 85.5 9 127.5s9.16699 82 15.5 120s14.666 71.5 24.999 100.5s22.5 52 36.5 69s30.333 25.5 49 25.5c11.333 0 25.5 -1 42.5 -3s33.167 -6.33301 48.5 -13s27.833 -15.834 37.5 -27.501
s13.167 -27.5 10.5 -47.5l-93 -680c-2.66699 -17.333 -7.5 -30.5 -14.5 -39.5s-15.167 -15.667 -24.5 -20s-19.666 -6.83301 -30.999 -7.5s-22.666 -1 -33.999 -1c-20 0 -35.5 1 -46.5 3s-19 6.16699 -24 12.5s-8 15.333 -9 27s-1.5 27.5 -1.5 47.5zM67.999 56.001
c0 24 5.66699 45.1689 17 63.502s25.833 33.666 43.5 45.999s37.167 21.5 58.5 27.5s42.333 9 63 9c40.667 0 70 -11.5 88 -34.5s27 -54.5 27 -94.5c0 -40.667 -9 -72.334 -27 -95.001s-47.333 -34 -88 -34c-20.667 0 -41.667 1.33301 -63 4s-40.833 8 -58.5 16
s-32.167 19.333 -43.5 34s-17 34 -17 58z" />
    <glyph glyph-name="quotedbl" unicode="&#x22;" horiz-adv-x="641" 
d="M286 802c2.66699 39.333 4.33789 81.334 5.00488 126.001s2.16699 86.167 4.5 124.5s6.16602 70.833 11.499 97.5s14 41.667 26 45c28.667 8 51.667 11 69 9s30.833 -8.83301 40.5 -20.5s16.167 -28.167 19.5 -49.5s5 -48 5 -80
c0 -12.667 -0.833008 -27.334 -2.5 -44.001s-3.83398 -34.167 -6.50098 -52.5s-5.83398 -37 -9.50098 -56s-7.5 -36.833 -11.5 -53.5c-3.33301 -14 -7.16602 -27 -11.499 -39s-9.83301 -22.5 -16.5 -31.5s-14.834 -16 -24.501 -21s-21.5 -7.5 -35.5 -7.5
c-6.66699 0 -13.834 1.16699 -21.501 3.5s-14.834 5.66602 -21.501 9.99902s-12 9.83301 -16 16.5s-5.33301 14.334 -4 23.001zM300.004 1139c0 -28.667 -2.83203 -54.6709 -8.49902 -78.0039s-11.167 -47.666 -16.5 -72.999c-5.33301 -26 -10 -50 -14 -72
s-9.33301 -41 -16 -57s-16 -28.167 -28 -36.5s-28.667 -11.166 -50 -8.49902c-9.33301 0.666992 -18.666 1.66699 -27.999 3s-17.833 3.66602 -25.5 6.99902s-13.834 8.33301 -18.501 15s-7 15.667 -7 27c0 10.667 1.16699 24.167 3.5 40.5s5.5 34.333 9.5 54
s8.5 40.334 13.5 62.001l15.5 64.5l9.5 42.5c3 13.667 6.16699 26.334 9.5 38.001s7.16602 21.667 11.499 30s10.166 14.5 17.499 18.5c5.33301 2.66699 11.833 4.5 19.5 5.5s15.334 1.33301 23.001 1s15 -1.16602 22 -2.49902s12.5 -2.66602 16.5 -3.99902
c8 -3.33301 16.833 -11.833 26.5 -25.5s14.5 -30.834 14.5 -51.501z" />
    <glyph glyph-name="numbersign" unicode="#" horiz-adv-x="1474" 
d="M778 -19c-4.66699 8 -7.82715 24.832 -9.49414 50.499s-2 57 -1 94s2.83301 77.833 5.5 122.5c2.66699 37.333 5.66699 75.666 9 114.999l-33 -12l-73 -28l-2 -43c-2 -38.667 -3.5 -75 -4.5 -109s-1.5 -64.333 -1.5 -91s1 -47 3 -61
c1.33301 -11.333 -0.333984 -21.166 -5.00098 -29.499s-11 -15.333 -19 -21s-17.5 -10.167 -28.5 -13.5s-22.167 -5.66602 -33.5 -6.99902c-26.667 -4 -58 -4.33301 -94 -1c-8.66699 3.33301 -16.334 11.666 -23.001 24.999c-5.33301 11.333 -10 28.666 -14 51.999
s-4.66699 56 -2 98c1.33301 28.667 3.33301 59.667 6 93c-9.33301 -6 -17.666 -11.667 -24.999 -17c-16.667 -12 -23.334 -19.667 -20.001 -23c-1.33301 1.33301 -6.83301 -3.83398 -16.5 -15.501s-22.5 -24.334 -38.5 -38.001s-34.333 -25.5 -55 -35.5
s-42.334 -12.667 -65.001 -8c-46 9.33301 -74.333 28.5 -85 57.5s-5 63.167 17 102.5c10.667 19.333 30.834 41.5 60.501 66.5s68.5 51.167 116.5 78.5c40 23.333 86 47 138 71c2.66699 20 5.66699 40 9 60c4.66699 36.667 9.66699 72.334 15 107.001l-79 -31l-59.5 -24.5
c-15 -6.33301 -25.5 -11 -31.5 -14s-9 -5.16699 -9 -6.5c0 -0.666992 1.66699 -3.5 5 -8.5s6.33301 -10.833 9 -17.5s4.16699 -13.834 4.5 -21.501s-2.83398 -14.5 -9.50098 -20.5s-17.5 -11 -32.5 -15s-36.167 -5.66699 -63.5 -5c-41.333 0.666992 -73.166 2.5 -95.499 5.5
s-39 6.83301 -50 11.5s-18 9.66699 -21 15s-5.83301 11 -8.5 17c-2 4 -5.16699 8.83301 -9.5 14.5s-7.66602 12.667 -9.99902 21s-2.33301 18 0 29s10 23.5 23 37.5s32.333 29.833 58 47.5s60.167 37.5 103.5 59.5c32.667 16 67.167 31.333 103.5 46s72.833 28 109.5 40
c32 10.667 63.667 20.667 95 30l23 142c5.33301 41.333 14 78.333 26 111c5.33301 14 11.666 27.667 18.999 41s15.833 25.5 25.5 36.5s20.667 20 33 27s26.5 11.167 42.5 12.5c18.667 1.33301 32.834 -2.83398 42.501 -12.501s16 -22.167 19 -37.5
s3.83301 -32.166 2.5 -50.499s-3.33301 -35.166 -6 -50.499s-5.33398 -28.333 -8.00098 -39c-2 -8.66699 -2.66699 -13.334 -2 -14.001c-1.33301 -1.33301 -3.33301 -8.66602 -6 -21.999c-2.66699 -14 -5.66699 -32 -9 -54c-1.33301 -12 -3 -24.667 -5 -38l100 21
c2 11.333 3.66699 23 5 35l12 77.5c4 26.333 8.16699 50.5 12.5 72.5s8.33301 41 12 57s7.16699 26.333 10.5 31c4.66699 7.33301 14 13.5 28 18.5s28.667 7.33301 44 7s29.666 -4.66602 42.999 -12.999s22 -22.166 26 -41.499c2.66699 -13.333 3.16699 -35.166 1.5 -65.499
s-4.16699 -65.5 -7.5 -105.5c-1.33301 -10.667 -2.33301 -21.334 -3 -32.001l179 42c14 -6.66699 26.333 -14.334 37 -23.001c9.33301 -7.33301 17.333 -16.5 24 -27.5s9 -23.167 7 -36.5s-4.16699 -25.166 -6.5 -35.499s-8.83301 -20 -19.5 -29
s-28.167 -18.167 -52.5 -27.5s-59.5 -19.333 -105.5 -30l-83 -21l-4 -37c-4 -32.667 -7.33301 -63.334 -10 -92.001c66.667 18.667 125.667 33.334 177 44.001c54.667 12 99.667 20.167 135 24.5s59 5.5 71 3.5c8 -1.33301 14.5 -6.33301 19.5 -15s8.83301 -19 11.5 -31
s4 -24.667 4 -38s-1 -26 -3 -38s-5 -22 -9 -30s-8.33301 -12.333 -13 -13c-48.667 -8.66699 -100.834 -20.167 -156.501 -34.5s-111.5 -30.166 -167.5 -47.499c-26 -7.33301 -51.333 -15 -76 -23v-60c0 -32.667 -0.333008 -66.5 -1 -101.5s-1 -68.333 -1 -100
s-0.166992 -60.667 -0.5 -87s-0.5 -47.166 -0.5 -62.499s-4 -28.333 -12 -39s-18.333 -19.167 -31 -25.5s-26.834 -10.5 -42.501 -12.5s-30.834 -1.83301 -45.501 0.5s-28.167 6.66602 -40.5 12.999s-21.833 14.833 -28.5 25.5zM792.007 707.999l-80 -22
c-0.666992 -4.66699 -1.33398 -9.66699 -2.00098 -15c-3.33301 -28.667 -6.66602 -54.667 -9.99902 -78l-7 -56l51 17l57 19c3.33301 28.667 6.33301 55.667 9 81c2 22 4 42 6 60z" />
    <glyph glyph-name="dollar" unicode="$" horiz-adv-x="840" 
d="M51 206c0 18.667 7.16211 34.1689 21.4951 46.502s31.5 22 51.5 29s41 12 63 15s40.667 4.5 56 4.5c12 0 23.5 -1.33301 34.5 -4s21.833 -5.66699 32.5 -9l27 -8c0 44.667 -0.333008 90.667 -1 138v103c-0.666992 0.666992 -1.33398 1 -2.00098 1
c-30 10 -59.5 20.667 -88.5 32s-54.833 24.333 -77.5 39s-41 31.5 -55 50.5s-21 40.833 -21 65.5c0 31.333 8.16699 60.666 24.5 87.999s38 52.333 65 75s57.167 42.667 90.5 60c29.333 15.333 59 28.666 89 39.999l12 72c2 8 5.66699 17.167 11 27.5
s11.5 20.166 18.5 29.499s14.167 17.166 21.5 23.499s13.333 9.5 18 9.5s10 0.166992 16 0.5s11.833 -0.166992 17.5 -1.5s10.667 -3.66602 15 -6.99902s7.5 -9 9.5 -17c0 -2.66699 -0.166992 -10.334 -0.5 -23.001s-1.16602 -27.667 -2.49902 -45l-2 -33
c24 4 45.667 6 65 6c22 0 46 -3.66699 72 -11s50.333 -18.333 73 -33s41.5 -32.5 56.5 -53.5s22.5 -45.167 22.5 -72.5c0 -10 -0.666992 -20.833 -2 -32.5s-4.16602 -22.667 -8.49902 -33s-10.5 -18.833 -18.5 -25.5s-18.667 -10 -32 -10c-22 0 -40.167 5.5 -54.5 16.5
s-27.666 23.333 -39.999 37s-25.166 26 -38.499 37s-30.333 16.5 -51 16.5c-9.33301 0 -22.333 -1 -39 -3c-3.33301 -0.666992 -6.66602 -1 -9.99902 -1c0 -64.667 -0.666992 -125.334 -2 -182.001c0 -23.333 -0.333008 -47 -1 -71l33 -8
c31.333 -6.66699 62 -14.167 92 -22.5s56.667 -18.666 80 -30.999s42.166 -27.666 56.499 -45.999s21.5 -41.166 21.5 -68.499c0 -36 -9.5 -68.833 -28.5 -98.5s-43.667 -56 -74 -79s-64.5 -43.167 -102.5 -60.5c-32 -14 -64 -26 -96 -36c-2 -30.667 -3.66699 -62 -5 -94
c-3.33301 -12 -9.66602 -23.167 -18.999 -33.5s-22 -15.5 -38 -15.5s-29.333 3 -40 9s-20.667 15.333 -30 28v75c-35.333 -4.66699 -65 -7 -89 -7c-15.333 0 -34.166 1.16699 -56.499 3.5s-44 7 -65 14s-38.833 17.167 -53.5 30.5s-22 31 -22 53zM493.995 320.002
c22 13.333 41.167 27.833 57.5 43.5s24.5 30.167 24.5 43.5c0 12.667 -7 24 -21 34s-32.333 19.333 -55 28l-16 6c-2 -52.667 -4.33301 -107.667 -7 -165zM331.995 800.002c-16.667 -8.66699 -30.332 -18.5 -40.999 -29.5s-16 -23.167 -16 -36.5c-0.666992 -24 6 -44 20 -60
c11.333 -12.667 25.666 -24 42.999 -34c2 56 4.66699 111.667 8 167z" />
    <glyph glyph-name="percent" unicode="%" horiz-adv-x="938" 
d="M35 95l82.998 126l83 120.5l85.5 119.5l90.5 122l161 219.5c45.333 64.333 85.5 118.333 120.5 162s66.833 76.5 95.5 98.5s57.667 32.333 87 31c15.333 -0.666992 27.833 -2 37.5 -4s17.334 -5.5 23.001 -10.5s9.33398 -12.167 11.001 -21.5
s2.16699 -21.666 1.5 -36.999c-1.33301 -20 -10 -44.5 -26 -73.5s-34.667 -58.333 -56 -88s-42.666 -57.834 -63.999 -84.501l-49 -62l-121.5 -163l-109 -148.5l-102.5 -144l-101 -149.5c2 -6.66699 -0.333008 -14.334 -7 -23.001s-15.834 -17.167 -27.501 -25.5
s-25 -16.5 -40 -24.5s-29.833 -14.667 -44.5 -20s-28.667 -9.33301 -42 -12s-24 -3 -32 -1c-12.667 6 -22 12.333 -28 19s-10.667 13.667 -14 21s-5.83301 15.333 -7.5 24s-4.16699 18.334 -7.5 29.001zM697.998 272c0 24 1.16699 42.334 3.5 55.001s7 22 14 28
s16.667 9.5 29 10.5s28.833 1.5 49.5 1.5c40.667 0 71.334 -7.83301 92.001 -23.5s31 -44.167 31 -85.5s-10.333 -70 -31 -86s-51.334 -24 -92.001 -24c-20.667 0 -37.167 3.16699 -49.5 9.5s-22 15 -29 26s-11.667 24.167 -14 39.5s-3.5 31.666 -3.5 48.999z
M67.998 804.001c0 17.333 3.16699 31.3301 9.5 41.9971s14.5 19 24.5 25s21.667 10 35 12s27 3 41 3c34 0 60.833 -7.83301 80.5 -23.5s29.5 -44.167 29.5 -85.5c0 -13.333 -1.83301 -26.666 -5.5 -39.999s-9.33398 -25.166 -17.001 -35.499s-17.667 -18.666 -30 -24.999
s-26.833 -9.5 -43.5 -9.5c-17.333 0 -33.666 4.5 -48.999 13.5s-28.5 20.333 -39.5 34s-19.667 28.5 -26 44.5s-9.5 31 -9.5 45z" />
    <glyph glyph-name="ampersand" unicode="&#x26;" horiz-adv-x="1016" 
d="M295 592l53.998 53.9941l18 18c-13.333 28.667 -23.666 55.334 -30.999 80.001c-3.33301 10.667 -6.5 25.5 -9.5 44.5s-4.5 39.833 -4.5 62.5s1.83301 46 5.5 70s10.5 46.833 20.5 68.5s23.667 41 41 58s40 29.5 68 37.5c42 12 79.167 14.667 111.5 8
s58.5 -20.5 78.5 -41.5s33.167 -47.667 39.5 -80s4.5 -67.5 -5.5 -105.5c-6 -23.333 -18.333 -52.666 -37 -87.999s-41 -72.333 -67 -111l85 -117l96 -129c31.333 -42 61.666 -84.667 90.999 -128h1c10.667 -1.33301 20.334 -3.66602 29.001 -6.99902s15.667 -8 21 -14
l25.5 -30.5c10.333 -12.333 15.5 -25.833 15.5 -40.5c0.666992 -10 -3.66602 -20.333 -12.999 -31c4.66699 -8 9.66699 -16 15 -24c6 -11.333 8.66699 -22.5 8 -33.5s-3.16699 -21.5 -7.5 -31.5s-9.66602 -19.167 -15.999 -27.5s-12.5 -14.833 -18.5 -19.5
c-13.333 -11.333 -28.333 -15.333 -45 -12s-33.834 11.166 -51.501 23.499s-35.5 27.833 -53.5 46.5l-11 12c-22 -6.66699 -42.667 -14 -62 -22l-111 -46.5c-36 -15 -73.333 -27.833 -112 -38.5s-82.667 -16 -132 -16c-35.333 0 -69.5 3.83301 -102.5 11.5
s-62.167 19.834 -87.5 36.501s-45.5 37.834 -60.5 63.501s-22.5 56.167 -22.5 91.5c0 38.667 6 75.334 18 110.001s28.5 68.334 49.5 101.001s46 65.167 75 97.5s60.5 65.5 94.5 99.5zM631.998 257.994l-35.498 48.502l-52.5 72l-61 87.5l-25 38
c-20 -25.333 -39.667 -49 -59 -71l-52 -59c-19.333 -22 -36.666 -44.667 -51.999 -68s-26.333 -46.333 -33 -69s-5 -43.334 5 -62.001c8.66699 -16 22.667 -25.5 42 -28.5s41.666 -1.83301 66.999 3.5s52.666 13.666 81.999 24.999s58.166 23.5 86.499 36.5l80.5 37.5
c3.33301 1.33301 6.33301 3 9 5zM525 848.996c6.66699 14.667 9.50098 30.334 8.50098 47.001s-4 30.167 -9 40.5s-11.333 15.833 -19 16.5s-14.834 -7.33301 -21.501 -24c-6.66699 -17.333 -8 -37.333 -4 -60c4 -20.667 10 -41.334 18 -62.001
c12.667 16.667 21.667 30.667 27 42z" />
    <glyph glyph-name="quotesingle" unicode="'" horiz-adv-x="384" 
d="M253 784c-9.33301 -10 -17.5 -15.835 -24.5 -17.502s-17.833 -2.5 -32.5 -2.5c-9.33301 0 -19.666 0.833008 -30.999 2.5s-22 4.5 -32 8.5s-18.333 9.83301 -25 17.5s-10 17.5 -10 29.5v105c0 12.667 -0.166992 28.5 -0.5 47.5s-0.166016 38.833 0.500977 59.5
s2.66699 41.334 6 62.001s8.5 39.334 15.5 56.001s16.667 30.167 29 40.5s28.166 15.5 47.499 15.5s34.166 -3.83301 44.499 -11.5s18 -17.5 23 -29.5s7.83301 -25.5 8.5 -40.5s1 -29.833 1 -44.5c0 -29.333 -0.166992 -55.333 -0.5 -78s-1 -45.167 -2 -67.5
s-3 -45.5 -6 -69.5s-6.83301 -51.667 -11.5 -83z" />
    <glyph glyph-name="parenleft" unicode="(" horiz-adv-x="405" 
d="M44 321c-6.66699 36 -11.667 74.333 -15 115s-3.66602 83.167 -0.999023 127.5s9 90.5 19 138.5s25 97.333 45 148c20 49.333 42 96.333 66 141s49.5 84.5 76.5 119.5s55.5 64 85.5 87s60.667 37.833 92 44.5c24 4.66699 44.667 0.833984 62 -11.499
s28.666 -32.833 33.999 -61.5c3.33301 -19.333 0.833008 -35.833 -7.5 -49.5s-19.666 -26.667 -33.999 -39l-47.5 -40c-17.333 -14.333 -33.333 -31.833 -48 -52.5c-25.333 -37.333 -49 -78.833 -71 -124.5s-40.833 -93.334 -56.5 -143.001s-27.334 -100.5 -35.001 -152.5
s-9.83398 -102.667 -6.50098 -152c2 -30.667 5.16699 -61 9.5 -91s9.83301 -61.5 16.5 -94.5s14.5 -67.833 23.5 -104.5l30.5 -121c3.33301 -14 3.5 -26 0.5 -36s-7.66699 -18.333 -14 -25s-13.333 -11.834 -21 -15.501s-14.5 -5.5 -20.5 -5.5
c-23.333 -0.666992 -43.666 6.5 -60.999 21.5s-32.333 34.667 -45 59s-23.167 51.333 -31.5 81s-15.333 59.334 -21 89.001s-10.5 57.5 -14.5 83.5z" />
    <glyph glyph-name="parenright" unicode=")" horiz-adv-x="491" 
d="M21 35c0.666992 14.667 7.33398 30.5 20.001 47.5l46.5 59.5c18.333 22.667 38 49.167 59 79.5s40.333 66.333 58 108s32.334 90.167 44.001 145.5s17.167 119 16.5 191c-0.666992 79.333 -5.83398 146.166 -15.501 200.499s-21.167 99.333 -34.5 135
s-27.833 63.834 -43.5 84.501s-30.167 37.167 -43.5 49.5l-32.5 30c-8.33301 7.66699 -12.166 16.5 -11.499 26.5c1.33301 16.667 4.66602 29.667 9.99902 39s12.5 16.5 21.5 21.5s19.667 8 32 9s25.5 1.16699 39.5 0.5c44.667 -2 82 -17.167 112 -45.5
s54.5 -64.166 73.5 -107.499s33.333 -91.833 43 -145.5s16.167 -107.167 19.5 -160.5s4.33301 -103.833 3 -151.5s-3 -87.167 -5 -118.5c-1.33301 -22.667 -7.33301 -53 -18 -91s-24.5 -78.667 -41.5 -122s-36.667 -87.333 -59 -132s-46.333 -84.667 -72 -120
s-52.5 -64 -80.5 -86s-55.667 -32.333 -83 -31c-14 0.666992 -25.167 3.16699 -33.5 7.5s-14.5 10.166 -18.5 17.499s-6.33301 16 -7 26s-0.333984 21 0.999023 33z" />
    <glyph glyph-name="asterisk" unicode="*" horiz-adv-x="945" 
d="M569 865c3.33301 -18.667 6.33398 -36.333 9.00098 -53c14.667 11.333 29.167 23.5 43.5 36.5s28.666 25 42.999 36s27.5 16.5 39.5 16.5c15.333 0 29.666 -0.5 42.999 -1.5s24.833 -3.66699 34.5 -8s17.334 -10.833 23.001 -19.5s8.5 -20.667 8.5 -36
c2 0.666992 4.16699 -1.33301 6.5 -6s4.5 -10.334 6.5 -17.001s3.16699 -13.167 3.5 -19.5s-0.833984 -10.5 -3.50098 -12.5c-14.667 -10.667 -31 -24 -49 -40s-36.667 -33.5 -56 -52.5l-58.5 -59l-56.5 -59.5c-13.333 -13.333 -25.666 -26.333 -36.999 -39l48 -32l83 -51.5
c28 -17 53.5 -34.167 76.5 -51.5s41.833 -34.666 56.5 -51.999s22 -35 22 -53c0 -12 -2.66699 -20.833 -8 -26.5s-11.833 -9.16699 -19.5 -10.5s-15.667 -1.66602 -24 -0.999023s-15.5 1 -21.5 1c-24.667 0 -48.667 3.5 -72 10.5s-46.833 16.5 -70.5 28.5
s-47.167 26 -70.5 42l-49 34c-1.33301 -18.667 -2.33301 -36.334 -3 -53.001c-2.66699 -42.667 -6.66699 -79.334 -12 -110.001s-13 -54.667 -23 -72s-24 -26 -42 -26c-38.667 0 -65 23.667 -79 71c-10 34.667 -14.667 79 -14 133c-2.66699 -2 -5 -4 -7 -6
c-28.667 -22 -57.167 -38.5 -85.5 -49.5s-56.166 -11.833 -83.499 -2.5c-8.66699 2.66699 -16.167 8.83398 -22.5 18.501s-11.5 20.167 -15.5 31.5s-6.83301 22.666 -8.5 33.999s-2.5 20 -2.5 26v36l141 104c23.333 18 46 36.667 68 56c-10 14.667 -21.667 29 -35 43
l-67.5 70.5c-22.333 23 -41.666 46.167 -57.999 69.5s-24.5 47 -24.5 71c0 18.667 3.66699 31.5 11 38.5s20 10.5 38 10.5c10 0 23.667 -5.33301 41 -16s36.166 -24.167 56.499 -40.5s41.166 -34.5 62.499 -54.5c6.66699 -6 13 -12 19 -18c1.33301 22.667 3 45.334 5 68.001
v182c0 6 3.16699 10.833 9.5 14.5s13.833 6.16699 22.5 7.5s16.834 2.16602 24.501 2.49902s13.167 0.5 16.5 0.5c24.667 0 44.667 -7.16699 60 -21.5s27.666 -32.166 36.999 -53.499s16 -44.333 20 -69z" />
    <glyph glyph-name="plus" unicode="+" horiz-adv-x="1083" 
d="M414 410c-18 -3.33301 -34.8252 -7.00195 -50.4922 -11.002s-31.334 -7.66699 -47.001 -11s-31.334 -6.33301 -47.001 -9s-32.167 -4 -49.5 -4c-14 0 -28.667 2.83301 -44 8.5s-29.333 13.834 -42 24.501s-23 23.167 -31 37.5s-12 30.5 -12 48.5c0 21.333 8 38.5 24 51.5
s36.167 23.5 60.5 31.5s51.166 14.333 80.499 19s57.166 8.83398 83.499 12.501s49.5 7.83398 69.5 12.501s33 11.334 39 20.001c0 6.66699 -1.5 19 -4.5 37s-6.5 36.833 -10.5 56.5s-7.5 38.334 -10.5 56.001s-4.5 30.167 -4.5 37.5c0 30.667 8.5 52.5 25.5 65.5
s41.5 19.5 73.5 19.5c26 0 47.833 -3.83301 65.5 -11.5s32.334 -18 44.001 -31s21.167 -28.167 28.5 -45.5s13.666 -35.5 18.999 -54.5s10.166 -38.167 14.499 -57.5s9.5 -38 15.5 -56c14.667 0.666992 28.834 0.666992 42.501 0s29.834 -1.33398 48.501 -2.00098
s40.667 -0.833984 66 -0.500977s57 1.5 95 3.5c26.667 -15.333 41.5 -31.833 44.5 -49.5s-1.5 -40.834 -13.5 -69.501c-6 -16 -16.333 -29.167 -31 -39.5s-33.834 -18.833 -57.501 -25.5s-52.334 -12.5 -86.001 -17.5s-72.834 -10.167 -117.501 -15.5
c-4.66699 -7.33301 -9 -21.5 -13 -42.5s-8 -43.667 -12 -68l-11.5 -70c-3.66699 -22.333 -7.16699 -38.833 -10.5 -49.5c-14.667 -28.667 -30.667 -51 -48 -67s-40.333 -24 -69 -24c-28 0 -47.5 7.5 -58.5 22.5s-17.833 35.5 -20.5 61.5s-3.33398 56.833 -2.00098 92.5
s0.666016 74.167 -2.00098 115.5z" />
    <glyph glyph-name="comma" unicode="," horiz-adv-x="467" 
d="M248 208c15.333 9.33301 31.335 12.335 48.002 9.00195s31.834 -9.66602 45.501 -18.999s25 -20 34 -32s13.5 -22 13.5 -30c0 -21.333 -7.5 -44.333 -22.5 -69s-34.333 -52.334 -58 -83.001l-78.5 -103c-28.667 -38 -56.667 -81 -84 -129
c-6.66699 -12 -18.167 -17.833 -34.5 -17.5s-32.166 5 -47.499 14s-28 21.667 -38 38s-12.333 35.166 -7 56.499c5.33301 20 13.666 46.333 24.999 79s26.166 66.5 44.499 101.5s40.666 69.167 66.999 102.5s57.166 60.666 92.499 81.999z" />
    <glyph glyph-name="hyphen" unicode="-" horiz-adv-x="860" 
d="M73 495c0 10.667 0.666992 22.0049 2 34.0049s4 23.333 8 34s9.66699 20.167 17 28.5s17 14.5 29 18.5c14 4.66699 36 8.5 66 11.5s63.667 5.66699 101 8s76.666 4.16602 117.999 5.49902s80.833 2.16602 118.5 2.49902s71.334 0.666016 101.001 0.999023
s51.834 0.5 66.501 0.5c20.667 0 37.334 -3.33301 50.001 -10s22.5 -15.5 29.5 -26.5s11.667 -23.333 14 -37s3.5 -27.834 3.5 -42.501c0 -19.333 -13.667 -35.833 -41 -49.5s-62 -24.834 -104 -33.501s-88 -15.334 -138 -20.001s-98.167 -8.16699 -144.5 -10.5
s-87.333 -3.66602 -123 -3.99902s-59.834 -0.5 -72.501 -0.5c-8 0 -17.667 2 -29 6s-22.333 9.83301 -33 17.5s-19.834 17 -27.501 28s-11.5 23.833 -11.5 38.5z" />
    <glyph glyph-name="period" unicode="." horiz-adv-x="315" 
d="M59 105c0.666992 22.667 3.99902 41.165 9.99902 55.498s13.833 25.333 23.5 33s20.834 13 33.501 16s26 5.16699 40 6.5c21.333 1.33301 39.666 -2.5 54.999 -11.5s27.666 -21.167 36.999 -36.5s15.5 -32.5 18.5 -51.5s2.83301 -37.5 -0.5 -55.5
c-3.33301 -17.333 -11.166 -32.333 -23.499 -45s-26 -23 -41 -31s-29.667 -13.5 -44 -16.5s-25.166 -3.16699 -32.499 -0.5c-10.667 4 -20.667 10.5 -30 19.5s-17.5 19.833 -24.5 32.5s-12.5 26.334 -16.5 41.001s-5.66699 29.334 -5 44.001z" />
    <glyph glyph-name="slash" unicode="/" horiz-adv-x="621" 
d="M140 -76c-12 0 -24.835 1.99805 -38.502 5.99805s-26.334 10.333 -38.001 19s-21.5 19.667 -29.5 33s-12 29.333 -12 48l86 230l85.5 226.5l85.5 242.5c28.667 84.667 57.334 177.334 86.001 278.001c2.66699 8.66699 5.33398 21.167 8.00098 37.5s6 33.833 10 52.5
s8.83301 37.834 14.5 57.501s13 37.5 22 53.5s19.5 29 31.5 39s26.333 15 43 15c35.333 0 61 -8 77 -24s26 -35.833 30 -59.5s3.33301 -49.167 -2 -76.5s-11.666 -52 -18.999 -74l-180.5 -522.5l-184.5 -517.5c-5.33301 -21.333 -13.833 -37.333 -25.5 -48
s-28.167 -16 -49.5 -16z" />
    <glyph glyph-name="zero" unicode="0" horiz-adv-x="833" 
d="M45 382c-0.666992 52.667 2.66504 107 9.99805 163s18 110.667 32 164s31.167 104 51.5 152s43.333 90.167 69 126.5s53.834 65.5 84.501 87.5s63.334 34 98.001 36c52 2.66699 98.333 -4.66602 139 -21.999s76 -41.666 106 -72.999s55.5 -68 76.5 -110
s37.833 -85.833 50.5 -131.5s21.834 -91.667 27.501 -138s8.5 -89.5 8.5 -129.5c0 -36 -3.5 -74 -10.5 -114s-17.833 -79.167 -32.5 -117.5s-32.834 -75 -54.501 -110s-47.334 -65.667 -77.001 -92s-63.167 -47.333 -100.5 -63s-78.666 -23.5 -123.999 -23.5
c-31.333 0 -61.833 5.83301 -91.5 17.5s-57.5 27.667 -83.5 48s-49.833 43.666 -71.5 69.999s-40.5 54.166 -56.5 83.499s-28.5 59 -37.5 89s-13.5 59 -13.5 87zM226.999 361c1.33301 -20.667 7.00391 -41.501 17.0039 -62.501s23.167 -40 39.5 -57s35.166 -31 56.499 -42
s44 -16.5 68 -16.5c26.667 0 50.5 6.16699 71.5 18.5s39.667 28.333 56 48s30.166 42 41.499 67s20.833 50.333 28.5 76s13.167 50.5 16.5 74.5s5 45 5 63c0 14.667 -1 34.5 -3 59.5s-5.33301 51.833 -10 80.5s-10.834 58 -18.501 88s-17.5 57 -29.5 81
s-26.333 43.667 -43 59s-36 23 -58 23c-34 0 -63.667 -11.167 -89 -33.5s-47 -51.166 -65 -86.499s-32.833 -74.5 -44.5 -117.5s-20.667 -85.333 -27 -127s-10.333 -80 -12 -115s-1.83398 -61.833 -0.500977 -80.5z" />
    <glyph glyph-name="one" unicode="1" horiz-adv-x="842" 
d="M23 133c3.33301 7.33301 7.82812 14.665 13.4951 21.998s11.167 13.666 16.5 18.999c6 6.66699 12.333 12.667 19 18c48 -5.33301 85.167 -8.16602 111.5 -8.49902s46.166 0.5 59.499 2.5s21.833 4.66699 25.5 8s7.16699 6 10.5 8
c2.66699 2.66699 5.83398 13.334 9.50098 32.001s8.33398 48.334 14.001 89.001s12.167 93.5 19.5 158.5l26 240.5c-14.667 -23.333 -28 -42 -40 -56s-23.5 -24.833 -34.5 -32.5s-22.167 -12.5 -33.5 -14.5s-23.666 -2.33301 -36.999 -1
c-11.333 1.33301 -23.166 4.66602 -35.499 9.99902s-23 12.166 -32 20.499s-14.833 17.833 -17.5 28.5s0 22 8 34l229 340c9.33301 12.667 17.333 21.667 24 27s13.5 8.66602 20.5 9.99902s14.667 1.16602 23 -0.500977s19.166 -3.16699 32.499 -4.5
c8 -0.666992 18.167 -0.666992 30.5 0s24.333 0.5 36 -0.5s21.334 -3.66699 29.001 -8s10.834 -12.166 9.50098 -23.499c-9.33301 -60.667 -16.833 -119.667 -22.5 -177s-10.834 -114 -15.501 -170s-9 -111.667 -13 -167s-9 -111.666 -15 -168.999
c-1.33301 -13.333 -2.5 -28 -3.5 -44s-1.66699 -32.333 -2 -49s-0.333008 -33.167 0 -49.5s1.16602 -31.5 2.49902 -45.5c19.333 -3.33301 38.833 -3.66602 58.5 -0.999023s39 5.66699 58 9l56.5 9.5c18.667 3 37 3.5 55 1.5c26.667 -2.66699 43.5 -8 50.5 -16
s9.5 -22.333 7.5 -43c-2.66699 -23.333 -16.667 -42.666 -42 -57.999s-57.166 -27.833 -95.499 -37.5s-80.5 -16.667 -126.5 -21s-91 -7 -135 -8s-84.333 -0.833008 -121 0.5s-64.667 3 -84 5c-16 2 -33.167 4.83301 -51.5 8.5s-35.166 9.66699 -50.499 18
s-27.666 19.333 -36.999 33s-13 31.167 -11 52.5z" />
    <glyph glyph-name="two" unicode="2" horiz-adv-x="1058" 
d="M69 89c0 18.667 9.99707 39.1758 29.9971 61.5088s44.833 46.833 74.5 73.5l96 86.5c34.333 31 65.833 64.5 94.5 100.5l60 73.5l71 89c24 31 46.667 62.167 68 93.5s38 60.666 50 87.999s18 51.666 18 72.999s-9 37.333 -27 48c-20.667 12 -41 17.5 -61 16.5
s-39.333 -6.5 -58 -16.5s-36.5 -23.833 -53.5 -41.5s-32.833 -37.167 -47.5 -58.5c-14 -20.667 -26.5 -41.167 -37.5 -61.5s-21.833 -38.833 -32.5 -55.5s-22 -30.834 -34 -42.501s-26 -18.834 -42 -21.501c-10 -2 -20.167 -0.666992 -30.5 4s-20 11.167 -29 19.5
s-16.333 18.333 -22 30s-8.5 23.5 -8.5 35.5c0 52 13 102.667 39 152s59.5 93 100.5 131s86.167 68.667 135.5 92s97.666 35 144.999 35c60 0 108.333 -9.33301 145 -28s64.334 -43.334 83.001 -74.001s29.167 -65.167 31.5 -103.5s-1.16699 -77.5 -10.5 -117.5
c-8 -36 -21 -73.333 -39 -112s-38.833 -76.667 -62.5 -114s-49 -73.5 -76 -108.5s-54 -67.333 -81 -97s-52.833 -55.834 -77.5 -78.501s-46.334 -40.334 -65.001 -53.001c62.667 18 125 33.333 187 46s125.667 19 191 19h33c14.667 0 30.334 -1 47.001 -3
s33.334 -5.16699 50.001 -9.5s31.334 -10.666 44.001 -18.999s22.334 -19.166 29.001 -32.499s8.33398 -30 5.00098 -50c0 -5.33301 -3.16699 -10.833 -9.5 -16.5s-13.833 -11.334 -22.5 -17.001s-17.5 -10.834 -26.5 -15.501s-15.833 -8.33398 -20.5 -11.001
c-64.667 10 -127.167 10.5 -187.5 1.5s-120 -21 -179 -36l-177 -43.5c-59 -14 -119.5 -21 -181.5 -21c-15.333 0 -30.5 1.33301 -45.5 4s-28.833 7.5 -41.5 14.5s-22.834 16.167 -30.501 27.5s-11.5 25.666 -11.5 42.999z" />
    <glyph glyph-name="three" unicode="3" horiz-adv-x="940" 
d="M372 687c6 2 16.3291 6.49512 30.9961 13.4951s31.334 15.833 50.001 26.5s37.834 22.334 57.501 35.001s37.334 25.667 53.001 39s28 26.333 37 39s12.167 24 9.5 34c-4 14 -11.833 24.333 -23.5 31s-25 11 -40 13s-30.5 2.5 -46.5 1.5s-30.333 -2.16699 -43 -3.5
c-17.333 -2 -38 -7.66699 -62 -17s-48.167 -20 -72.5 -32s-47.5 -24.5 -69.5 -37.5s-39 -23.833 -51 -32.5c-14 -10 -28.833 -16.5 -44.5 -19.5s-30 -1.66699 -43 4s-23.667 15.5 -32 29.5s-12.5 33 -12.5 57s6.66699 45.667 20 65s30.666 36.666 51.999 51.999
s45.5 28.5 72.5 39.5s54 20.167 81 27.5s52.5 12.833 76.5 16.5s44.333 5.5 61 5.5c20 0 43 -0.5 69 -1.5s52.833 -3.66699 80.5 -8s54.667 -10.833 81 -19.5s50 -20.5 71 -35.5s37.833 -33.667 50.5 -56s19 -49.5 19 -81.5c0 -36 -7.66699 -64.833 -23 -86.5
s-34.333 -40.334 -57 -56.001s-46.834 -30 -72.501 -43s-48.834 -28.833 -69.501 -47.5c14 -1.33301 31 -4.33301 51 -9s40.667 -10.834 62 -18.501s42.5 -16.834 63.5 -27.501s39.833 -22.667 56.5 -36s30.167 -27.833 40.5 -43.5s15.5 -32.5 15.5 -50.5
c0 -50 -11.167 -94.667 -33.5 -134s-51.5 -74.166 -87.5 -104.499s-77 -56.166 -123 -77.499s-92.833 -38.833 -140.5 -52.5s-94.167 -23.667 -139.5 -30s-85 -9.5 -119 -9.5h-119c-11.333 0 -21 3.33301 -29 10s-14.833 14.834 -20.5 24.501s-9.83398 20 -12.501 31
s-4 20.833 -4 29.5c0 14.667 1 27.334 3 38.001s5.5 19.834 10.5 27.501s12 13.667 21 18s20.167 8.16602 33.5 11.499c38 -11.333 78.333 -18 121 -20s86 1.66699 130 11c14 2.66699 32.333 8 55 16s46.5 17.833 71.5 29.5s49.667 24.334 74 38.001s45.333 27.667 63 42
s30.5 28.5 38.5 42.5s8 26.667 0 38c-19.333 28 -44.666 48 -75.999 60s-66.333 17.667 -105 17s-79.5 -6.5 -122.5 -17.5s-85.833 -25.5 -128.5 -43.5l-29 23.5c-8.66699 7 -16.167 14.333 -22.5 22s-11.166 16.334 -14.499 26.001s-5 21.834 -5 36.501
c0 20.667 8.33301 38.334 25 53.001s36.334 27 59.001 37s45.834 18 69.501 24s42.834 11.333 57.501 16z" />
    <glyph glyph-name="four" unicode="4" horiz-adv-x="894" 
d="M455 114c-35.333 0 -68.0029 -1.99414 -98.0029 -5.99414s-59 -8.83301 -87 -14.5s-55.5 -11.834 -82.5 -18.501s-55.167 -12.334 -84.5 -17.001c-17.333 -2.66699 -33.333 -2.83398 -48 -0.500977s-27.5 8.33301 -38.5 18s-19.667 23.834 -26 42.501
s-9.83301 43 -10.5 73c37.333 14 72.833 37.667 106.5 71s65.834 72.666 96.501 117.999s60.334 94.833 89.001 148.5l85 161l84 155.5c28 50 56.333 94.5 85 133.5s58.334 70.167 89.001 93.5s63 35.333 97 36c13.333 0 27 -0.333008 41 -1s26.5 -3.66699 37.5 -9
s19.5 -14 25.5 -26s7.66699 -29.333 5 -52c-1.33301 -2 -3.33301 -5.66699 -6 -11s-5.16699 -11.333 -7.5 -18s-4.33301 -13.334 -6 -20.001s-1.83398 -12.334 -0.500977 -17.001c-8 -141.333 -10 -281.833 -6 -421.5s9.66699 -279.834 17 -420.501
c0 -5.33301 -4.16699 -13 -12.5 -23s-18 -20 -29 -30s-22.167 -18.667 -33.5 -26s-19.666 -11 -24.999 -11c-11.333 0 -21.166 2.16699 -29.499 6.5s-15.833 9.83301 -22.5 16.5s-12.667 13.834 -18 21.501s-10.333 14.5 -15 20.5c-2 2.66699 -9.5 5.66699 -22.5 9
s-28.333 6.16602 -46 8.49902s-35.834 4.5 -54.501 6.5s-35 3 -49 3zM326.997 295.006c19.333 -5.33301 41.834 -9.66699 67.501 -13s52.5 -6 80.5 -8s55.667 -3.16699 83 -3.5s52 -0.5 74 -0.5c2 36.667 4.16699 79.334 6.5 128.001s4.16602 98.167 5.49902 148.5
s1.5 99.166 0.5 146.499s-3.83301 88.333 -8.5 123c-16 -15.333 -32.833 -35.5 -50.5 -60.5s-35.5 -52.667 -53.5 -83l-55 -97l-54 -101.5l-50.5 -96.5c-16.333 -31 -31.5 -58.5 -45.5 -82.5z" />
    <glyph glyph-name="five" unicode="5" horiz-adv-x="1002" 
d="M58 266c2 8 4.50684 15.8408 7.50684 23.5078s7.16699 14.167 12.5 19.5s11.833 9 19.5 11s17.167 2 28.5 0c19.333 -4 36 -11.667 50 -23s27.833 -23.5 41.5 -36.5s28.334 -25.333 44.001 -37s34.5 -19.834 56.5 -24.501c20 -4 42.833 -5.33301 68.5 -4
s52 5.33301 79 12s53.667 15.5 80 26.5s50.333 24.167 72 39.5s40.167 32.5 55.5 51.5s25.333 39.5 30 61.5c3.33301 15.333 3.16602 29.166 -0.500977 41.499s-9.33398 23.166 -17.001 32.499s-16.334 17 -26.001 23s-18.834 10.333 -27.501 13
c-22 6 -47.5 7.66699 -76.5 5s-58.833 -7.83398 -89.5 -15.501s-60.834 -16.834 -90.501 -27.501s-56.334 -20.834 -80.001 -30.501l-58.5 -24.5c-15.333 -6.66699 -24 -9.66699 -26 -9l-33 7c-16.667 3.33301 -31.834 9.16602 -45.501 17.499s-25 18.5 -34 30.5
s-15.167 25.5 -18.5 40.5s-3.33301 30.833 0 47.5c16.667 40 30.167 78.167 40.5 114.5s18.5 71.5 24.5 105.5s10.667 67.333 14 100l10 98c1.33301 15.333 9.5 26.5 24.5 33.5s35.167 11.667 60.5 14s55 3.5 89 3.5s70.667 1 110 3c44.667 2 88.667 6.33301 132 13
l126 19.5c40.667 6.33301 79.334 11.5 116.001 15.5s70.667 4.33301 102 1c16 -1.33301 33.667 -4.66602 53 -9.99902s36.5 -12.5 51.5 -21.5s26.167 -20.167 33.5 -33.5s7.33301 -28.333 0 -45c-8 -19.333 -19.667 -32.833 -35 -40.5s-32.666 -12.834 -51.999 -15.501
s-39.833 -4.16699 -61.5 -4.5s-42.834 -2.16602 -63.501 -5.49902c-23.333 -4 -51.833 -7.33301 -85.5 -10s-69 -5.16699 -106 -7.5s-73.833 -5 -110.5 -8s-70.167 -6.5 -100.5 -10.5s-55.333 -9 -75 -15s-30.834 -13 -33.501 -21
c-2.66699 -7.33301 -6.5 -19.666 -11.5 -36.999s-9.83301 -36 -14.5 -56s-8.83398 -39.833 -12.501 -59.5s-5.16699 -35.834 -4.5 -48.501c24 0.666992 50.167 4.33398 78.5 11.001l87 21.5c29.667 7.66699 59 14.334 88 20.001s56.167 7.5 81.5 5.5
c31.333 -2.66699 62.5 -9.83398 93.5 -21.501s59 -26.667 84 -45s45.5 -39.333 61.5 -63s24.667 -48.5 26 -74.5c2.66699 -59.333 -5.66602 -112.333 -24.999 -159s-45.5 -87.167 -78.5 -121.5s-71 -63 -114 -86s-87.333 -40.667 -133 -53s-90.667 -19.333 -135 -21
s-84.166 1.16602 -119.499 8.49902c-14.667 3.33301 -31.334 8.33301 -50.001 15s-37.667 15 -57 25s-37.833 21.667 -55.5 35s-32.834 28.166 -45.501 44.499s-22 34.166 -28 53.499s-6.66699 40 -2 62z" />
    <glyph glyph-name="six" unicode="6" horiz-adv-x="755" 
d="M50 274c0 23.333 2.49609 53.8369 7.49609 91.5039s12.167 79.167 21.5 124.5s21 93.333 35 144s30.333 100.667 49 150s39.334 96.333 62.001 141s47.334 84 74.001 118s55.334 61 86.001 81s63.334 30 98.001 30c24.667 0 44 -5.33301 58 -16s21 -28 21 -52
c0 -16 -6.16699 -32.667 -18.5 -50s-27.5 -35.833 -45.5 -55.5l-57.5 -63c-20.333 -22.333 -38.5 -45.833 -54.5 -70.5c-19.333 -29.333 -35.833 -59.666 -49.5 -90.999s-25.667 -62.333 -36 -93s-19 -60.334 -26 -89.001s-13.167 -55 -18.5 -79
c25.333 12 50.833 23.167 76.5 33.5s51.167 18.666 76.5 24.999s50.5 10.166 75.5 11.499s49.833 -1 74.5 -7c26 -6 49.5 -16.5 70.5 -31.5s38.833 -32.5 53.5 -52.5s26 -41.5 34 -64.5s12 -45.5 12 -67.5c0 -48.667 -12.667 -93.834 -38 -135.501s-58 -77.834 -98 -108.501
s-84.5 -54.667 -133.5 -72s-96.833 -26 -143.5 -26c-39.333 -0 -75.333 7.33301 -108 22s-60.667 34.5 -84 59.5s-41.5 54.167 -54.5 87.5s-19.5 68.333 -19.5 105zM246.996 215.004c-2.66699 -10 -1.32812 -18.665 4.00488 -25.998s12.166 -13.5 20.499 -18.5
s17.666 -8.66699 27.999 -11s19.166 -3.5 26.499 -3.5c22 0 45.667 4.66699 71 14s48.666 22 69.999 38s39.166 34.667 53.499 56s21.5 44.333 21.5 69c0 14.667 -3 26.167 -9 34.5s-14 14.666 -24 18.999s-21.167 7.16602 -33.5 8.49902s-24.833 2 -37.5 2
c-22 0 -43.5 -5.33301 -64.5 -16s-40 -24.667 -57 -42s-31.667 -36.833 -44 -58.5s-20.833 -43.5 -25.5 -65.5z" />
    <glyph glyph-name="seven" unicode="7" horiz-adv-x="976" 
d="M698 348c-2 -0.666992 -4.33984 -1.33008 -7.00684 -1.99707l-13 -29l-34.5 -78l-25.5 -60.5l-22 -52l-22.5 -52.5c-7.66699 -18 -16.834 -38.333 -27.501 -61c0 -2.66699 -4.33301 -4.83398 -13 -6.50098s-18.667 -3 -30 -4s-23.333 -1.5 -36 -1.5s-23 0.666992 -31 2
c-2.66699 0 -6.5 3.5 -11.5 10.5s-10 15.333 -15 25s-9.16699 19.167 -12.5 28.5s-4.33301 16.666 -3 21.999c5.33301 22.667 15.166 50.334 29.499 83.001s30.5 66.667 48.5 102c5.33301 10.667 11 21.334 17 32.001c-19.333 -2 -38.333 -3.66699 -57 -5
c-27.333 -2 -53.5 -2.33301 -78.5 -1s-46.833 5.33301 -65.5 12s-33.167 16.167 -43.5 28.5s-14.166 28.833 -11.499 49.5c0 2.66699 0.666992 8.33398 2 17.001s3.5 18 6.5 28s7.16699 19 12.5 27s12 13 20 15c40.667 0 85.834 1.33301 135.501 4l144.5 8
c14 1.33301 27.333 2.33301 40 3c2.66699 6 5.33398 13 8.00098 21c6.66699 20.667 13 44.334 19 71.001s11.833 55 17.5 85s10.5 59 14.5 87s7.16699 53.5 9.5 76.5s3.5 41.167 3.5 54.5c-14 -8 -34 -17.833 -60 -29.5s-54.5 -22.5 -85.5 -32.5s-62.333 -17.5 -94 -22.5
s-59.5 -4.83301 -83.5 0.5c-4 -19.333 -5.16699 -42.333 -3.5 -69s0.833984 -57 -2.49902 -91c-0.666992 -5.33301 -4.83398 -10.333 -12.501 -15s-16.167 -8.83398 -25.5 -12.501s-18.5 -6.5 -27.5 -8.5s-14.833 -2.66699 -17.5 -2c-12 1.33301 -22.5 7.16602 -31.5 17.499
s-16.667 23.5 -23 39.5s-11.833 34 -16.5 54s-8.66699 40.667 -12 62c-2.66699 16.667 -8.66699 32.5 -18 47.5s-19.166 29 -29.499 42l-27.5 34.5c-8 10 -11.667 18.333 -11 25c2 18.667 6.83301 33.5 14.5 44.5s17.334 19.167 29.001 24.5s24.834 8.5 39.501 9.5
s30 0.5 46 -1.5c10.667 -1.33301 21.834 -4.5 33.501 -9.5s23.167 -10.5 34.5 -16.5s22.5 -11.5 33.5 -16.5s21.833 -8.16699 32.5 -9.5c34.667 -4 66.334 0 95.001 12s56.334 25.667 83.001 41s53.667 29 81 41s57.333 16.333 90 13c36 -4 64.167 -12.167 84.5 -24.5
s35 -28 44 -47s13.667 -41.333 14 -67s-1.16699 -54.167 -4.5 -85.5c-2.66699 -24 -7.83398 -55 -15.501 -93s-16.667 -77 -27 -117s-21.5 -78.667 -33.5 -116c0 -0.666992 -0.333008 -1.33398 -1 -2.00098c11.333 1.33301 26.166 0.166016 44.499 -3.50098
s36 -9.5 53 -17.5s31.333 -18 43 -30s16.5 -25.667 14.5 -41c-1.33301 -6.66699 -4.33301 -11.834 -9 -15.501s-10.167 -7 -16.5 -10s-13 -6 -20 -9s-13.5 -7.5 -19.5 -13.5s-15.667 -10 -29 -12s-27.666 -3.16699 -42.999 -3.5s-30.166 -0.5 -44.499 -0.5
s-25.5 -1 -33.5 -3z" />
    <glyph glyph-name="eight" unicode="8" horiz-adv-x="913" 
d="M567 596c-13.333 -9.33301 -25.667 -18.668 -37 -28.001l-2 -1c6 -3.33301 12 -7 18 -11c28 -18 55.667 -37.667 83 -59s51.166 -44 71.499 -68s35.833 -48.833 46.5 -74.5s13.334 -51.5 8.00098 -77.5c-10 -48.667 -29.167 -89.667 -57.5 -123s-62 -59.333 -101 -78
s-81.167 -30.167 -126.5 -34.5s-89.666 -2.16602 -132.999 6.50098c-25.333 4.66699 -52 12.834 -80 24.501s-53.167 27.167 -75.5 46.5s-40 42.666 -53 69.999s-17.167 59.333 -12.5 96c4 33.333 14.333 67 31 101s36.334 66 59.001 96c18 24 37 46 57 66l-22 14
c-20.667 12.667 -40.834 26.334 -60.501 41.001s-37 30 -52 46s-26.5 32.333 -34.5 49s-10.333 33.667 -7 51c6 32.667 18.833 64.5 38.5 95.5s44.167 60.167 73.5 87.5s62 52 98 74s73 40 111 54s75.667 23.667 113 29s72.333 4.66602 105 -2.00098
c38 -7.33301 73.333 -18.833 106 -34.5s60 -35.5 82 -59.5s37.5 -52.167 46.5 -84.5s9.5 -68.833 1.5 -109.5c-2 -10 -6.83301 -20.667 -14.5 -32s-17.834 -21.333 -30.501 -30zM511.999 727.998c53.333 32 106.336 59.668 159.003 83.001c16 20 22.333 37.333 19 52
s-11.833 27.167 -25.5 37.5s-29.834 18.666 -48.501 24.999s-35 10.833 -49 13.5c-22.667 4.66699 -48.834 3 -78.501 -5s-58 -20 -85 -36s-50.667 -35 -71 -57s-32.833 -44.333 -37.5 -67c-4.66699 -20.667 0.666016 -43.667 15.999 -69c13.333 -21.333 37 -41 71 -59
c42.667 28.667 86 56 130 82zM381.002 431.999c-12.667 -17.333 -24.6709 -35.002 -36.0039 -53.002s-21 -34.5 -29 -49.5s-12.333 -25.167 -13 -30.5c-1.33301 -7.33301 -1.83301 -16.333 -1.5 -27s2.66602 -21.334 6.99902 -32.001s11 -20.5 20 -29.5
s21.5 -15.5 37.5 -19.5c20.667 -5.33301 41.834 -7.66602 63.501 -6.99902s42 4.83398 61 12.501s35.5 18.834 49.5 33.501s23.333 33.667 28 57c2.66699 14 0.333984 28.5 -6.99902 43.5s-17.666 29.5 -30.999 43.5s-28.666 27.667 -45.999 41
s-34.666 25.666 -51.999 36.999l-22 14c-9.33301 -9.33301 -19 -20.666 -29 -33.999z" />
    <glyph glyph-name="nine" unicode="9" horiz-adv-x="833" 
d="M378 94c-3.33301 14 2.66797 32.666 18.001 55.999l54.5 84.5c21 33 41.167 71.167 60.5 114.5s31 92.333 35 147c-12 -2.66699 -29.833 -8 -53.5 -16s-49.5 -15.833 -77.5 -23.5s-56 -14.167 -84 -19.5s-52 -6.66602 -72 -3.99902c-20 2 -41.833 7.16699 -65.5 15.5
s-45.334 19.5 -65.001 33.5s-35.667 30.833 -48 50.5s-16.833 42.5 -13.5 68.5c3.33301 28.667 10.166 61.667 20.499 99s24 75.5 41 114.5s37.167 77 60.5 114s49.666 69.5 78.999 97.5s61.5 49.5 96.5 64.5s72.5 20.167 112.5 15.5c20.667 -2.66699 44.5 -10.5 71.5 -23.5
s53.167 -30 78.5 -51s47.666 -45.5 66.999 -73.5s32 -58.333 38 -91c6.66699 0 14 -2 22 -6s15.167 -10 21.5 -18s11.333 -17.833 15 -29.5s4.5 -24.834 2.5 -39.501c-1.33301 -12.667 -5.16602 -34.5 -11.499 -65.5s-14.5 -67.333 -24.5 -109s-21.667 -86.667 -35 -135
s-27.666 -96.5 -42.999 -144.5s-31.666 -93.667 -48.999 -137s-34.833 -80.833 -52.5 -112.5s-35.5 -55.667 -53.5 -72s-35.333 -21.166 -52 -14.499c-18.667 7.33301 -33.5 14.5 -44.5 21.5s-19.667 14.667 -26 23s-11 17.833 -14 28.5s-6.16699 23 -9.5 37z
M245.001 667.999c-0.666992 -6 -0.668945 -12.499 -0.00195312 -19.499s2.33398 -13.833 5.00098 -20.5s6 -12.167 10 -16.5s9 -6.83301 15 -7.5c20 -2.66699 46.167 -1.5 78.5 3.5s64.333 13.167 96 24.5s59.667 25.833 84 43.5s38.5 38.167 42.5 61.5
c2.66699 17.333 2 37.5 -2 60.5s-10.833 45 -20.5 66s-21.667 39.167 -36 54.5s-30.166 24 -47.499 26c-28.667 3.33301 -55.834 -4.33398 -81.501 -23.001s-48.667 -42.5 -69 -71.5s-37.166 -60 -50.499 -93s-21.333 -62.5 -24 -88.5z" />
    <glyph glyph-name="colon" unicode=":" horiz-adv-x="437" 
d="M95 193c0 48.667 13.165 85.1641 39.498 109.497s68.833 36.5 127.5 36.5c20.667 0 37.667 -3.66699 51 -11s23.666 -17.166 30.999 -29.499s12.333 -26.333 15 -42s4 -31.5 4 -47.5c0 -20 -3.16699 -38.667 -9.5 -56s-16.333 -32.166 -30 -44.499
s-31.167 -21.166 -52.5 -26.499s-46.666 -6 -75.999 -2c-25.333 4 -44.666 9.16699 -57.999 15.5s-23.166 14 -29.499 23s-10 19.667 -11 32s-1.5 26.5 -1.5 42.5zM60.998 786.997c0 16 6.33008 30.834 18.9971 44.501s28 25.667 46 36s36.5 18.333 55.5 24
s34.833 8.5 47.5 8.5c16.667 0 33 -2.16699 49 -6.5s30.333 -11 43 -20s22.834 -20.667 30.501 -35s11.5 -31.5 11.5 -51.5c0 -97.333 -50.333 -146 -151 -146c-21.333 0 -41.166 4.5 -59.499 13.5s-34.166 20.667 -47.499 35s-24 30.166 -32 47.499s-12 34 -12 50z" />
    <glyph glyph-name="semicolon" unicode=";" horiz-adv-x="504" 
d="M119 748c0 24 5.33301 44.833 16 62.5s24.5 32.5 41.5 44.5s35.833 21 56.5 27s41 9 61 9c40 0 68.5 -11.167 85.5 -33.5s25.5 -53.5 25.5 -93.5s-8.5 -71.167 -25.5 -93.5s-45.5 -33.5 -85.5 -33.5c-20 0 -40.333 1.33301 -61 4s-39.5 8 -56.5 16
s-30.833 19.167 -41.5 33.5s-16 33.5 -16 57.5zM-9 -158c0 16.667 4.49902 40.002 13.499 70.002s21.167 62.833 36.5 98.5s33 72.5 53 110.5s41.167 73 63.5 105s45 59.5 68 82.5s45.167 37.5 66.5 43.5c14.667 4 29.834 2 45.501 -6s29 -19.833 40 -35.5
s18.333 -33.334 22 -53.001s1.16699 -38.834 -7.5 -57.501c-7.33301 -16 -15.333 -30.833 -24 -44.5l-27.5 -43l-30.5 -49.5c-10.667 -18 -22 -39 -34 -63l-45.5 -90c-15 -29.333 -30 -55.5 -45 -78.5s-30 -41.5 -45 -55.5s-30.5 -21 -46.5 -21
c-12.667 0 -25.167 1.66699 -37.5 5s-23.333 8.5 -33 15.5s-17.5 16 -23.5 27s-9 24.167 -9 39.5z" />
    <glyph glyph-name="less" unicode="&#x3c;" horiz-adv-x="798" 
d="M28 472c-0.666992 4 2.6709 15.6709 10.0039 35.0039s23 45.666 47 78.999c36.667 50.667 73.334 97.5 110.001 140.5s73.667 83.667 111 122s75 75.166 113 110.499l117 106c11.333 4.66699 22.5 9 33.5 13s22.167 6.5 33.5 7.5s22.5 0 33.5 -3
s22.167 -8.83301 33.5 -17.5c8.66699 -15.333 13.167 -30.666 13.5 -45.999s-2.5 -30.833 -8.5 -46.5s-14.667 -31.167 -26 -46.5s-24 -30.666 -38 -45.999c-22 -24 -47.5 -50.167 -76.5 -78.5l-88.5 -86.5l-87 -85.5c-28 -27.667 -51.5 -52.834 -70.5 -75.501
s-32 -41.667 -39 -57s-4.83301 -25.333 6.5 -30l96 -64.5c33.333 -21.667 69 -42.834 107 -63.501s79.5 -40.834 124.5 -60.501s94.5 -37.834 148.5 -54.501c20 -6 33.5 -14.333 40.5 -25s9 -22.667 6 -36s-10.167 -27.333 -21.5 -42s-26 -29 -44 -43
c-12.667 -3.33301 -31.834 -3 -57.501 1s-55.334 11 -89.001 21s-69.834 22.333 -108.501 37s-77.5 31.5 -116.5 50.5s-76.667 39.5 -113 61.5s-68.833 45.167 -97.5 69.5s-52.334 49.5 -71.001 75.5s-29.334 52 -32.001 78z" />
    <glyph glyph-name="equal" unicode="=" horiz-adv-x="1026" 
d="M804 496c16.667 0 31.4971 -1.99805 44.4971 -5.99805s23.5 -10.5 31.5 -19.5s13.5 -21 16.5 -36s2.5 -33.5 -1.5 -55.5c-2 -10.667 -13.167 -20.834 -33.5 -30.501s-46.833 -18.834 -79.5 -27.501s-69.834 -16.667 -111.501 -24s-84.334 -13.833 -128.001 -19.5
s-86.667 -10.5 -129 -14.5s-80.666 -7 -114.999 -9s-63.166 -3.16699 -86.499 -3.5s-37.666 0.5 -42.999 2.5c-16 6 -27.167 17.833 -33.5 35.5s-8.66602 36.167 -6.99902 55.5s6.83398 37.166 15.501 53.499s20.667 26.5 36 30.5c34.667 8.66699 73.5 16.334 116.5 23.001
s86.833 12.5 131.5 17.5s88.667 9.33301 132 13s82.333 6.5 117 8.5s63.5 3.5 86.5 4.5s36.5 1.5 40.5 1.5zM840.997 778.002c12 -19.333 20.5029 -34.167 25.5029 -44.5s7.5 -19.333 7.5 -27s-2.16699 -15.334 -6.5 -23.001s-9.83301 -18.167 -16.5 -31.5
c-4.66699 -9.33301 -17.334 -18 -38.001 -26s-46.334 -15.167 -77.001 -21.5s-64.834 -11.833 -102.501 -16.5s-76.334 -8.5 -116.001 -11.5s-78.667 -5.33301 -117 -7s-73.5 -2.33398 -105.5 -2.00098s-59.167 1.5 -81.5 3.5s-37.166 5 -44.499 9
c-6 3.33301 -11.167 10.5 -15.5 21.5s-7 23.5 -8 37.5s0 27.833 3 41.5s8.5 25.167 16.5 34.5c4.66699 4.66699 17.667 9.83398 39 15.501s47.666 11.334 78.999 17.001s66.5 11 105.5 16s78.667 9.5 119 13.5s79.833 7.33301 118.5 10s73.334 4.16699 104.001 4.5
s56 -0.5 76 -2.5s31.667 -5.66699 35 -11z" />
    <glyph glyph-name="greater" unicode="&#x3e;" horiz-adv-x="676" 
d="M52 204c16.667 8.66699 36.6719 19.832 60.0049 33.499s47.5 28.667 72.5 45l74.5 49.5c24.667 16.667 46.667 32.334 66 47.001c5.33301 4 12.666 10.167 21.999 18.5s19.166 17.666 29.499 27.999s20.5 21.333 30.5 33s18.167 23 24.5 34s10.333 21 12 30
s-0.5 16.5 -6.5 22.5l-106 114.5c-31.333 33.667 -61.5 64.5 -90.5 92.5s-57.833 53.5 -86.5 76.5s-59.334 45.167 -92.001 66.5c-21.333 30.667 -30 56.834 -26 78.501s14.833 38.667 32.5 51s39.167 20 64.5 23s48.666 0.833008 69.999 -6.5
c19.333 -11.333 43 -29.166 71 -53.499s57.667 -52.333 89 -84s63 -65.5 95 -101.5s61.167 -71.333 87.5 -106s48.5 -67 66.5 -97s29.333 -54.667 34 -74c2.66699 -12.667 -1.83301 -30.5 -13.5 -53.5s-28.334 -48.667 -50.001 -77s-47.334 -58 -77.001 -89
s-61.167 -61.333 -94.5 -91s-67 -57.334 -101 -83.001s-66.5 -47 -97.5 -64s-59.167 -28.5 -84.5 -34.5s-45.666 -4 -60.999 6c-13.333 8 -24.5 17.667 -33.5 29s-14.667 24 -17 38s-1 29.167 4 45.5s15.5 33.833 31.5 52.5z" />
    <glyph glyph-name="question" unicode="?" horiz-adv-x="900" 
d="M658 793c-24 -46 -52.334 -82.499 -85.001 -109.499s-65.5 -47.5 -98.5 -61.5s-64.5 -23 -94.5 -27s-54 -6.33301 -72 -7c-30.667 -1.33301 -61.667 0.333984 -93 5.00098s-60 13.667 -86 27s-47.833 31.833 -65.5 55.5s-28.5 54.5 -32.5 92.5s-1.33301 77.333 8 118
s27.5 79.334 54.5 116.001s64.667 69.667 113 99s109.5 51.333 183.5 66c49.333 10 98 15 146 15s92.5 -5.16699 133.5 -15.5s77.333 -26 109 -47s55.834 -47.667 72.501 -80s24.5 -70.666 23.5 -114.999s-13.167 -94.833 -36.5 -151.5
c-14 -33.333 -33.167 -64.833 -57.5 -94.5s-50.333 -58.167 -78 -85.5l-83 -79.5c-27.667 -25.667 -51.834 -51 -72.501 -76s-36 -49.833 -46 -74.5s-11.333 -50 -4 -76c3.33301 -12.667 5.5 -24.334 6.5 -35.001s1.5 -20.334 1.5 -29.001
c-0.666992 -10 -1.66699 -19.333 -3 -28c-8.66699 -12.667 -19.334 -21.667 -32.001 -27c-11.333 -4.66699 -26 -5.83398 -44 -3.50098s-39.667 12.5 -65 30.5s-40.5 39.333 -45.5 64s-4.33301 49.5 2 74.5s15.5 48.5 27.5 70.5s22.333 39.667 31 53
c10.667 16.667 24.334 34.667 41.001 54s35.167 38.833 55.5 58.5s42.166 39.5 65.499 59.5s47 39 71 57c12 8.66699 25 21.834 39 39.501s26.833 37.667 38.5 60s21.334 45.666 29.001 69.999s11.334 47.666 11.001 69.999s-5.83301 42.833 -16.5 61.5
s-28 33.334 -52 44.001c-31.333 13.333 -65.333 20.666 -102 21.999s-73.167 -2.16699 -109.5 -10.5s-71 -21 -104 -38s-61.5 -36.833 -85.5 -59.5s-42 -47.834 -54 -75.501s-15 -56.5 -9 -86.5c2.66699 -14 13.5 -24.5 32.5 -31.5s41.833 -10.333 68.5 -10
s54.667 4.33301 84 12s55.666 19.167 78.999 34.5s41.5 34.833 54.5 58.5s16.167 51.167 9.5 82.5c-2 9.33301 2.66699 17.833 14 25.5s25.333 12.834 42 15.501s33.834 2 51.501 -2s32 -12.667 43 -26s16.333 -32 16 -56s-10.5 -55 -30.5 -93zM332.999 -28.999
c9.33301 -15.333 20.167 -28.499 32.5 -39.499s25.5 -18.833 39.5 -23.5s28.5 -6.16699 43.5 -4.5s30.5 7.16699 46.5 16.5s27.667 21.666 35 36.999s10.833 31.166 10.5 47.499s-4.5 32.333 -12.5 48s-19.667 28.5 -35 38.5c-28 18 -54.333 25.833 -79 23.5
s-45.167 -10.666 -61.5 -24.999s-26.833 -32.5 -31.5 -54.5s-0.666992 -43.333 12 -64z" />
    <glyph glyph-name="at" unicode="@" horiz-adv-x="1281" 
d="M56 347c6 73.333 17.167 143.841 33.5 211.508s38.333 130.667 66 189s61.5 110.5 101.5 156.5s87 83.667 141 113s115.5 49.333 184.5 60s146.167 9.66699 231.5 -3c51.333 -7.33301 96.666 -21.5 135.999 -42.5s73.5 -46.167 102.5 -75.5s53 -61.833 72 -97.5
s33.833 -72.334 44.5 -110.001s17.667 -75.334 21 -113.001s3.66602 -72.834 0.999023 -105.501c-2.66699 -34.667 -11.5 -71 -26.5 -109s-35.167 -72.333 -60.5 -103s-55.166 -55.334 -89.499 -74.001s-72.166 -26.334 -113.499 -23.001
c-36.667 2.66699 -64.334 11.667 -83.001 27s-32.334 33.166 -41.001 53.499s-14.667 41.5 -18 63.5s-8.33301 41.333 -15 58c-8 -20 -21 -41.5 -39 -64.5s-41.167 -43.167 -69.5 -60.5s-62.5 -29.666 -102.5 -36.999s-86 -5.66602 -138 5.00098
c-12 2.66699 -23 7.5 -33 14.5s-18.667 14.833 -26 23.5s-13 17.5 -17 26.5s-6 17.167 -6 24.5c0.666992 34.667 4.83398 70.667 12.501 108s19 73.666 34 108.999s33.5 68.333 55.5 99s47.667 57.167 77 79.5s62.5 39.166 99.5 50.499s77.833 15.333 122.5 12
c17.333 -1.33301 37.666 -4.83301 60.999 -10.5s45.333 -13.5 66 -23.5s37.834 -22.333 51.501 -37s19.834 -31.334 18.501 -50.001c-3.33301 -32 -9.33301 -62 -18 -90s-14.334 -56 -17.001 -84c-0.666992 -7.33301 -1.66699 -16.333 -3 -27s-1.5 -21 -0.5 -31s4 -19 9 -27
s13.5 -12.333 25.5 -13c19.333 -2 36.666 0.333008 51.999 7s28.5 15.5 39.5 26.5s19.5 23.667 25.5 38s9.66699 28.5 11 42.5c3.33301 43.333 -0.166992 88.5 -10.5 135.5s-27.666 90.5 -51.999 130.5s-55.5 73.667 -93.5 101s-83 43 -135 47
c-78 6.66699 -146.833 -3.16602 -206.5 -29.499s-110.5 -63 -152.5 -110s-74.833 -101.5 -98.5 -163.5s-38.167 -125.667 -43.5 -191c-5.33301 -58.667 2 -111.5 22 -158.5s48.5 -87 85.5 -120s80.833 -58.5 131.5 -76.5s104.334 -27.333 161.001 -28
c60 -0.666992 117.167 3.66602 171.5 12.999s105 20.666 152 33.999s89.5 27.333 127.5 42s70.667 26.834 98 36.501s48.833 15.334 64.5 17.001s24.167 -3.5 25.5 -15.5c-3.33301 -42 -18.166 -78.333 -44.499 -109s-59.5 -56.5 -99.5 -77.5s-84.5 -37.833 -133.5 -50.5
s-97.833 -22 -146.5 -28s-94.834 -9.5 -138.501 -10.5s-80.167 -0.166992 -109.5 2.5c-32.667 2.66699 -69.5 9.16699 -110.5 19.5s-82.5 24 -124.5 41s-83 37.667 -123 62s-75 51.666 -105 81.999s-53.5 63.666 -70.5 99.999s-23.833 75.5 -20.5 117.5zM678 670.008
c-15.333 6 -32.3311 1.83301 -50.998 -12.5s-36.334 -32.833 -53.001 -55.5s-30.667 -46.167 -42 -70.5s-17.333 -43.5 -18 -57.5c-0.666992 -6 0.166016 -10.167 2.49902 -12.5s5.16602 -3.5 8.49902 -3.5s7 0.833008 11 2.5s7.33301 3.5 10 5.5
c16.667 10.667 32.834 23.5 48.501 38.5s29.667 31.333 42 49s22.333 36.5 30 56.5s11.5 40 11.5 60z" />
    <glyph glyph-name="A" unicode="A" horiz-adv-x="1098" 
d="M123 223c-12.667 8.66699 -24.498 18.0029 -35.498 28.0029s-20.5 19 -28.5 27c-6 6 -9.5 13.333 -10.5 22s-0.333008 17.834 2 27.501s5.83301 19.5 10.5 29.5s9.66699 19.333 15 28c4 5.33301 15.667 11.166 35 17.499s43.5 12.5 72.5 18.5s60.833 11.667 95.5 17
c1.33301 0 2.33301 0.333008 3 1l42 70l67 113.5l67 113.5l71 119.5l79 133l91 153.5c13.333 12 28.666 20.167 45.999 24.5s31.666 7.5 42.999 9.5c22.667 4 42.5 -5.83301 59.5 -29.5s31.667 -55.334 44 -95.001s22.5 -84.834 30.5 -135.501s14.667 -100.5 20 -149.5
s9.33301 -94.667 12 -137s4.66699 -75.5 6 -99.5l3 -32c8 -1.33301 14 -5 18 -11c5.33301 -7.33301 7.33301 -16.666 6 -27.999s-5.66602 -24 -12.999 -38c-0.666992 -0.666992 -1 -1.66699 -1 -3c0.666992 -3.33301 1 -6.66602 1 -9.99902c4 -28 8.5 -57.833 13.5 -89.5
l14.5 -91.5c4.66699 -29.333 9.33398 -56.166 14.001 -80.499s8.66699 -43.166 12 -56.499c3.33301 -14.667 1.16602 -25.334 -6.50098 -32.001s-17.834 -11 -30.501 -13s-26.167 -2.66699 -40.5 -2s-25.833 1 -34.5 1c-30 0.666992 -54 9.83398 -72 27.501
s-32 40.334 -42 68.001s-17 58.5 -21 92.5c-3.33301 30 -5.33301 59.667 -6 89c-11.333 -1.33301 -23.333 -3 -36 -5l-52 -6c-16.667 -2 -31.334 -3.83301 -44.001 -5.5s-21 -2.83398 -25 -3.50098c-6 -0.666992 -20.167 -3.66699 -42.5 -9l-78.5 -19l-86 -22l-21 -48
c-12.667 -28 -26.167 -56.333 -40.5 -85s-29.166 -54.334 -44.499 -77.001s-31.5 -41.334 -48.5 -56.001s-34.167 -22.334 -51.5 -23.001c-12 -0.666992 -24.833 1.66602 -38.5 6.99902s-26.334 12.166 -38.001 20.499s-21.167 17.5 -28.5 27.5s-10.666 19.333 -9.99902 28
c1.33301 16 7.33301 37.5 18 64.5s23.667 56.5 39 88.5c2 3.33301 3.66699 6.33301 5 9c-10 4.66699 -19.667 10 -29 16zM570.002 479.003c34.667 4 71.998 6.99902 111.998 8.99902c30 2 59 3.66699 87 5v4c-1.33301 34 -3.16602 68.833 -5.49902 104.5
s-5 68.834 -8 99.501s-6.5 57.334 -10.5 80.001s-8.66699 38 -14 46c-2.66699 3.33301 -9.66699 -2.83398 -21 -18.501s-25.166 -37.167 -41.499 -64.5l-55 -95l-60.5 -109l-36 -68c19.333 2.66699 37 5 53 7z" />
    <glyph glyph-name="B" unicode="B" horiz-adv-x="1036" 
d="M62 559c-5.33301 15.333 -3.33398 27.6709 5.99902 37.0039s23.666 17.333 42.999 24c2 33.333 3.66699 66.5 5 99.5s2.33301 63.5 3 91.5c-17.333 9.33301 -25.666 24.5 -24.999 45.5s5.83398 43 15.501 66s21.334 44.5 35.001 64.5s24.5 34 32.5 42
c44.667 44 93.667 81 147 111s106.833 53.667 160.5 71s105.667 28.666 156 33.999s95.5 5 135.5 -1c12 -1.33301 27.5 -3.83301 46.5 -7.5s39.167 -8.66699 60.5 -15s42.166 -14.333 62.499 -24s38.166 -21.667 53.499 -36s26.666 -31.166 33.999 -50.499
s8.33301 -41.666 3 -66.999c-9.33301 -44.667 -26.166 -89.167 -50.499 -133.5s-54 -86 -89 -125s-74.667 -74.5 -119 -106.5s-90.833 -57.667 -139.5 -77c16.667 -2.66699 35.5 -9.5 56.5 -20.5s41.833 -25.333 62.5 -43s40.334 -37.834 59.001 -60.501
s34.5 -46.834 47.5 -72.501s22.333 -52 28 -79s5.5 -53.833 -0.5 -80.5c-10 -44 -29.333 -82.5 -58 -115.5s-61.5 -61.333 -98.5 -85s-75.333 -42.5 -115 -56.5s-75.167 -24 -106.5 -30c-52 -9.33301 -113.333 -13 -184 -11s-149 9 -235 21
c-19.333 3.33301 -31.833 12.666 -37.5 27.999s-7.5 30.666 -5.5 45.999c0.666992 6.66699 2 13 4 19s4.66699 12.333 8 19c1.33301 24 3.33301 53.333 6 88l8.5 106.5c3 36.333 6.33301 71.666 10 105.999s7.16699 63.5 10.5 87.5
c1.33301 6.66699 2.16602 13.5 2.49902 20.5s1.16602 14.167 2.49902 21.5c-9.33301 5.33301 -17.666 11.833 -24.999 19.5s-12.666 17.167 -15.999 28.5zM713.999 1092c-45.333 6.66699 -86.501 4.99805 -123.501 -5.00195s-70 -24.5 -99 -43.5s-54.167 -40.5 -75.5 -64.5
s-39.333 -46.667 -54 -68l-11 -65.5l-11.5 -68.5l-10.5 -65c-3.33301 -20.667 -6 -39 -8 -55l36.5 6c12.333 2 24.833 4.33301 37.5 7c23.333 4 49.333 11.667 78 23s57.667 25.166 87 41.499s58 34.5 86 54.5s53.167 41.167 75.5 63.5s41 45 56 68s24.167 45.833 27.5 68.5
c3.33301 22 3.83301 39.333 1.5 52s-7.16602 22.334 -14.499 29.001s-17.5 11.334 -30.5 14.001s-28.833 5.33398 -47.5 8.00098zM465.998 513.003c-19.333 2.66699 -43.666 2.00391 -72.999 -1.99609s-60.333 -8 -93 -12c-3.33301 -27.333 -6.33301 -57 -9 -89
s-4.83398 -64.667 -6.50098 -98s-2.66699 -66.333 -3 -99s0.5 -63.334 2.5 -92.001c8 -0.666992 16.833 -1.33398 26.5 -2.00098s21.167 -1 34.5 -1c13.333 -2 30.333 -2.16699 51 -0.5s42.5 5.16699 65.5 10.5s46 12.166 69 20.499s44.167 18.166 63.5 29.499
s35.5 24.333 48.5 39s20.833 30.667 23.5 48c10.667 74 -1.5 131.167 -36.5 171.5s-89.5 65.833 -163.5 76.5z" />
    <glyph glyph-name="C" unicode="C" horiz-adv-x="963" 
d="M17 377c-0.666992 42.667 1.50293 86.8359 6.50293 132.503s13.333 90.834 25 135.501s26.834 88.167 45.501 130.5s41.5 81.333 68.5 117s58.333 67.167 94 94.5s76.167 48.333 121.5 63c44 14.667 88.5 19 133.5 13s90.167 -26.333 135.5 -61
c3.33301 -2.66699 5.16602 -0.666992 5.49902 6s0.666016 15.5 0.999023 26.5s1.5 23 3.5 36s6.16699 25 12.5 36s15.666 19.667 27.999 26s29.166 8.5 50.499 6.5c11.333 -1.33301 22.5 -3 33.5 -5s20.5 -6.16699 28.5 -12.5s13.667 -15.333 17 -27
s3.66602 -27.5 0.999023 -47.5l-23 -274c0 -6 -3.66699 -10.5 -11 -13.5s-15.5 -5.16699 -24.5 -6.5s-18 -2.16602 -27 -2.49902s-14.833 -0.5 -17.5 -0.5c-20.667 0 -38.167 4 -52.5 12s-26.833 18 -37.5 30s-20.334 25.167 -29.001 39.5s-17.834 27.333 -27.501 39
s-21 21.334 -34 29.001s-29.167 11.167 -48.5 10.5c-38.667 -1.33301 -72.667 -12.333 -102 -33s-54.666 -46.834 -75.999 -78.501s-38.833 -67 -52.5 -106s-24.5 -77.667 -32.5 -116s-13.667 -74.333 -17 -108s-5 -60.834 -5 -81.501c0 -22.667 7 -44.334 21 -65.001
s32 -39.834 54 -57.501s46.833 -33.334 74.5 -47.001s55.167 -25 82.5 -34s53 -15.667 77 -20s43.667 -5.5 59 -3.5c24.667 2 46.667 7.33301 66 16s36.833 19 52.5 31s30.5 24.667 44.5 38s28.333 25.666 43 36.999s30.167 20.666 46.5 27.999s35.166 11 56.499 11
c14.667 0 25.834 -2 33.501 -6s13.334 -9.66699 17.001 -17s5.83398 -16 6.50098 -26s1 -20.667 1 -32c0 -26.667 -6.5 -51.167 -19.5 -73.5s-30 -42.333 -51 -60s-44.833 -33.167 -71.5 -46.5s-54 -24.5 -82 -33.5s-55.5 -15.667 -82.5 -20s-50.833 -6.5 -71.5 -6.5
c-26.667 0 -58.667 2.83301 -96 8.5s-76.333 14.667 -117 27s-81 28.333 -121 48s-75.833 43.5 -107.5 71.5s-57.667 60.333 -78 97s-30.833 78.334 -31.5 125.001z" />
    <glyph glyph-name="D" unicode="D" horiz-adv-x="1164" 
d="M113 896c-10 2.66699 -17.665 8.16797 -22.998 16.501s-9.5 18 -12.5 29s-5 22.5 -6 34.5s-1.83301 23 -2.5 33c0 7.33301 1.83301 15 5.5 23s8.33398 15.833 14.001 23.5s11.667 14.834 18 21.501l16.5 17h67c32 0 69.833 -1.83301 113.5 -5.5s90.167 -9.5 139.5 -17.5
s100.333 -18 153 -30s104.167 -26.833 154.5 -44.5s98.166 -38 143.499 -61s85.5 -49.167 120.5 -78.5s63.5 -62 85.5 -98s34.667 -75.667 38 -119c2.66699 -33.333 -2.33301 -66.5 -15 -99.5s-29.667 -64.333 -51 -94s-45.166 -57.334 -71.499 -83.001
s-51.833 -47.834 -76.5 -66.501l-85.5 -63c-33.667 -24.667 -70.667 -50.167 -111 -76.5s-82.666 -52.5 -126.999 -78.5s-88.5 -49.167 -132.5 -69.5s-87 -36.833 -129 -49.5s-80.333 -19 -115 -19c-9.33301 0 -24.833 0.833008 -46.5 2.5s-43.5 5.16699 -65.5 10.5
s-41.5 12.833 -58.5 22.5s-25.833 22.834 -26.5 39.501c-0.666992 7.33301 -2.33398 16.166 -5.00098 26.499s-4.33398 20.5 -5.00098 30.5s0.5 18.833 3.5 26.5s10.167 12.167 21.5 13.5c31.333 2.66699 62 6.66699 92 12c-1.33301 11.333 -2.33301 23 -3 35
c-2.66699 32 -4.33398 64.5 -5.00098 97.5s-0.5 64.167 0.5 93.5s2.16699 55.833 3.5 79.5s2.66602 42.167 3.99902 55.5c1.33301 12.667 2.5 33.667 3.5 63s2.33301 62.5 4 99.5s3 75.333 4 115s1.83301 76.167 2.5 109.5c0.666992 6.66699 1 13 1 19
c-18 0.666992 -30 2 -36 4zM347.002 859.001c-1.33301 -11.333 -3 -30.8379 -5 -58.5049s-4.5 -59.667 -7.5 -96l-10 -116.5c-3.66699 -41.333 -7.5 -81 -11.5 -119c-2 -19.333 -3.16699 -40.666 -3.5 -63.999s0 -47.666 1 -72.999s2.5 -51 4.5 -77l6 -75l1 -12
c63.333 18.667 122.333 40.334 177 65.001c64.667 29.333 122.667 61.666 174 96.999s94.666 71.833 129.999 109.5s62 75.334 80 113.001s26.333 73.5 25 107.5c-1.33301 22 -7.83301 42 -19.5 60s-26.667 33.833 -45 47.5s-39.166 25.834 -62.499 36.501
s-47 20.167 -71 28.5s-47.833 15.833 -71.5 22.5l-63.5 18c-18.667 5.33301 -42.167 9.33301 -70.5 12s-58.5 4.33398 -90.5 5.00098l-66 2c0 -13.333 -0.333008 -24.333 -1 -33z" />
    <glyph glyph-name="E" unicode="E" horiz-adv-x="1019" 
d="M295 203c4.66699 2 15.8369 5.3252 33.5039 9.99219s39.5 9.83398 65.5 15.501s54.833 11.5 86.5 17.5s63.667 11.667 96 17s63.5 9.83301 93.5 13.5s56.667 6.16699 80 7.5c8 0 20.833 0.833008 38.5 2.5s37 2.66699 58 3s42.5 -0.5 64.5 -2.5s41.333 -6.33301 58 -13
s29 -16.167 37 -28.5s9 -28.5 3 -48.5c-6 -18 -20.667 -32 -44 -42s-52 -18.167 -86 -24.5s-71.833 -12 -113.5 -17s-84.5 -11.5 -128.5 -19.5c-46.667 -8 -90.5 -17.5 -131.5 -28.5s-77.833 -21.333 -110.5 -31l-83 -24.5c-22.667 -6.66699 -39 -10 -49 -10
c-12.667 0 -27.334 1 -44.001 3s-32.667 6 -48 12s-29.166 14.333 -41.499 25s-20.5 25 -24.5 43c-7.33301 29.333 -11.666 67.833 -12.999 115.5s-1.5 100 -0.5 157s2.66699 116.667 5 179s3.83301 122.833 4.5 181.5s-0.333008 113 -3 163
c-1.33301 26 -3.33301 49.667 -6 71c-6 7.33301 -11.667 15.333 -17 24c-11.333 20 -17.333 39.667 -18 59l2 -4c0 12.667 1.33301 23.667 4 33s7.66699 17.833 15 25.5s17.666 14.334 30.999 20.001s30.666 10.834 51.999 15.501
c26.667 6.66699 55.834 10.834 87.501 12.501s64 2.33398 97 2.00098s65.833 -1.16602 98.5 -2.49902s63.667 -1.66602 93 -0.999023c22.667 0 46.167 2.5 70.5 7.5s47.166 10.167 68.499 15.5s40 10.333 56 15s27.333 7 34 7c25.333 0 44.333 -7.66699 57 -23
s19 -32 19 -50c0 -26.667 -8.16699 -49.5 -24.5 -68.5s-37.833 -35 -64.5 -48s-57.167 -23.5 -91.5 -31.5s-69.5 -14.333 -105.5 -19s-71.667 -8 -107 -10s-67.333 -3.66699 -96 -5c-14 0 -26.667 -0.333008 -38 -1v-31c0.666992 -34 0 -71.333 -2 -112l-2 -42l14 1
c29.333 2 59.666 4.5 90.999 7.5l97 9l97 9c31.333 3 61.5 5.33301 90.5 7s55.167 2.5 78.5 2.5c16 0 30.833 -0.333008 44.5 -1s25.667 -3.33398 36 -8.00098s18.5 -12 24.5 -22s9 -24 9 -42c0 -22.667 -6.66699 -41 -20 -55s-31.666 -25.167 -54.999 -33.5
s-50.166 -14.5 -80.499 -18.5s-62.333 -7 -96 -9l-103 -6c-35 -2 -68.333 -5 -100 -9s-60.834 -10 -87.501 -18c-20.667 -6 -38.334 -14.333 -53.001 -25c-2.66699 -39.333 -5.33398 -76.666 -8.00098 -111.999c-2 -29.333 -3 -56.666 -3 -81.999s0.666992 -47.5 2 -66.5
s2.66602 -34 3.99902 -45s2 -17.167 2 -18.5z" />
    <glyph glyph-name="F" unicode="F" horiz-adv-x="844" 
d="M183 886c-4.66699 -0.666992 -12.832 -0.339844 -24.499 0.993164s-24.667 3.66602 -39 6.99902s-29.166 7.33301 -44.499 12s-28.833 9.83398 -40.5 15.501s-20.834 11.834 -27.501 18.501s-8.66699 13.334 -6 20.001c0.666992 7.33301 9.16699 16.333 25.5 27
s37.333 22.167 63 34.5s54 24.833 85 37.5l91.5 37.5l83 34.5c25.333 10.667 45 19.667 59 27c10 2.66699 24.833 7 44.5 13l66 20.5l76.5 24l76.5 24l65.5 20.5c19.333 6 34 10.333 44 13h68c14.667 0 32.834 -0.833008 54.501 -2.5s42.167 -5.83398 61.5 -12.501
s36 -16.5 50 -29.5s21 -30.833 21 -53.5c0 -8 -2.33301 -15.667 -7 -23s-10.5 -13.833 -17.5 -19.5s-14.333 -10.5 -22 -14.5s-14.834 -7 -21.501 -9c-17.333 1.33301 -40.833 0.666016 -70.5 -2.00098s-62.334 -7.16699 -98.001 -13.5s-72.834 -14.666 -111.501 -24.999
s-75.167 -22.666 -109.5 -36.999s-65.166 -30.833 -92.499 -49.5c-8 -5.33301 -15.333 -10.666 -22 -15.999c-1.33301 -11.333 -3 -23.666 -5 -36.999c-3.33301 -31.333 -6 -64.5 -8 -99.5l-6 -102.5c-0.666992 -19.333 -1.66699 -37 -3 -53l22 8
c32.667 10.667 67 21.167 103 31.5s71.167 19.5 105.5 27.5s62.833 12.667 85.5 14c10.667 0.666992 22.167 0.5 34.5 -0.5s23 -3.5 32 -7.5s15.667 -9.5 20 -16.5s3.83301 -15.833 -1.5 -26.5c-3.33301 -6.66699 -8.33301 -15.667 -15 -27s-14.334 -23 -23.001 -35
s-18.167 -23.167 -28.5 -33.5s-20.833 -17.833 -31.5 -22.5c-51.333 -5.33301 -99.5 -16.166 -144.5 -32.499s-84.167 -33.166 -117.5 -50.499c-22 -11.333 -40.667 -22 -56 -32l-2 -46c-2.66699 -74.667 -6.33398 -148.334 -11.001 -221.001c-2 -30 0 -57.167 6 -81.5
s10.667 -49.166 14 -74.499c0.666992 -6 -5.33301 -12.167 -18 -18.5s-26.834 -12 -42.501 -17s-30.667 -9.33301 -45 -13s-23.166 -5.83398 -26.499 -6.50098c-20.667 -4.66699 -38 -2.16699 -52 7.5s-25.333 23.334 -34 41.001s-15.167 38 -19.5 61
s-7.16602 46.167 -8.49902 69.5s-1.5 45.5 -0.5 66.5s2.5 37.833 4.5 50.5c2 12 4 30.667 6 56c1.33301 18.667 2.66602 39.667 3.99902 63c-4 0 -8 0.333008 -12 1c-18 2.66699 -33 7.66699 -45 15c-12 6.66699 -19.167 16.5 -21.5 29.5s-1.66602 26.5 2.00098 40.5
s8.83398 27 15.501 39s13 21 19 27c4 3.33301 12 8 24 14l27 14l3 74c2 39.333 3.66699 77.333 5 114s2.33301 69.667 3 99v9c-13.333 2.66699 -26.333 3.33398 -39 2.00098z" />
    <glyph glyph-name="G" unicode="G" horiz-adv-x="1000" 
d="M872 1177c4.66699 0 8.1709 -3.66309 10.5039 -10.9961s3.83301 -15.833 4.5 -25.5s1 -19.334 1 -29.001s-0.333008 -17.167 -1 -22.5c-5.33301 -55.333 -8 -105.833 -8 -151.5s1 -90.834 3 -135.501c9.33301 -30 15.166 -60.5 17.499 -91.5s0.833008 -59.5 -4.5 -85.5
c-4 -11.333 -13.833 -20 -29.5 -26s-32.5 -9.33301 -50.5 -10s-35 1.83301 -51 7.5s-26.667 14.5 -32 26.5c-12 18 -19.833 37.833 -23.5 59.5s-6.16699 45.167 -7.5 70.5c-37.333 48.667 -75.333 80.167 -114 94.5s-75.834 16.333 -111.501 6s-69.167 -30.333 -100.5 -60
s-58.833 -64.5 -82.5 -104.5s-42.334 -82.333 -56.001 -127s-20.5 -87 -20.5 -127c0 -20.667 1.5 -43 4.5 -67s8.83301 -47.5 17.5 -70.5s20.334 -44.667 35.001 -65s33.334 -37.166 56.001 -50.499c10 -6 28.333 -11.5 55 -16.5s57 -8 91 -9s69.167 0.833008 105.5 5.5
s69 14.167 98 28.5s51.833 34.166 68.5 59.499s22.667 58 18 98c-32.667 11.333 -61.667 19.5 -87 24.5s-48.833 7.66699 -70.5 8s-42.334 -1 -62.001 -4s-40.5 -6.66699 -62.5 -11s-46 -8.83301 -72 -13.5s-55.667 -8.33398 -89 -11.001
c-14.667 2.66699 -25.5 11.667 -32.5 27s-10.5 32.166 -10.5 50.499s3.66699 36 11 53s18 28.167 32 33.5c58.667 14 111.167 24.667 157.5 32s91.666 9.66602 135.999 6.99902s90.166 -11.167 137.499 -25.5s101.666 -35.833 162.999 -64.5c5.33301 -4 10.5 -13 15.5 -27
s8.83301 -30.667 11.5 -50s3.83398 -40.5 3.50098 -63.5s-3.16602 -45.5 -8.49902 -67.5c-11.333 -49.333 -34.833 -93.166 -70.5 -131.499s-81.5 -68.333 -137.5 -90s-121 -33.834 -195 -36.501s-155 7.33301 -243 30c-27.333 6.66699 -56.666 21.667 -87.999 45
s-60 53.333 -86 90s-47.167 79.167 -63.5 127.5s-22.833 101.166 -19.5 158.499c2.66699 48 10.334 99 23.001 153s33 107 61 159s64.667 101 110 147s101.666 84.667 168.999 116c22.667 10.667 50.667 17.167 84 19.5s66.166 0.5 98.499 -5.5s61.166 -16 86.499 -30
s41 -32 47 -54c1.33301 40 3 78.667 5 116s3 73 3 107c0 4.66699 1.66699 10 5 16s7.5 11.333 12.5 16s10.833 8.33398 17.5 11.001s13.667 3.33398 21 2.00098l19.5 -8.5l26 -11.5c9 -4 17.833 -7.5 26.5 -10.5s16 -4.5 22 -4.5z" />
    <glyph glyph-name="H" unicode="H" horiz-adv-x="920" 
d="M820 481c1.33301 -39.333 2.67188 -74.334 4.00488 -105.001s2.66602 -59.334 3.99902 -86.001s2.66602 -52 3.99902 -76l4 -73c0.666992 -5.33301 -0.333008 -10.666 -3 -15.999s-6.16699 -10.666 -10.5 -15.999s-9.5 -10.333 -15.5 -15s-11.333 -9 -16 -13
c-18.667 -1.33301 -37.5 -3.16602 -56.5 -5.49902s-36.333 -1.83301 -52 1.5s-28.334 11.166 -38.001 23.499s-14.5 32.166 -14.5 59.499c0 0.666992 -0.333008 8.33398 -1 23.001s-1.33398 34.334 -2.00098 59.001s-1.66699 53 -3 85l-4 99l-1 43
c-8 -0.666992 -15.333 -1 -22 -1c-11.333 -0.666992 -16.666 -0.666992 -15.999 0c-10.667 -2 -25.667 -4.5 -45 -7.5l-63.5 -9.5l-70 -10l-64.5 -9c-16 -2.66699 -29.667 -4.66699 -41 -6c-22.667 -248.667 -34 -375.334 -34 -380.001
c0 -8.66699 -1.66699 -17.167 -5 -25.5s-9.33301 -15.166 -18 -20.499h-68c-20 0 -37 1 -51 3s-25.167 6.33301 -33.5 13s-14.333 16.667 -18 30s-5.5 31.666 -5.5 54.999c0 38 2.83301 82 8.5 132s11.167 102 16.5 156c4 38.667 7.83301 81.834 11.5 129.501l11 145l11 144
l10 126c3 37 5.66699 66.833 8 89.5s4.16602 34.667 5.49902 36c9.33301 7.33301 20 11 32 11h28c11.333 0 22.5 -0.5 33.5 -1.5s21.167 -3.83301 30.5 -8.5s17.333 -11.5 24 -20.5s11.667 -21.5 15 -37.5c2 -10.667 3.66699 -26.667 5 -48s2.16602 -45.833 2.49902 -73.5
s0.333008 -57.167 0 -88.5s-0.833008 -62.333 -1.5 -93l-2 -77c18.667 0 40.334 0.666992 65.001 2l206 23l28 4c-0.666992 18.667 -1 35.667 -1 51c-0.666992 22.667 -1 39 -1 49c-0.666992 55.333 -1.83398 103 -3.50098 143s-2.5 73.833 -2.5 101.5
s1.66699 49.834 5 66.501s9.83301 29.5 19.5 38.5s23.334 15 41.001 18s40.5 4.5 68.5 4.5c10 0 19.833 -0.5 29.5 -1.5s18.667 -3.16699 27 -6.5s15.166 -8.66602 20.499 -15.999s8.33301 -17 9 -29c-1.33301 -21.333 -2.33301 -47.5 -3 -78.5
s-1.33398 -64.5 -2.00098 -100.5s-1.16699 -73.5 -1.5 -112.5s-0.5 -76.833 -0.5 -113.5v-21c8 -4.66699 15 -10.334 21 -17.001c6.66699 -6.66699 11.834 -14.334 15.501 -23.001s5.5 -17.334 5.5 -26.001c0 -11.333 -1.16699 -22.5 -3.5 -33.5
s-8.83301 -22.833 -19.5 -35.5c-2 -2.66699 -7.66699 -5.66699 -17 -9c0 -6.66699 0.333008 -13 1 -19zM220.006 638.999c0 -1.33301 0.333008 -2.66699 1 -4z" />
    <glyph glyph-name="I" unicode="I" horiz-adv-x="723" 
d="M37 84c2 17.333 6.49414 30.3398 13.4941 39.0068s15.333 15 25 19s19.834 6.66699 30.501 8s20.834 3.33301 30.501 6s17.834 7 24.501 13s10.667 15.667 12 29l16 105c6.66699 44.667 13.5 94 20.5 148s13.833 110.5 20.5 169.5s12.334 115.167 17.001 168.5
s8 101.5 10 144.5s1.66699 75.833 -1 98.5c0 2.66699 -4.83301 4.16699 -14.5 4.5s-21.5 0.5 -35.5 0.5s-28.667 -0.166992 -44 -0.5s-28.666 0.166992 -39.999 1.5c-5.33301 0 -9.66602 3 -12.999 9s-5.66602 13.167 -6.99902 21.5s-1.83301 17.166 -1.5 26.499
s1.5 17.666 3.5 24.999c5.33301 16.667 18 31.5 38 44.5s43.833 24.167 71.5 33.5s57.5 17.166 89.5 23.499s63.167 11.333 93.5 15s58 6.16699 83 7.5s44.167 2 57.5 2c14 -0.666992 30 -5.16699 48 -13.5s34.667 -19 50 -32s28 -28 38 -45s14.667 -34.167 14 -51.5
c-1.33301 -20.667 -8.5 -35.334 -21.5 -44.001s-28.5 -14.167 -46.5 -16.5s-37.167 -3 -57.5 -2s-37.833 0.833008 -52.5 -0.5c-3.33301 0 -6.33301 -0.5 -9 -1.5s-5.5 -3.16699 -8.5 -6.5s-6 -8.5 -9 -15.5s-5.83301 -16.833 -8.5 -29.5
c-10.667 -66 -19.834 -134 -27.501 -204s-14.667 -139.5 -21 -208.5s-12.166 -137 -17.499 -204l-15 -190.5c12.667 -6.66699 25.834 -10.167 39.501 -10.5s29 0.5 46 2.5s36 4.5 57 7.5s45.167 4.16699 72.5 3.5c14 -0.666992 26.833 -4.83398 38.5 -12.501
s21.167 -16.834 28.5 -27.501s12.333 -22 15 -34s2.66699 -22.667 0 -32c-6 -16.667 -20 -29.667 -42 -39s-49 -16.666 -81 -21.999s-67.167 -10 -105.5 -14s-76.833 -9.33301 -115.5 -16s-75.834 -15.834 -111.501 -27.501s-66.834 -27.834 -93.501 -48.501
c-25.333 12 -45.333 24 -60 36s-25.5 24.833 -32.5 38.5s-11.167 28.5 -12.5 44.5s-1 34 1 54z" />
    <glyph glyph-name="J" unicode="J" horiz-adv-x="1020" 
d="M779 1021l-47.999 -5.99902c-16.667 -2 -31.834 -4.16699 -45.501 -6.5s-24.834 -4.5 -33.501 -6.5c-6 -1.33301 -9 -2.66602 -9 -3.99902c-10.667 4.66699 -21 11 -31 19s-18.667 17.167 -26 27.5s-12.166 21.5 -14.499 33.5s-0.833008 24.333 4.5 37
c6 14.667 16.167 26.5 30.5 35.5s31 16 50 21s39.167 8.5 60.5 10.5s42.333 3.66699 63 5c2 27.333 6.33301 43.333 13 48c14 9.33301 25.167 16.333 33.5 21s17.5 7 27.5 7c8.66699 0 18 -1.66699 28 -5s20.167 -7 30.5 -11s20.5 -8.16699 30.5 -12.5s19.333 -7.5 28 -9.5
c16 2.66699 32.5 5.16699 49.5 7.5s33.167 4.16602 48.5 5.49902s29.333 2.16602 42 2.49902s22.667 0.166016 30 -0.500977c12 -1.33301 25 -5.83301 39 -13.5s26.5 -17.167 37.5 -28.5s19 -24.166 24 -38.499s4.5 -28.5 -1.5 -42.5
c-5.33301 -12 -16.666 -21.833 -33.999 -29.5s-38.166 -14.334 -62.499 -20.001s-51.166 -10.334 -80.499 -14.001s-58 -6.83398 -86 -9.50098c-6 -93.333 -13.5 -183.666 -22.5 -270.999s-21.667 -169.166 -38 -245.499s-37.5 -146 -63.5 -209
s-59.167 -117.167 -99.5 -162.5s-89 -80.5 -146 -105.5s-124.5 -37.833 -202.5 -38.5c-48.667 0 -94.834 7.83301 -138.501 23.5s-82 38 -115 67s-59.167 64 -78.5 105s-29 87.167 -29 138.5c0 28.667 4.16699 56 12.5 82s20.333 50 36 72s35 41.333 58 58
s49.167 30 78.5 40c22 -2.66699 38.667 -9 50 -19s18.333 -22 21 -36s2.16699 -29.5 -1.5 -46.5s-9.33398 -33.667 -17.001 -50s-16.167 -31.833 -25.5 -46.5s-18.333 -27 -27 -37c-15.333 -18 -20.833 -37.167 -16.5 -57.5s14 -39.333 29 -57s33.167 -32.5 54.5 -44.5
s41.666 -18.333 60.999 -19c56.667 -3.33301 106.5 7.33398 149.5 32.001s80.167 58.167 111.5 100.5s57.333 91 78 146s37.167 111.5 49.5 169.5s21 115 26 171s7.5 106 7.5 150v67zM644.001 998.001h-1h1z" />
    <glyph glyph-name="K" unicode="K" horiz-adv-x="984" 
d="M275 51c0 -6.66699 -5.33691 -13.0029 -16.0039 -19.0029s-22.834 -11.333 -36.501 -16s-26.5 -8.5 -38.5 -11.5s-19.667 -4.5 -23 -4.5c-9.33301 0 -16.833 0.333008 -22.5 1s-10.667 2.5 -15 5.5s-8.66602 8 -12.999 15s-9.5 16.833 -15.5 29.5
c2.66699 72.667 3.83398 148.5 3.50098 227.5s-1.5 153.833 -3.5 224.5c-2 74 -5.16699 139.833 -9.5 197.5s-9 108.667 -14 153s-9.83301 82.666 -14.5 114.999s-9 60.5 -13 84.5c-2 12.667 -0.166992 23 5.5 31s13.667 14.5 24 19.5s22.166 8.5 35.499 10.5s26.333 3 39 3
c18.667 0 35 -7.16699 49 -21.5s26 -33.666 36 -57.999s18.167 -52.333 24.5 -84s11.333 -64.5 15 -98.5s6.5 -68.333 8.5 -103l2 -43c15.333 11.333 31 23.666 47 36.999l105.5 89.5c37 32.333 73.667 62.333 110 90s71.5 50.667 105.5 69s64.667 27.5 92 27.5
c14 0 28 -3.16699 42 -9.5s26.667 -15 38 -26s20.5 -23.5 27.5 -37.5s10.5 -28.333 10.5 -43c0 -8 -3.33301 -14.667 -10 -20s-15.167 -10.166 -25.5 -14.499s-21.5 -8.5 -33.5 -12.5s-23.333 -9 -34 -15c-30 -16 -61.5 -36.333 -94.5 -61s-64.833 -49.667 -95.5 -75
l-85 -72.5l-62 -53.5c22.667 -13.333 48.334 -30 77.001 -50l89 -64l91.5 -68.5l84.5 -62.5c26 -18.667 48.667 -34.167 68 -46.5s33.666 -19.166 42.999 -20.499c11.333 -2 22.333 -8.5 33 -19.5s20.334 -23.667 29.001 -38s15.5 -29 20.5 -44s7.5 -27.167 7.5 -36.5
c0 -13.333 -3.16699 -25.166 -9.5 -35.499s-19.166 -15.5 -38.499 -15.5c-32 0 -65.833 6.16699 -101.5 18.5s-72.167 28.333 -109.5 48s-74.666 41.834 -111.999 66.501l-109 74l-100 70c-31.333 22 -59.666 40 -84.999 54c-4 2.66699 -8 5 -12 7z" />
    <glyph glyph-name="L" unicode="L" horiz-adv-x="909" 
d="M12 -2c0.666992 5.33301 2.33301 14.001 5 26.001s5.83398 24.167 9.50098 36.5s7.5 23.833 11.5 34.5s7.66699 17.334 11 20.001c5.33301 36 10.666 78.5 15.999 127.5s10.333 101.167 15 156.5s9.16699 112.5 13.5 171.5s8.33301 117.167 12 174.5s7 112 10 164
s5.33301 98.833 7 140.5s2.66699 76.5 3 104.5s0.166016 46.333 -0.500977 55s2.33301 16 9 22s14.834 10.833 24.501 14.5s19.5 6.33398 29.5 8.00098s18 2.5 24 2.5s13 -1.66699 21 -5s16.333 -7.5 25 -12.5s17.334 -10.333 26.001 -16s16.667 -10.5 24 -14.5
c12 -6.66699 21.167 -24.5 27.5 -53.5s10 -67.333 11 -115s-0.5 -103.5 -4.5 -167.5s-10.5 -133.833 -19.5 -209.5s-20.5 -156 -34.5 -241s-30.333 -172.833 -49 -263.5l160.5 50c51.667 15.333 101.5 27.666 149.5 36.999s93.667 15 137 17s84.666 -1 123.999 -9
c14 -3.33301 26.167 -8.83301 36.5 -16.5s19 -17.167 26 -28.5s12.167 -23.833 15.5 -37.5s5.33301 -27.834 6 -42.501c0 -13.333 -7.33301 -23 -22 -29s-35.334 -11 -62.001 -15s-58.834 -8 -96.501 -12s-79.5 -10.333 -125.5 -19
c-25.333 -4.66699 -53.166 -11 -83.499 -19s-61.333 -16.667 -93 -26s-62.667 -19 -93 -29l-82.5 -26.5l-62 -19c-16.667 -5 -27 -7.5 -31 -7.5c-6 0 -16.5 1 -31.5 3s-30.167 5.66699 -45.5 11s-28.666 12.666 -39.999 21.999s-16 21.333 -14 36z" />
    <glyph glyph-name="M" unicode="M" horiz-adv-x="939" 
d="M694 84c0 34.667 1.15723 74.999 3.49023 120.999l7 142l7 143.5c2.33301 47 3.5 89.167 3.5 126.5c0 2.66699 0.166992 10.834 0.5 24.501s0.833008 28.167 1.5 43.5s1.16699 29.833 1.5 43.5s0.5 21.834 0.5 24.501c-5.33301 -28.667 -14.333 -56.5 -27 -83.5
s-27.167 -52.833 -43.5 -77.5s-34.166 -47.334 -53.499 -68.001s-38.5 -38.834 -57.5 -54.501s-37.5 -28.5 -55.5 -38.5s-33.667 -16 -47 -18c-19.333 -3.33301 -37.666 -1 -54.999 7s-33.666 18.833 -48.999 32.5s-29.166 28.834 -41.499 45.501
s-22.666 32.334 -30.999 47.001s-14.5 27 -18.5 37l-2 6c2 -20 4.66699 -45.333 8 -76c4.66699 -36.667 8.33398 -76.167 11.001 -118.5s3.33398 -85.5 2.00098 -129.5s-6.33301 -83.833 -15 -119.5s-22.334 -65 -41.001 -88s-44 -34.833 -76 -35.5
c-6 0 -12.667 -0.666992 -20 -2s-14.166 0 -20.499 4s-11.666 12 -15.999 24s-6.5 31.667 -6.5 59c2.66699 59.333 5 124.166 7 194.499s3.33301 140.833 4 211.5s0.166992 138.667 -1.5 204s-4.83398 123 -9.50098 173c-1.33301 12.667 0.833984 23.167 6.50098 31.5
s13 14.833 22 19.5s18.5 7.83398 28.5 9.50098s19 2.5 27 2.5c31.333 0 58.166 -8.66699 80.499 -26s41.333 -38.833 57 -64.5s29.167 -53.5 40.5 -83.5l32 -83.5c10 -25.667 20.333 -47.167 31 -64.5s23.334 -26 38.001 -26c10.667 0 19.667 2 27 6s13.833 9.66699 19.5 17
s10.834 16.166 15.501 26.499s9.66699 22.166 15 35.499l15 39.5l22.5 59.5l26 69.5l26 69.5l22.5 59.5l15 39.5c2.66699 13.333 7.66699 23 15 29s15.833 10 25.5 12s20.167 2.66699 31.5 2s22.333 -1 33 -1c28.667 0 52.334 -3.16699 71.001 -9.5
s33.334 -17.333 44.001 -33s18.167 -36.667 22.5 -63s6.5 -59.5 6.5 -99.5c-2.66699 -38.667 -5 -80.667 -7 -126s-3.83301 -92 -5.5 -140s-2.66699 -96.167 -3 -144.5s0.166992 -95 1.5 -140s3.33301 -87 6 -126s6.66699 -73.167 12 -102.5
c2 -12.667 -0.833008 -24.167 -8.5 -34.5s-17.834 -19.166 -30.501 -26.499s-26 -13 -40 -17s-26.333 -6 -37 -6c-21.333 0 -39 7.5 -53 22.5s-21 35.5 -21 61.5z" />
    <glyph glyph-name="N" unicode="N" horiz-adv-x="1029" 
d="M68 175l3.5 57.4961c1.66699 27 3.33398 58.667 5.00098 95s3.66699 76.166 6 119.499s4.5 87.333 6.5 132s4.16699 88.667 6.5 132l6.5 120c2 36.667 3.83301 68.667 5.5 96s3.16699 47 4.5 59c5.33301 10.667 13.5 18.834 24.5 24.501s23 9.83398 36 12.501
s26 4.16699 39 4.5s23.5 1.16602 31.5 2.49902c16.667 2 34 -4.16699 52 -18.5s36.667 -34.5 56 -60.5s39.333 -56 60 -90l63.5 -106.5l65.5 -111c22 -37 44.167 -71.333 66.5 -103s44.833 -59.167 67.5 -82.5s45 -39.666 67 -48.999c0.666992 12 2 33.333 4 64
s4.5 66.167 7.5 106.5l9.5 129.5l10 134.5l9 120.5c2.66699 36.667 5 66 7 88c0 10.667 2.5 20.667 7.5 30s11.667 17.833 20 25.5s17.666 14.167 27.999 19.5s21.166 9.33301 32.499 12c16 2.66699 29.667 2.16699 41 -1.5s20.333 -9.5 27 -17.5s11.5 -18 14.5 -30
s4.5 -24.667 4.5 -38c0 -57.333 -1.83301 -111.666 -5.5 -162.999s-7.66699 -103.5 -12 -156.5s-8.16602 -108.333 -11.499 -166s-4.66602 -121.5 -3.99902 -191.5c0 -3.33301 0.5 -11.166 1.5 -23.499s2.5 -26.833 4.5 -43.5s3.83301 -34.167 5.5 -52.5
s3.5 -35.833 5.5 -52.5s3.5 -31.167 4.5 -43.5s1.5 -20.166 1.5 -23.499c0 -19.333 -2.5 -34.833 -7.5 -46.5s-12 -21 -21 -28s-19.5 -11.667 -31.5 -14s-25 -3.5 -39 -3.5c-22 0 -45.833 8.33301 -71.5 25s-52.334 39 -80.001 67s-55.834 60 -84.501 96
s-56.834 73.5 -84.501 112.5l-80 116l-71 106.5l-57.5 85c-16.667 24 -29.667 40.667 -39 50c-4 -22 -7.33301 -49.333 -10 -82s-5.16699 -68.167 -7.5 -106.5s-4.16602 -78 -5.49902 -119s-2.16602 -80.667 -2.49902 -119s-0.333008 -73.833 0 -106.5s1.5 -60 3.5 -82
c-2.66699 -8 -6.66699 -17 -12 -27s-11.666 -19.5 -18.999 -28.5s-15.833 -16.5 -25.5 -22.5s-19.834 -9 -30.501 -9c-24.667 0 -44.167 5.5 -58.5 16.5s-25.333 25 -33 42s-12.5 35.833 -14.5 56.5s-3 40.667 -3 60z" />
    <glyph glyph-name="O" unicode="O" horiz-adv-x="964" 
d="M16 457c3.33301 46.667 11.667 97.0059 25 151.006s31 107.667 53 161s48.333 104.166 79 152.499s65.334 90.666 104.001 126.999s81.167 64.333 127.5 84s96.166 27.5 149.499 23.5c38.667 -3.33301 77.667 -12.333 117 -27s74.833 -33.167 106.5 -55.5
s56.834 -47.333 75.501 -75s27 -55.834 25 -84.501c19.333 -28 33.166 -64.667 41.499 -110s13.5 -93.166 15.5 -143.499s1.5 -99.833 -1.5 -148.5s-6.5 -90.334 -10.5 -125.001c-4.66699 -44.667 -16.167 -86.167 -34.5 -124.5s-41.5 -73 -69.5 -104
s-59.667 -58.333 -95 -82s-72.666 -43 -111.999 -58s-79.333 -25.833 -120 -32.5s-80.334 -8.66699 -119.001 -6c-58 4.66699 -110 20.667 -156 48s-84.667 62.666 -116 105.999s-54.5 92.666 -69.5 147.999s-20.167 113.666 -15.5 174.999zM215.001 421.006
c1.33301 -36.667 9.50098 -69.998 24.501 -99.998s32.667 -55.667 53 -77s41.666 -38 63.999 -50s41.5 -18.667 57.5 -20c38.667 -3.33301 76.167 0.833984 112.5 12.501s69.333 29.167 99 52.5s54.167 52 73.5 86s31.333 71.667 36 113
c4 35.333 7.16699 72.666 9.5 111.999s2.5 78.5 0.5 117.5s-7.16699 76.5 -15.5 112.5s-21.666 68.167 -39.999 96.5s-42.333 51.666 -72 69.999s-66.5 29.166 -110.5 32.499c-27.333 2 -53.833 -7.16699 -79.5 -27.5s-49.5 -47.5 -71.5 -81.5s-41.833 -72.333 -59.5 -115
s-32.667 -85 -45 -127s-21.833 -81.5 -28.5 -118.5s-9.33398 -66.5 -8.00098 -88.5z" />
    <glyph glyph-name="P" unicode="P" horiz-adv-x="1060" 
d="M414 -24l-40.0029 -28.999c-4.66699 -8 -14.167 -12.5 -28.5 -13.5s-29.833 0.333008 -46.5 4s-32.334 8.83398 -47.001 15.501s-25 13.667 -31 21c-2.66699 3.33301 -4.66699 15 -6 35s-2.16602 45 -2.49902 75s0 63.167 1 99.5s2.16699 72.833 3.5 109.5
s2.83301 71.667 4.5 105s3.5 62 5.5 86c-15.333 6 -29.5 12.5 -42.5 19.5s-24 14.5 -33 22.5s-15.333 16.667 -19 26s-3.5 19.333 0.5 30c6 16 13.5 28.667 22.5 38s18.833 16.5 29.5 21.5s21.5 7.83301 32.5 8.5s21.5 0.666992 31.5 0l13 99l13 102.5
c4 33 7.5 63.5 10.5 91.5s5.16699 50.333 6.5 67c-10 0 -22 -1.33301 -36 -4s-28.333 -4.83398 -43 -6.50098s-28.167 -2 -40.5 -1s-21.5 4.83301 -27.5 11.5c-3.33301 4 -10.333 11.667 -21 23l-33 36.5c-11.333 13 -21.166 25.333 -29.499 37s-11.5 20.167 -9.5 25.5
c10.667 16.667 30.667 30.667 60 42s64.5 20 105.5 26s86 9.66699 135 11s98.5 0.5 148.5 -2.5s98.5 -8 145.5 -15s88.833 -15.5 125.5 -25.5c66 -18 120.833 -42 164.5 -72s76.834 -63.667 99.501 -101s34.834 -76.833 36.501 -118.5s-5.83301 -82.834 -22.5 -123.501
c-17.333 -40 -44.833 -78.667 -82.5 -116s-83.5 -70.5 -137.5 -99.5s-114.833 -52.167 -182.5 -69.5s-139.5 -26.333 -215.5 -27c-2 -44.667 -4 -92 -6 -142l-5.5 -141c-1.66699 -44 -3 -82.5 -4 -115.5s-1.83301 -55.167 -2.5 -66.5zM563.997 606.001
c52 3.33301 98.8311 15.1689 140.498 35.502s76.334 45 104.001 74s47.334 60.167 59.001 93.5s13.167 65 4.5 95c-4 12.667 -14.167 24.5 -30.5 35.5s-36 21.167 -59 30.5s-48.167 17.666 -75.5 24.999s-53.833 13.5 -79.5 18.5s-49.167 8.66699 -70.5 11
s-37.666 3.16602 -48.999 2.49902l-14.5 -94.5l-15 -102.5c-5 -34.667 -10.333 -69 -16 -103l-16.5 -95c-1.33301 -5.33301 -2.33301 -13.333 -3 -24c22.667 -2 44.167 -3.16699 64.5 -3.5s39.166 0.166992 56.499 1.5z" />
    <glyph glyph-name="Q" unicode="Q" horiz-adv-x="1148" 
d="M666 32c-1.33301 10 -4.00781 26.3369 -8.00781 49.0039c-2 11.333 -4.33301 23 -7 35c-28.667 -10 -58.334 -18 -89.001 -24c-32.667 -6.66699 -65.167 -11.167 -97.5 -13.5s-61.5 -1.83301 -87.5 1.5c-49.333 6 -95 20.167 -137 42.5s-78.667 51 -110 86
s-55.833 75.167 -73.5 120.5s-26.5 93.666 -26.5 144.999c0 56.667 6.83301 115.5 20.5 176.5s33.334 121 59.001 180s57 115 94 168s79.167 99.5 126.5 139.5s99.166 71.833 155.499 95.5s116.5 35.5 180.5 35.5c16 0 35.667 -2.33301 59 -7s45.833 -11.667 67.5 -21
s40.334 -21.333 56.001 -36s23.5 -32 23.5 -52c0 -11.333 -2.5 -20 -7.5 -26s-11.5 -10.5 -19.5 -13.5s-16.667 -4.66699 -26 -5s-18.333 -0.5 -27 -0.5c-18 0 -34.5 3 -49.5 9s-31.5 9 -49.5 9c-52 0 -99.167 -12.167 -141.5 -36.5s-80.166 -55.833 -113.499 -94.5
s-62.333 -82 -87 -130s-45.167 -95.5 -61.5 -142.5s-28.5 -91.167 -36.5 -132.5s-12 -74.666 -12 -99.999c0 -26.667 1.16699 -53.667 3.5 -81s8.16602 -52 17.499 -74s23 -40 41 -54s42.667 -21.333 74 -22c19.333 -0.666992 40.5 -0.833984 63.5 -0.500977
s49.5 6.5 79.5 18.5c28.667 12 61.334 32.667 98.001 62c-3.33301 23.333 -7.66602 50 -12.999 80l-23.5 129.5c-8.33301 44.333 -15.666 87 -21.999 128s-9.5 74.833 -9.5 101.5c0 22 5.16699 40.833 15.5 56.5s28.833 23.5 55.5 23.5c6.66699 0 16.834 -1 30.501 -3
s27.334 -5.33301 41.001 -10s25.834 -10.334 36.501 -17.001s16.667 -14.334 18 -23.001c8.66699 -46 16.167 -89.5 22.5 -130.5s12.166 -80.833 17.499 -119.5c2 -10.667 3.66699 -21.334 5 -32.001c7.33301 9.33301 15 19.666 23 30.999c14 18 28.167 37.833 42.5 59.5
s27.666 44 39.999 67s22.833 45.833 31.5 68.5s13.667 44 15 64c2.66699 39.333 6.16699 71.166 10.5 95.499s8.83301 43.333 13.5 57s8.83398 23 12.501 28s6.5 7.5 8.5 7.5c24.667 0 45.334 -8.16699 62.001 -24.5s30 -36.166 40 -59.499s17.167 -47.666 21.5 -72.999
s6.16602 -47 5.49902 -65c-1.33301 -52 -9.33301 -101.833 -24 -149.5s-33 -92.667 -55 -135s-46.667 -81.333 -74 -117s-54.666 -67.834 -81.999 -96.501c-16.667 -18 -33.334 -34.333 -50.001 -49c2 -11.333 4.33301 -23 7 -35l30 -154.5l32 -157
c10.667 -51.667 19.834 -98.334 27.501 -140.001s13.5 -76.334 17.5 -104.001s4.33301 -43.5 1 -47.5c-10.667 -15.333 -23.167 -25.166 -37.5 -29.499s-28.833 -5.16602 -43.5 -2.49902s-29.5 8 -44.5 16s-28.667 17.333 -41 28s-23.166 21.5 -32.499 32.5
s-16 20.5 -20 28.5c-5.33301 10.667 -10.666 30.334 -15.999 59.001s-10.833 61 -16.5 97s-11.167 72.833 -16.5 110.5z" />
    <glyph glyph-name="R" unicode="R" horiz-adv-x="1098" 
d="M344 428c-0.666992 0.666992 -1.00195 -5.66797 -1.00195 -19.001v-118c0 -25.333 0.166992 -50.166 0.5 -74.499s0.666016 -47 0.999023 -68s0.833008 -37.5 1.5 -49.5c0 -6 -3.16699 -10.833 -9.5 -14.5s-13.833 -6.16699 -22.5 -7.5s-17.167 -2.16602 -25.5 -2.49902
s-14.166 -0.5 -17.499 -0.5c-15.333 0 -30 2.5 -44 7.5s-26.667 12 -38 21s-20.666 19.5 -27.999 31.5s-11.666 25 -12.999 39c-4 35.333 -6.66699 77.166 -8 125.499s-2.16602 98.833 -2.49902 151.5s-0.166016 105.5 0.500977 158.5s1.33398 101.833 2.00098 146.5
c0 7.33301 0.333008 14.333 1 21h-2c-10.667 0.666992 -21.167 2.33398 -31.5 5.00098s-20.5 7.33398 -30.5 14.001s-19.333 17.334 -28 32.001v25c0 34 13.333 64.667 40 92c13.333 14 29 27.333 47 40v8c-0.666992 12.667 0.333008 22.667 3 30s7 12.5 13 15.5
s14.667 4.5 26 4.5h44c8.66699 0 17.334 -0.666992 26.001 -2c26.667 9.33301 55 17.666 85 24.999c52 12 103.667 19.333 155 22c20.667 1.33301 46.167 1 76.5 -1s62.166 -6.16699 95.499 -12.5s66.666 -15 99.999 -26s63.166 -24.833 89.499 -41.5
s47.833 -36.834 64.5 -60.501s25 -50.834 25 -81.501c0 -28.667 -8.83301 -55.334 -26.5 -80.001s-40.167 -47.334 -67.5 -68.001s-57.833 -39 -91.5 -55s-66.667 -30.167 -99 -42.5s-62 -22.666 -89 -30.999s-47.833 -14.5 -62.5 -18.5
c-0.666992 0 5.66602 -5.83301 18.999 -17.5l53 -46l76.5 -64.5l91 -72.5l94.5 -70.5c31.333 -22.667 60.666 -42 87.999 -58c38.667 -23.333 69.5 -41 92.5 -53s40.5 -20.667 52.5 -26c14 -6.66699 23.667 -9.66699 29 -9c12 -14 20.667 -28.333 26 -43
c4 -12.667 4.83301 -26.167 2.5 -40.5s-13.166 -28.166 -32.499 -41.499s-42.666 -18.5 -69.999 -15.5s-55 9.83301 -83 20.5s-54.333 22.667 -79 36l-56 31c-10.667 6 -25.834 16 -45.501 30l-67.5 49.5l-81 61.5l-86 66l-182 142c-0.666992 -14 -1 -20.667 -1 -20z
M365.998 698.998c21.333 4.66699 47.167 11.1641 77.5 19.4971s62.666 18 96.999 29s65.333 23.333 93 37s49.834 28.334 66.501 44.001s22 31.834 16 48.501s-16.5 29.334 -31.5 38.001s-32 14.834 -51 18.501s-38.5 5.5 -58.5 5.5s-37.667 -0.333008 -53 -1
c-17.333 -0.666992 -37.333 -2.66699 -60 -6s-46.334 -8 -71.001 -14c-13.333 -3.33301 -26.666 -7.33301 -39.999 -12c0 -8.66699 0.333008 -18.667 1 -30c0.666992 -32 0.666992 -67.667 0 -107c0 -24 -0.333008 -48.667 -1 -74
c4.66699 1.33301 9.66699 2.66602 15 3.99902z" />
    <glyph glyph-name="S" unicode="S" horiz-adv-x="886" 
d="M549 743c-26.667 -8 -47.166 -9 -61.499 -3s-24.666 14.167 -30.999 24.5s-9.66602 20.166 -9.99902 29.499s0.166992 13.666 1.5 12.999c2.66699 13.333 5 23 7 29s3.16699 10.5 3.5 13.5s-0.333984 5.5 -2.00098 7.5s-4.5 6 -8.5 12c-10.667 0 -24 -2.16699 -40 -6.5
s-31.667 -10.5 -47 -18.5s-28.666 -17.5 -39.999 -28.5s-17.333 -22.833 -18 -35.5c-2 -32 4 -56.5 18 -73.5s31.5 -29.5 52.5 -37.5s43.167 -13.5 66.5 -16.5s43.666 -6.83301 60.999 -11.5c22 -6 45.833 -12.167 71.5 -18.5s51 -14.333 76 -24s48.833 -22 71.5 -37
s42.5 -33.833 59.5 -56.5s30 -50.167 39 -82.5s12.5 -70.833 10.5 -115.5c-2 -38 -12.167 -71.667 -30.5 -101s-41.666 -55.166 -69.999 -77.499s-60.166 -41.166 -95.499 -56.499s-70.666 -28 -105.999 -38s-69.333 -17.667 -102 -23s-60.334 -9 -83.001 -11
c-36.667 -2.66699 -71.667 1.5 -105 12.5s-62.5 27.5 -87.5 49.5s-44.833 48.333 -59.5 79s-22 64.667 -22 102c0 8.66699 3.16699 16.334 9.5 23.001s14.666 12.167 24.999 16.5s21.833 7.5 34.5 9.5s25 3 37 3c16 -24 30.333 -42.833 43 -56.5s25.5 -24.167 38.5 -31.5
s27.167 -12 42.5 -14s33.666 -3 54.999 -3c24 0 51.5 2.66699 82.5 8s60.167 14.166 87.5 26.499s50 28.5 68 48.5s26.667 45 26 75c-0.666992 16 -9.33398 31.5 -26.001 46.5s-38.167 29 -64.5 42s-55.666 25.333 -87.999 37s-64.333 22.5 -96 32.5l-89 27.5
c-27.667 8.33301 -49.834 16.166 -66.501 23.499c-26.667 11.333 -46.834 25.333 -60.501 42s-23.167 33.5 -28.5 50.5s-8.16602 32.833 -8.49902 47.5s-0.5 26 -0.5 34c0 55.333 11.5 103.5 34.5 144.5s53.333 75 91 102s80.5 47.167 128.5 60.5s97 20 147 20
c24 0 47.333 -2.83301 70 -8.5s42.834 -14.667 60.501 -27s32 -28.666 43 -48.999s16.5 -44.833 16.5 -73.5c0 -24 -2.5 -44.333 -7.5 -61s-12.833 -31 -23.5 -43s-24.334 -22.167 -41.001 -30.5s-36.334 -15.833 -59.001 -22.5z" />
    <glyph glyph-name="T" unicode="T" horiz-adv-x="939" 
d="M431 37c-2 70 0.828125 136.999 8.49512 200.999s18.167 127.833 31.5 191.5s27.833 128.667 43.5 195s30.5 136.5 44.5 210.5c3.33301 18 7.16602 36.333 11.499 55s7.83301 37.167 10.5 55.5s4 36.833 4 55.5s-2 37.667 -6 57
c-1.33301 4.66699 -8.5 8.83398 -21.5 12.501s-24.167 5.5 -33.5 5.5c-37.333 -6.66699 -72.5 -18 -105.5 -34l-99 -48.5c-33 -16.333 -66.667 -30.666 -101 -42.999s-71.166 -18.5 -110.499 -18.5h-26c-9.33301 0 -18.5 0.833008 -27.5 2.5s-16.667 4.83398 -23 9.50098
s-9.16602 11.667 -8.49902 21c1.33301 18.667 10 36.667 26 54s36.833 34.166 62.5 50.499s54.834 31.833 87.501 46.5s66.334 28.667 101.001 42s68.834 25.5 102.501 36.5l91.5 30l69 23c18.667 6.33301 30.334 11.166 35.001 14.499
c16.667 2.66699 39.167 7.16699 67.5 13.5l96 22.5l116 28l127.5 30l122.5 27.5c41 9 80.5 16.833 118.5 23.5s73.667 12 107 16s63 6 89 6c6 0 18.667 -2.33301 38 -7s39.166 -11.334 59.499 -20.001s38.5 -18.667 54.5 -30s24 -23.333 24 -36
c0 -22.667 -9.33301 -41.667 -28 -57s-43.5 -28 -74.5 -38s-67 -17.833 -108 -23.5s-83.667 -10.667 -128 -15s-89 -8.16602 -134 -11.499s-87.333 -7.83301 -127 -13.5s-75.167 -12.667 -106.5 -21s-55.666 -19.5 -72.999 -33.5c-16.667 -64.667 -33.5 -137.667 -50.5 -219
s-33.667 -166.333 -50 -255s-32 -179 -47 -271s-28.5 -181 -40.5 -267c-2 -11.333 -6.66699 -23.5 -14 -36.5s-16.333 -25 -27 -36s-22.667 -20.167 -36 -27.5s-27 -11 -41 -11s-31 3.83301 -51 11.5s-37 16.167 -51 25.5z" />
    <glyph glyph-name="U" unicode="U" horiz-adv-x="1029" 
d="M72 526c0 12 1.16504 32.167 3.49805 60.5s5.5 60.333 9.5 96s9 72.667 15 111s12.333 74 19 107s13.834 61 21.501 84s15.5 36.833 23.5 41.5c15.333 8.66699 29.5 14.334 42.5 17.001s25.333 3.33398 37 2.00098s23 -3.83301 34 -7.5l33.5 -11.5
c8.66699 -3.33301 15.834 -8.33301 21.501 -15s10.167 -14 13.5 -22s5.5 -16.5 6.5 -25.5s1.16699 -16.833 0.5 -23.5c-3.33301 -37.333 -8.66602 -75.333 -15.999 -114l-22.5 -116.5c-7.66699 -39 -14.5 -78.333 -20.5 -118s-9 -78.834 -9 -117.501
c0 -13.333 -0.166992 -30.5 -0.5 -51.5s0.166992 -43.167 1.5 -66.5s3.83301 -46.833 7.5 -70.5s9.66699 -45 18 -64s19.5 -34.5 33.5 -46.5s31.667 -18 53 -18c34 0 65 10.667 93 32s53 49.666 75 84.999s41.5 76.333 58.5 123s31.5 95.167 43.5 145.5
s21.833 101.166 29.5 152.499s13.5 99.333 17.5 144c2.66699 28 3.5 56 2.5 84s-2 54.667 -3 80s-1 48.666 0 69.999s4.5 39.666 10.5 54.999c10 26 23.5 43 40.5 51s36.833 12 59.5 12c20.667 0 40 -6.16699 58 -18.5s33.5 -27.666 46.5 -45.999s23.333 -38.166 31 -59.499
s11.5 -41 11.5 -59c0 -74 -6 -147.333 -18 -220l-20.5 -113c-7.66699 -41.333 -16.834 -84.166 -27.501 -128.499s-23.167 -89.333 -37.5 -135s-31.166 -89.834 -50.499 -132.501s-41.5 -82.667 -66.5 -120s-53.167 -69.833 -84.5 -97.5s-66.333 -49.5 -105 -65.5
s-81.334 -24 -128.001 -24c-53.333 0 -99.5 7.83301 -138.5 23.5s-71.833 36.834 -98.5 63.501s-48.167 58 -64.5 94s-29 74.5 -38 115.5s-15 83.5 -18 127.5s-4.5 87.333 -4.5 130z" />
    <glyph glyph-name="V" unicode="V" horiz-adv-x="954" 
d="M17 873c0 22.667 1.00391 41.166 3.00391 55.499s6.83301 25.333 14.5 33s19 13 34 16s35.167 4.83301 60.5 5.5c16.667 0.666992 32.5 -7.33301 47.5 -24s29.333 -39 43 -67s26.667 -60.333 39 -97s24.166 -74.834 35.499 -114.501l33.5 -119.5
c11 -40 21.833 -77.167 32.5 -111.5s21.334 -64.5 32.001 -90.5s21.334 -45.333 32.001 -58c14.667 24 31.334 55.833 50.001 95.5l59 130.5l63.5 147l62.5 146l56.5 127.5c17.667 38.333 32.834 68.833 45.501 91.5c5.33301 9.33301 11.166 16.166 17.499 20.499
s13.666 7.33301 21.999 9s17.666 2.33398 27.999 2.00098s22.166 -0.5 35.499 -0.5c5.33301 0 11.666 -0.166992 18.999 -0.5s14.5 -1.16602 21.5 -2.49902s12.833 -3.5 17.5 -6.5s7 -7.16699 7 -12.5c5.33301 -11.333 8.66602 -21.833 9.99902 -31.5
s1.66602 -19 0.999023 -28s-2.16699 -17.5 -4.5 -25.5s-4.5 -16 -6.5 -24c-5.33301 -4 -13.5 -16.5 -24.5 -37.5s-24.167 -47.667 -39.5 -80l-50.5 -110.5l-55.5 -129.5l-55.5 -136.5l-51.5 -132c-16 -42 -30 -80.667 -42 -116s-21.333 -64.666 -28 -87.999
c-11.333 -32.667 -30 -59 -56 -79s-58.333 -30 -97 -30c-24.667 -0 -47.667 7.83301 -69 23.5s-40.5 34.667 -57.5 57s-31.5 46 -43.5 71s-20.667 47.167 -26 66.5l-216 655v0z" />
    <glyph glyph-name="W" unicode="W" horiz-adv-x="1154" 
d="M24 926c0 18.667 2.99707 34.8232 8.99707 48.4902s14.167 24.834 24.5 33.501s22.333 15.167 36 19.5s28.5 6.5 44.5 6.5c9.33301 0 18.833 -0.833008 28.5 -2.5s18.667 -5.16699 27 -10.5s15.666 -12.833 21.999 -22.5s11.166 -22.167 14.499 -37.5l106 -608
c0 4.66699 0.666992 13 2 25c2 18.667 4.83301 41.334 8.5 68.001s7.83398 55.5 12.501 86.5s9.5 60 14.5 87s10 49.833 15 68.5s9.16699 29 12.5 31c6 4 12.167 7.5 18.5 10.5s14 5.5 23 7.5s19.833 3.5 32.5 4.5s28.334 1.16699 47.001 0.5
c22.667 -0.666992 45.334 -9.83398 68.001 -27.501s44.667 -40.167 66 -67.5s42 -57.666 62 -90.999l57 -98l50 -88.5c15.333 -27 29.333 -47.833 42 -62.5c8.66699 23.333 16.167 55.5 22.5 96.5s11.5 86.167 15.5 135.5s7.16699 100 9.5 152
s4.16602 100.833 5.49902 146.5s2.16602 85.334 2.49902 119.001s0.5 56.834 0.5 69.501c6 12.667 12.667 22.334 20 29.001s15 11.5 23 14.5s16.5 4.66699 25.5 5s18.167 0.5 27.5 0.5s17.833 0.833008 25.5 2.5s14.834 2.33398 21.501 2.00098
s13.334 -2.66602 20.001 -6.99902s13.667 -12.5 21 -24.5c4.66699 -8 8.16699 -21.5 10.5 -40.5s3.66602 -39.333 3.99902 -61s0.333008 -42.5 0 -62.5s-0.5 -34.667 -0.5 -44c0 -15.333 -1 -37.166 -3 -65.499s-4.5 -60.5 -7.5 -96.5s-6.66699 -74.833 -11 -116.5
s-9 -83.667 -14 -126l-15 -124c-5 -40.333 -10 -77.333 -15 -111s-9.66699 -62.667 -14 -87s-8.16602 -41.833 -11.499 -52.5c-6.66699 -19.333 -18.5 -31.833 -35.5 -37.5s-37.167 -8.5 -60.5 -8.5c-24.667 0.666992 -44.5 3 -59.5 7s-27 8.5 -36 13.5
s-15.833 10.5 -20.5 16.5l-14 18c-38 48.667 -70 95.334 -96 140.001s-48.333 85.334 -67 122.001l-48 94c-13.333 26 -25.666 45 -36.999 57c-2 2 -4.33301 4.83301 -7 8.5s-5.5 6.5 -8.5 8.5s-5.66699 2.33301 -8 1s-4.5 -6 -6.5 -14c-4 -27.333 -7.16699 -58 -9.5 -92
s-5.33301 -68.5 -9 -103.5s-8.66699 -69.333 -15 -103s-15.5 -63.5 -27.5 -89.5s-27.667 -47 -47 -63s-43.666 -24 -72.999 -24c-25.333 0 -47.833 6.66699 -67.5 20s-37.167 31.5 -52.5 54.5s-28.833 50 -40.5 81s-22 64 -31 99s-17.167 71 -24.5 108s-14 73.5 -20 109.5
l-16 86l-18.5 94.5l-18.5 92l-16 80.5l-11.5 60c-3 16 -4.5 25.667 -4.5 29z" />
    <glyph glyph-name="X" unicode="X" horiz-adv-x="1007" 
d="M597 866c32.667 40.667 59.6689 75.8281 81.002 105.495s41.833 54.167 61.5 73.5s40.5 33.5 62.5 42.5s50 13.5 84 13.5c20 0 35.5 -5.16699 46.5 -15.5s16.5 -25.5 16.5 -45.5c0 -17.333 -5.16699 -37.5 -15.5 -60.5s-24 -47.667 -41 -74s-36.833 -53.833 -59.5 -82.5
l-70.5 -86.5l-73.5 -86.5l-70 -81c47.333 -47.333 93.166 -91 137.499 -131s83.5 -77.333 117.5 -112s61.167 -67.167 81.5 -97.5s30.5 -58.833 30.5 -85.5c0 -16.667 -3 -29.5 -9 -38.5s-13.667 -15.667 -23 -20s-19.5 -6.83301 -30.5 -7.5s-21.5 -1 -31.5 -1h-40
c-14.667 9.33301 -34.834 25.333 -60.501 48s-54.334 49.5 -86.001 80.5l-100.5 100.5l-104 108c-40.667 -62 -78.334 -122.667 -113.001 -182s-64.667 -118.333 -90 -177c-15.333 -7.33301 -29.666 -14.666 -42.999 -21.999l-35.5 -18l-28.5 -14h-13
c-16.667 0 -31 3.83301 -43 11.5s-21.667 17.334 -29 29.001s-12.833 24.667 -16.5 39s-5.5 28.166 -5.5 41.499c0 16.667 8 40.334 24 71.001s37 65.834 63 105.501s55.5 82 88.5 127l101.5 135.5l-30 31l-25 27l-75.5 76c-27.667 27.333 -54.334 55.333 -80.001 84
s-48.5 56.834 -68.5 84.501s-33.333 53.167 -40 76.5c-4.66699 19.333 -5.66699 35.833 -3 49.5s7.83398 24.667 15.501 33s17.5 14.333 29.5 18s25.667 5.5 41 5.5c21.333 0 43 -5.66699 65 -17s43.833 -26.333 65.5 -45s42.834 -39.834 63.501 -63.501l60 -72l55 -71.5
c17.333 -23.333 33.333 -43.666 48 -60.999l65 84.5c20 25.667 36.667 47.834 50 66.501z" />
    <glyph glyph-name="Y" unicode="Y" horiz-adv-x="818" 
d="M468 707l33.5 84.001c12.333 30 25.666 60.167 39.999 90.5s29.5 58.166 45.5 83.499s32.5 46.5 49.5 63.5s34.167 27.167 51.5 30.5c30 5.33301 53.833 -1.5 71.5 -20.5s26.834 -48.5 27.501 -88.5l-438 -921c-6 -13.333 -14 -24.833 -24 -34.5
s-21.833 -15.5 -35.5 -17.5s-29.167 0.833008 -46.5 8.5s-36.666 22.167 -57.999 43.5c0 29.333 4.83301 61 14.5 95s22.167 69.167 37.5 105.5s32.5 73.333 51.5 111l57.5 109.5l32 60l-15 13c-28 24 -57.167 51 -87.5 81s-60.333 61.667 -90 95s-56.334 65 -80.001 95
s-42.834 57.167 -57.501 81.5s-22 42.5 -22 54.5c0 19.333 3 35.833 9 49.5s14 24.667 24 33s21.333 13.833 34 16.5s25.667 2.66699 39 0s29.333 -13 48 -31s39 -40 61 -66s45 -54.833 69 -86.5l71.5 -92.5l68.5 -84c0.666992 -0.666992 1.33398 -1.66699 2.00098 -3z" />
    <glyph glyph-name="Z" unicode="Z" horiz-adv-x="968" 
d="M431 863c-23.333 -2.66699 -43.8271 -6.99512 -61.4941 -12.9951s-34.834 -12.333 -51.501 -19s-33.834 -13 -51.501 -19s-38.5 -10.333 -62.5 -13c-20 -0.666992 -37.333 2.33301 -52 9s-26.667 15.167 -36 25.5s-16.166 22.166 -20.499 35.499s-6.5 26.5 -6.5 39.5
s2 24.833 6 35.5s10 19 18 25c17.333 12 43.166 22.167 77.499 30.5s73 15.166 116 20.499s88.667 9.16602 137 11.499s95.166 3.5 140.499 3.5s87.333 -0.833008 126 -2.5s70.334 -4.16699 95.001 -7.5c20 -1.33301 37.167 -7 51.5 -17s25.5 -22.333 33.5 -37
s13.167 -30.834 15.5 -48.501s1.83301 -34.834 -1.5 -51.501c-4 -18 -11.333 -36.667 -22 -56s-26.667 -41.666 -48 -66.999s-48.833 -55 -82.5 -89l-123.5 -122l-97.5 -94l-78.5 -78.5c-24.667 -25.667 -49 -52.5 -73 -80.5s-50.667 -61 -80 -99c14 -6 34 -7.66699 60 -5
s55.167 8 87.5 16s66.666 17.5 102.999 28.5l105.5 31.5c34 10 65.5 18.667 94.5 26s52.833 11.666 71.5 12.999c12 1.33301 23.333 -2.5 34 -11.5s20.167 -20.5 28.5 -34.5s14.833 -29.667 19.5 -47s7.16699 -33.833 7.5 -49.5s-2.16699 -29.167 -7.5 -40.5
s-13.666 -18.333 -24.999 -21c-32 -2.66699 -68.833 -9 -110.5 -19s-85.834 -21.167 -132.501 -33.5l-143.5 -37c-49 -12.333 -96.5 -22.333 -142.5 -30s-89.333 -11.667 -130 -12s-76 5.5 -106 17.5c-6.66699 2.66699 -13.834 8.16699 -21.501 16.5s-15 17.833 -22 28.5
s-12.833 21.334 -17.5 32.001s-7 19.667 -7 27c0 45.333 11.833 91.333 35.5 138s54.167 93 91.5 139s79.333 91 126 135l139 128l129.5 117c40.333 36.667 73.5 70.667 99.5 102c-13.333 8.66699 -30 15.167 -50 19.5s-40.833 7.16602 -62.5 8.49902
s-43.334 1.33301 -65.001 0s-40.834 -3 -57.501 -5z" />
    <glyph glyph-name="bracketleft" unicode="[" horiz-adv-x="526" 
d="M23 -65c0 14.667 1.16797 28.501 3.50098 41.501s5.16602 25.833 8.49902 38.5s7.33301 25.667 12 39s9 27.666 13 42.999c6 22 12.167 51.667 18.5 89s12 77.333 17 120s9 85.5 12 128.5s4.5 81.167 4.5 114.5c-0.666992 76.667 -1.16699 142.667 -1.5 198
s-1 105.666 -2 150.999s-2.66699 88.166 -5 128.499s-5.5 84.166 -9.5 131.499c-0.666992 4.66699 -1.33398 10.167 -2.00098 16.5s-0.666992 12.5 0 18.5s2.5 11.333 5.5 16s8.5 8.33398 16.5 11.001c26 5.33301 49.167 9.33301 69.5 12s40 4.66699 59 6
s38 2.16602 57 2.49902s40.167 0.5 63.5 0.5c10 0 22.167 -0.333008 36.5 -1s28 -3.33398 41 -8.00098s24 -12 33 -22s13.5 -24 13.5 -42c0 -12 -5 -22.5 -15 -31.5s-22.5 -16.833 -37.5 -23.5s-31.333 -12 -49 -16s-34.167 -7.33301 -49.5 -10s-28.666 -4.5 -39.999 -5.5
s-17.666 -1.5 -18.999 -1.5c2 -32.667 2.83301 -76.834 2.5 -132.501s-1.33301 -116.667 -3 -183s-4 -135.666 -7 -207.999l-8.5 -209c-2.66699 -67 -5 -128.5 -7 -184.5s-3.33301 -101 -4 -135c10 -0.666992 24 -1.16699 42 -1.5s37.833 -1.16602 59.5 -2.49902
s43.667 -3.66602 66 -6.99902s42.666 -8.83301 60.999 -16.5s33.333 -17.667 45 -30s17.5 -27.833 17.5 -46.5c0 -8 -1.33301 -16.333 -4 -25s-6.66699 -16.667 -12 -24s-11.833 -13.333 -19.5 -18s-16.834 -6.33398 -27.501 -5.00098
c-73.333 6.66699 -141.666 9.33398 -204.999 8.00098s-126 -4 -188 -8c-10 -0.666992 -19 1.83301 -27 7.5s-14.5 12.834 -19.5 21.501s-8.83301 17.834 -11.5 27.501s-4 18.5 -4 26.5z" />
    <glyph glyph-name="backslash" unicode="\" horiz-adv-x="914" 
d="M676 -46c-40.667 63.333 -77.499 125.332 -110.499 185.999l-94.5 181.5l-88 181l-89 184.5l-25.5 50.5l-37 72.5l-42.5 83.5l-42.5 83.5l-37 72.5l-25.5 50.5c-9.33301 18.667 -15.5 37.5 -18.5 56.5s-2.33301 36 2 51s12.5 26.833 24.5 35.5s28.333 12 49 10
c8.66699 -0.666992 19.167 -2.33398 31.5 -5.00098s24.666 -6.83398 36.999 -12.501s23.833 -12.667 34.5 -21s18.667 -18.5 24 -30.5l57.5 -131l71.5 -154.5l77.5 -163.5l74.5 -158l38.5 -79.5l35 -74l37.5 -76l45.5 -87l58.5 -105.5l78 -132
c8.66699 -15.333 14 -30.666 16 -45.999s1.16699 -29.166 -2.5 -41.499s-9.83398 -22.166 -18.501 -29.499s-19 -10.333 -31 -9c-17.333 1.33301 -38.166 6.33301 -62.499 15s-46.833 22.667 -67.5 42z" />
    <glyph glyph-name="bracketright" unicode="]" horiz-adv-x="558" 
d="M13 -139c-12.667 0 -23.002 3.33008 -31.002 9.99707s-14.333 14.834 -19 24.501s-7.83398 19.834 -9.50098 30.501s-2.5 20 -2.5 28c0 10.667 5.33301 20.334 16 29.001s22.667 16.334 36 23.001c15.333 7.33301 32.666 14.333 51.999 21h269l20 505l20 532
c-13.333 0 -26 -1.33301 -38 -4l-35 -7l-35 -6.5c-12 -2.33301 -24.333 -3.5 -37 -3.5c-13.333 0 -26.166 2 -38.499 6s-23.166 9.5 -32.499 16.5s-17 15.667 -23 26s-9 22.166 -9 35.499c0 18.667 5.5 34 16.5 46s25.167 21.5 42.5 28.5s36.833 11.833 58.5 14.5
s43.167 4.33398 64.5 5.00098s41.5 0.666992 60.5 0s34.5 -1 46.5 -1c15.333 0 32.333 0.166992 51 0.5s36 -1.5 52 -5.5s29.167 -11.167 39.5 -21.5s14.833 -25.833 13.5 -46.5c-2.66699 -32.667 -6.66699 -69.5 -12 -110.5l-17 -135.5
c-6 -49.333 -11.833 -103.333 -17.5 -162s-9.5 -122 -11.5 -190c-3.33301 -106 -3.66602 -215.667 -0.999023 -329l8 -349c-5.33301 -20.667 -18.166 -34.167 -38.499 -40.5s-40.833 -7.16602 -61.5 -2.49902c-32.667 7.33301 -65 14.166 -97 20.499
s-64.167 11.166 -96.5 14.499s-65.333 5 -99 5s-68.5 -2.33301 -104.5 -7z" />
    <glyph glyph-name="asciicircum" unicode="^" horiz-adv-x="798" 
d="M56 825c0 18.667 5.66699 39.8311 17 63.498s26.833 48 46.5 73s42.167 49.667 67.5 74s52 47 80 68s56.167 39 84.5 54s55.5 25.833 81.5 32.5c14.667 4 30.167 1.33301 46.5 -8s33.333 -22.5 51 -39.5s35.334 -37 53.001 -60l53 -71l51 -71.5
c16.333 -23.333 31.833 -43.666 46.5 -60.999c10 -25.333 16 -47.166 18 -65.499s0.833008 -33.5 -3.5 -45.5s-11.5 -20.833 -21.5 -26.5s-22.333 -8.5 -37 -8.5c-24 0 -46.833 6.66699 -68.5 20s-41.834 29.833 -60.501 49.5s-36 40.667 -52 63s-31 42.333 -45 60
s-26.833 31.167 -38.5 40.5s-22.167 11.333 -31.5 6c-16.667 -10 -33 -23.167 -49 -39.5s-31.667 -34.166 -47 -53.499l-45.5 -58c-15 -19.333 -29.667 -37 -44 -53s-28.333 -29 -42 -39s-27.167 -15 -40.5 -15c-14.667 0 -26.667 3 -36 9s-16.5 14.167 -21.5 24.5
s-8.33301 22.166 -10 35.499s-2.5 27.333 -2.5 42z" />
    <glyph glyph-name="underscore" unicode="_" horiz-adv-x="1007" 
d="M822 179c14.667 0 30.001 -2.33496 46.001 -7.00195s30.167 -11.167 42.5 -19.5s21.833 -18.5 28.5 -30.5s8.33398 -25 5.00098 -39c-3.33301 -13.333 -15.333 -25 -36 -35s-47.167 -18.667 -79.5 -26s-69.333 -13.666 -111 -18.999s-85.334 -10 -131.001 -14
s-92.167 -7.83301 -139.5 -11.5s-92.833 -7.5 -136.5 -11.5s-84 -8.5 -121 -13.5s-68.5 -11.167 -94.5 -18.5c-12.667 -3.33301 -23 1 -31 13s-13.167 26.667 -15.5 44s-1.83301 35.166 1.5 53.499s10 31.833 20 40.5c11.333 10.667 34.666 20.334 69.999 29.001
s77 16.5 125 23.5s99.667 13 155 18s108.833 9.33301 160.5 13s99 6.33398 142 8.00098s76.167 2.5 99.5 2.5z" />
    <glyph glyph-name="grave" unicode="`" horiz-adv-x="384" 
d="M101 1179c6 10.667 14 18.167 24 22.5s21.333 6.33301 34 6s25.667 -3 39 -8s26.666 -11.833 39.999 -20.5c8 -4.66699 14.833 -17.5 20.5 -38.5s10.834 -46.167 15.501 -75.5s8.5 -60.833 11.5 -94.5s5.5 -65.667 7.5 -96s3.33301 -57.333 4 -81s1 -40.167 1 -49.5
c0 -12.667 -6 -21 -18 -25s-25.833 -4.66699 -41.5 -2s-31.334 8.16699 -47.001 16.5s-27.167 18.5 -34.5 30.5c-17.333 28 -32.166 61.5 -44.499 100.5s-21.333 78.333 -27 118s-7.5 77 -5.5 112s9 63.167 21 84.5z" />
    <glyph glyph-name="a" unicode="a" horiz-adv-x="1036" 
d="M646 209l-73.5 -66.5c-27 -24.333 -56 -47.333 -87 -69s-64.167 -39.667 -99.5 -54s-73 -21.5 -113 -21.5c-25.333 0 -51.5 5.33301 -78.5 16s-51.5 24.834 -73.5 42.501s-40 38.167 -54 61.5s-21 47.666 -21 72.999c0 36 8.33301 78.667 25 128
s39.167 100.666 67.5 153.999s61.5 106 99.5 158s78.333 98.667 121 140s86.834 74.666 132.501 99.999s90.167 38 133.5 38c25.333 0 52 -3 80 -9s53.667 -16.167 77 -30.5s42.666 -33.166 57.999 -56.499s23 -52 23 -86c0 -22.667 -1.83301 -46 -5.5 -70
s-7.83398 -48.167 -12.501 -72.5s-8.83398 -48.5 -12.501 -72.5s-5.5 -47.333 -5.5 -70c0 -50 9 -94.833 27 -134.5s37.833 -75 59.5 -106s41.5 -57.667 59.5 -80s27 -40.833 27 -55.5c0 -11.333 -1.66699 -20.166 -5 -26.499s-8.66602 -10.833 -15.999 -13.5
s-16.833 -4 -28.5 -4s-26.167 0.666992 -43.5 2c-19.333 2 -38.833 7.5 -58.5 16.5s-38.667 20 -57 33s-35.666 27 -51.999 42s-30.833 29 -43.5 42l-32.5 34c-9 9.66699 -14.833 15.5 -17.5 17.5zM608 707c-22 0 -45.6689 -8.66797 -71.002 -26.001
s-50.666 -39.333 -75.999 -66s-49.833 -56.334 -73.5 -89.001s-44.834 -64.167 -63.501 -94.5s-34 -57.666 -46 -81.999s-19 -41.833 -21 -52.5c-6 -30.667 -6.5 -53 -1.5 -67s13.667 -22.167 26 -24.5s27.5 0 45.5 7s37.333 16.5 58 28.5c8 4.66699 20 14.834 36 30.501
s33.667 34.834 53 57.501s39.5 47.834 60.5 75.501s40.5 55.5 58.5 83.5s33.333 55.167 46 81.5s20.834 49.666 24.501 69.999s1.33398 36.666 -6.99902 48.999s-24.5 18.5 -48.5 18.5z" />
    <glyph glyph-name="b" unicode="b" horiz-adv-x="952" 
d="M40 153c0 5.33301 1.33203 10.667 3.99902 16s7 14.666 13 27.999s13.833 32.333 23.5 57s21.5 59 35.5 103c6 39.333 10.833 83.833 14.5 133.5s7.33398 102 11.001 157s8.16699 111.5 13.5 169.5s12.666 115 21.999 171c10.667 64.667 19.834 127.667 27.501 189
s14 119.333 19 174s8.83301 105 11.5 151s4.66699 86 6 120c0.666992 14.667 4.33398 27.667 11.001 39s14 20.5 22 27.5s15.333 12.333 22 16s10.334 5.5 11.001 5.5c32 0 57.167 -6.5 75.5 -19.5s32.333 -29.667 42 -50s15.667 -42.833 18 -67.5s3.5 -48.334 3.5 -71.001
c0 -38 -2.33301 -73.167 -7 -105.5s-10.5 -64.166 -17.5 -95.499l-22.5 -97c-8 -33.333 -15.167 -70 -21.5 -110s-11.166 -84.667 -14.499 -134s-4 -105.666 -2 -168.999c9.33301 0 24 6.16699 44 18.5s44.833 25.5 74.5 39.5s64.167 26.167 103.5 36.5s83 13.833 131 10.5
c32 -2 61.167 -9 87.5 -21s49 -27 68 -45s33.833 -38.667 44.5 -62s16 -47.666 16 -72.999c0 -44 -10.667 -91.833 -32 -143.5s-50 -103.334 -86 -155.001s-78 -101.667 -126 -150s-98.333 -91 -151 -128s-106.5 -66.667 -161.5 -89s-107.833 -33.5 -158.5 -33.5
c-20.667 0 -41.334 4.33301 -62.001 13s-39.334 20.167 -56.001 34.5s-30.334 31 -41.001 50s-16 38.833 -16 59.5zM749.999 711.001c-38.667 15.333 -77.665 16.5 -116.998 3.5s-77 -34.5 -113 -64.5s-69.833 -65.333 -101.5 -106s-59.167 -81.334 -82.5 -122.001
s-41.666 -78.167 -54.999 -112.5s-20 -59.833 -20 -76.5c-1.33301 -23.333 6.16699 -35.166 22.5 -35.499s38.166 7.66699 65.499 24s58.333 38.833 93 67.5s69.334 60.167 104.001 94.5s67.667 69.5 99 105.5s57.166 69.5 77.499 100.5s33.666 57.5 39.999 79.5
s2.16602 36 -12.501 42z" />
    <glyph glyph-name="c" unicode="c" horiz-adv-x="950" 
d="M80 315c0 37.333 5.99609 77.1621 17.9961 119.495s28.667 84.333 50 126s46.833 81.834 76.5 120.501s61.834 73.167 96.501 103.5s71.5 55.333 110.5 75s78.5 31.5 118.5 35.5c16.667 2 34.5 -1.83301 53.5 -11.5s36.5 -22.5 52.5 -38.5s29.167 -34 39.5 -54
s15.5 -39.667 15.5 -59c0 -13.333 -4.83301 -26.666 -14.5 -39.999s-21.167 -23.833 -34.5 -31.5s-27.666 -11 -42.999 -10s-28.333 9.16699 -39 24.5c-8.66699 12 -19.667 18.333 -33 19s-27.666 -2.66602 -42.999 -9.99902s-31 -18 -47 -32s-30.333 -30 -43 -48
c-12.667 -17.333 -25.5 -36.833 -38.5 -58.5s-24.667 -45 -35 -70s-18.333 -51.667 -24 -80s-7.5 -57.833 -5.5 -88.5c2 -33.333 11.333 -58.666 28 -75.999s46.334 -26 89.001 -26c32.667 0 68.5 5.16699 107.5 15.5s78.167 23 117.5 38s77.333 30.833 114 47.5l98 43.5
c28.667 12.333 52 20.833 70 25.5s27.667 3 29 -5c4 -26.667 1.16699 -50.834 -8.5 -72.501s-20.167 -39.167 -31.5 -52.5c-24 -28 -55.833 -56.167 -95.5 -84.5s-83.167 -53.666 -130.5 -75.999s-96.333 -40.666 -147 -54.999s-99 -21.5 -145 -21.5
c-41.333 0 -81.5 8.33301 -120.5 25s-73.833 39 -104.5 67s-55.167 60.5 -73.5 97.5s-27.5 76.167 -27.5 117.5z" />
    <glyph glyph-name="d" unicode="d" horiz-adv-x="1092" 
d="M672 270c-22.667 -26.667 -49.999 -54.002 -81.999 -82.002s-66.667 -53.833 -104 -77.5s-76.333 -43.5 -117 -59.5s-81.334 -25.333 -122.001 -28c-35.333 -2.66699 -66 0.5 -92 9.5s-47.667 22.833 -65 41.5s-30.333 41.834 -39 69.501s-13.334 59.167 -14.001 94.5
c-0.666992 62 6.33301 121.667 21 179s35.5 110.666 62.5 159.999s59.5 93.833 97.5 133.5s80.333 72.5 127 98.5s97 44.5 151 55.5s110.333 12.5 169 4.5c9.33301 12 16 32.333 20 61s7 62 9 100s3.66699 79.5 5 124.5s3.66602 90.333 6.99902 136
s8.33301 89.834 15 132.501s16.334 81 29.001 115s29.334 61.833 50.001 83.5s46.667 34.167 78 37.5c29.333 2.66699 53 -1.5 71 -12.5s32 -26 42 -45s17 -40.833 21 -65.5s7 -49 9 -73c2.66699 -52.667 0.833984 -105.167 -5.49902 -157.5s-15.333 -104.333 -27 -156
s-24.5 -103 -38.5 -154s-27 -101.5 -39 -151.5c-4.66699 -19.333 -10.834 -46.833 -18.501 -82.5s-15 -75 -22 -118s-12.833 -87.5 -17.5 -133.5s-6.16699 -89.5 -4.5 -130.5s7.16699 -77.167 16.5 -108.5s24.666 -53.666 45.999 -66.999
c12.667 -8.66699 27.167 -14.167 43.5 -16.5s31.666 -4.66602 45.999 -6.99902s26.5 -6.16602 36.5 -11.499s15.667 -15 17 -29c0.666992 -17.333 -1.66602 -33 -6.99902 -47s-12.833 -25.833 -22.5 -35.5s-21 -17.334 -34 -23.001s-26.833 -8.83398 -41.5 -9.50098
c-31.333 -2 -59.833 1.5 -85.5 10.5s-48.667 21.333 -69 37s-38.166 33.167 -53.499 52.5s-28 38.5 -38 57.5s-17.667 36.333 -23 52s-8 27.5 -8 35.5zM240.001 301.998c1.33301 -21.333 9.49805 -36.834 24.498 -46.501s30.5 -13.834 46.5 -12.501
c20.667 1.33301 44.5 9.83301 71.5 25.5s53.5 34.834 79.5 57.501s49.833 46.834 71.5 72.501s37.834 49.5 48.501 71.5c26 53.333 42.5 95 49.5 125s7.33301 52 1 66s-18 22.167 -35 24.5s-36.5 2.83301 -58.5 1.5c-23.333 -1.33301 -47.166 -9 -71.499 -23
s-47.666 -32 -69.999 -54s-43.5 -46.667 -63.5 -74s-37.167 -55 -51.5 -83s-25.333 -55.167 -33 -81.5s-10.834 -49.5 -9.50098 -69.5zM826.999 999.997c0 -9.33301 0.666992 -10.6641 2 -3.99707s3.5 18.167 6.5 34.5s6.16699 36.833 9.5 61.5l10 77l11 81
c4 27.333 7.16699 52.166 9.5 74.499s4 41 5 56s1.16699 23.5 0.5 25.5c-3.33301 7.33301 -6.83301 4.16602 -10.5 -9.50098s-7.5 -33.5 -11.5 -59.5s-7.83301 -56 -11.5 -90s-7 -67.333 -10 -100s-5.5 -62.334 -7.5 -89.001s-3 -46 -3 -58z" />
    <glyph glyph-name="e" unicode="e" horiz-adv-x="1002" 
d="M-26 383c-1.33301 16 -0.336914 26.0049 2.99609 30.0049s9.83301 6.5 19.5 7.5s22.5 3 38.5 6s36.667 11.5 62 25.5c-4 43.333 1.33301 88.666 16 135.999s36.667 92.5 66 135.5s64.833 81.667 106.5 116s87.5 60.5 137.5 78.5c23.333 8.66699 50.166 14.667 80.499 18
s61.166 3.83301 92.499 1.5s62 -7.83301 92 -16.5s57 -20.667 81 -36s43.667 -34.333 59 -57s24 -49.334 26 -80.001c2.66699 -51.333 -6.16602 -96.5 -26.499 -135.5s-47.333 -73 -81 -102s-71.167 -53.5 -112.5 -73.5s-81.333 -36.5 -120 -49.5
s-73.667 -23.167 -105 -30.5l-67 -16c4.66699 -15.333 11.334 -31 20.001 -47s20.834 -30 36.501 -42s35.5 -20.667 59.5 -26s53.667 -4.66602 89 2.00098c40.667 7.33301 78.834 21.166 114.501 41.499s68.334 42.166 98.001 65.499s55.334 45.5 77.001 66.5
s38.834 36.167 51.501 45.5c8 5.33301 16.333 6.16602 25 2.49902s16.667 -9.66699 24 -18s13 -18.166 17 -29.499s5.33301 -22 4 -32c-6.66699 -45.333 -22.667 -85.5 -48 -120.5s-54.5 -65.333 -87.5 -91s-67.167 -46.834 -102.5 -63.501s-66.666 -29.334 -93.999 -38.001
c-52.667 -16.667 -106.834 -24.167 -162.501 -22.5s-108.334 12 -158.001 31s-93.5 47 -131.5 84s-65.667 82.5 -83 136.5c0 0.666992 -2.83301 0.166992 -8.5 -1.5s-12.5 -3.16699 -20.5 -4.5s-16.833 -1.33301 -26.5 0s-18.834 5.5 -27.501 12.5s-16.167 17.5 -22.5 31.5
s-10.166 33.667 -11.499 59zM515.996 786.005c-17.333 -3.33301 -34.668 -10.332 -52.001 -20.999s-33.666 -23.834 -48.999 -39.501s-29.5 -33 -42.5 -52s-23.833 -38.667 -32.5 -59s-14.667 -40.5 -18 -60.5s-3.33301 -38.667 0 -56l53 16
c22 6.66699 45.5 14.167 70.5 22.5s50.333 17.833 76 28.5s49.167 22 70.5 34s39 24.667 53 38s22 27.333 24 42c3.33301 24 0.5 43.667 -8.5 59s-21.5 27.166 -37.5 35.499s-33.667 13.333 -53 15s-37.333 0.833984 -54 -2.49902z" />
    <glyph glyph-name="f" unicode="f" horiz-adv-x="888" 
d="M112 125c-1.33301 10 1.49805 17.1699 8.49805 21.5029s15.5 8.5 25.5 12.5s20.5 9.16699 31.5 15.5s20.167 16.166 27.5 29.499c16.667 32 31.5 67.167 44.5 105.5s23.5 77.333 31.5 117s13.667 79.167 17 118.5s4 76.333 2 111
c-15.333 -0.666992 -35 -0.166992 -59 1.5s-49.5 4.5 -76.5 8.5s-54 9.66699 -81 17s-50.833 16.5 -71.5 27.5s-36.834 24 -48.501 39s-15.5 32.833 -11.5 53.5c0 2 1.16699 5.33301 3.5 10s5.16602 9.33398 8.49902 14.001s6.83301 8.83398 10.5 12.501s6.5 5.5 8.5 5.5
c3.33301 0 13.166 -0.333008 29.499 -1s36 -1.16699 59 -1.5s47.333 -0.5 73 -0.5s50 0.666992 73 2s42.833 3.16602 59.5 5.49902s27 5.83301 31 10.5c2.66699 -6.66699 4.66699 -1.33398 6 15.999s3.16602 42.666 5.49902 75.999s5.5 72.5 9.5 117.5s10.333 91.667 19 140
s20 96.5 34 144.5s31.833 91.667 53.5 131s47.667 72.333 78 99s66.5 42.667 108.5 48c42.667 6 80.5 6.16699 113.5 0.5s61.667 -15.5 86 -29.5s44.833 -31.333 61.5 -52s30.334 -43.167 41.001 -67.5s18.834 -49.833 24.501 -76.5s9.83398 -52.667 12.501 -78
c0.666992 -10 -0.5 -22.833 -3.5 -38.5s-8 -30.834 -15 -45.501s-16.167 -27.334 -27.5 -38.001s-24.666 -16 -39.999 -16c-18.667 0 -33.167 7 -43.5 21s-18.166 31.333 -23.499 52s-9.5 42.834 -12.5 66.501s-6.5 45.834 -10.5 66.501s-9.66699 37.834 -17 51.501
s-18.333 20.5 -33 20.5c-29.333 0 -54.5 -12 -75.5 -36s-38.667 -55 -53 -93s-25.666 -79.833 -33.999 -125.5s-14.333 -89.834 -18 -132.501s-5.33398 -81.167 -5.00098 -115.5s2.16602 -58.833 5.49902 -73.5c45.333 4.66699 92.333 9 141 13s99 2 151 -6
c8.66699 -1.33301 18.334 -6.16602 29.001 -14.499s20.667 -18 30 -29s17.166 -22.333 23.499 -34s10.166 -21.5 11.499 -29.5c1.33301 -13.333 -3.83398 -23.5 -15.501 -30.5s-27.667 -12.333 -48 -16s-44.5 -6.66699 -72.5 -9s-57.667 -5.5 -89 -9.5
s-63.666 -9.83301 -96.999 -17.5s-65.333 -18.5 -96 -32.5c-6 -30.667 -10.667 -67.834 -14 -111.501s-7.16602 -89.667 -11.499 -138s-10.666 -96.333 -18.999 -144s-20.5 -90.834 -36.5 -129.501s-37 -70.5 -63 -95.5s-59 -38.5 -99 -40.5
c-9.33301 -0.666992 -22.833 0.666016 -40.5 3.99902s-35.667 9.33301 -54 18s-34.666 19.834 -48.999 33.501s-22.5 30.5 -24.5 50.5z" />
    <glyph glyph-name="g" unicode="g" horiz-adv-x="900" 
d="M40 -299c-2 19.333 -2.83203 42.001 -2.49902 68.001s3.66602 50.833 9.99902 74.5s16.666 44.167 30.999 61.5s34.5 27.333 60.5 30c18.667 2 32.167 -2 40.5 -12s14.666 -23.667 18.999 -41s8.16602 -36.5 11.499 -57.5s9.16602 -41.833 17.499 -62.5
s20.833 -39.334 37.5 -56.001s40.667 -29 72 -37c8.66699 -2 20.667 -2 36 0s32.5 5.83301 51.5 11.5s38.5 13.167 58.5 22.5s38.5 20.333 55.5 33s31.833 26.834 44.5 42.501s21 32.834 25 51.501c7.33301 34.667 13.333 66.834 18 96.501s7.66699 58.834 9 87.501
s1.33301 58 0 88s-4 63 -8 99c-16 -12.667 -37.333 -27.5 -64 -44.5s-55.834 -33.333 -87.501 -49s-64.167 -28.834 -97.5 -39.501s-64.666 -16 -93.999 -16c-26 0 -51.667 1.33301 -77 4s-47.833 9 -67.5 19s-35.5 24.5 -47.5 43.5s-18 44.833 -18 77.5
c0 41.333 4 88.333 12 141s20.167 106.5 36.5 161.5s36.833 109 61.5 162s53.5 100 86.5 141s70.333 74.167 112 99.5s87.834 38 138.501 38c13.333 0 28 -1.16699 44 -3.5s32.5 -8.33301 49.5 -18s34.333 -24.5 52 -44.5s34.5 -47.333 50.5 -82
c8.66699 -2 18.334 -3.5 29.001 -4.5s20.667 -2.33301 30 -4s17.333 -4.5 24 -8.5s10 -10 10 -18l5.5 -146.5c1.66699 -46.333 2.83398 -92.333 3.50098 -138s1 -92.334 1 -140.001s-0.333008 -98.334 -1 -152.001s-1.83398 -111.667 -3.50098 -174l-5.5 -206.5
c-0.666992 -28 -9.16699 -55.167 -25.5 -81.5s-37.666 -51 -63.999 -74s-55.833 -43.833 -88.5 -62.5s-66 -34.834 -100 -48.501s-66.833 -24.167 -98.5 -31.5s-59.5 -11 -83.5 -11c-59.333 0 -108.5 7.83301 -147.5 23.5s-70.333 34.5 -94 56.5s-40.667 45 -51 69
s-16.166 44.667 -17.499 62zM505.001 730.001c-24 3.33301 -47.5 -4.67188 -70.5 -24.0049s-44.167 -45.166 -63.5 -77.499s-36.333 -68.166 -51 -107.499s-25.834 -77.166 -33.501 -113.499s-11.5 -68.666 -11.5 -96.999s5 -47.166 15 -56.499
c20.667 -20 41.834 -31 63.501 -33s43 2.16699 64 12.5s40.833 25.5 59.5 45.5s35.5 42.5 50.5 67.5s27.5 50.833 37.5 77.5s16.667 52 20 76c9.33301 66.667 6.33301 120.5 -9 161.5s-39 63.833 -71 68.5z" />
    <glyph glyph-name="h" unicode="h" horiz-adv-x="1120" 
d="M197 8c-26.667 0.666992 -48.6709 3.00195 -66.0039 7.00195s-31 11 -41 21s-16.833 23.667 -20.5 41s-5.5 39.666 -5.5 66.999c0 7.33301 3.16699 26.333 9.5 57s15 69.334 26 116.001l38 160.5l46 190.5l49.5 204.5l49 204.5c18 75.333 32.667 145 44 209
s21.666 119.5 30.999 166.5s18.5 83.667 27.5 110s20.167 39.5 33.5 39.5c6.66699 0 16.667 2.5 30 7.5s27 8.33301 41 10s26.833 -0.333008 38.5 -6s19.167 -18.834 22.5 -39.501c3.33301 -18.667 3.16602 -45.334 -0.500977 -80.001s-9.66699 -74.834 -18 -120.501
s-18.5 -95.667 -30.5 -150l-38.5 -169l-41 -177.5l-39 -174.5c-12.333 -56.333 -23.166 -109.833 -32.499 -160.5s-16.333 -96 -21 -136c0 -0.666992 4 6.16602 12 20.499l31 56l43.5 77.5l49.5 85.5l48.5 80c15.667 25 29.167 45.5 40.5 61.5c28 38 54 67 78 87
s49.667 31.333 77 34c10 0.666992 22.5 -0.666016 37.5 -3.99902s29.667 -9.66602 44 -18.999s27.166 -22 38.499 -38s18 -36 20 -60c1.33301 -20 1.83301 -43.667 1.5 -71s-0.5 -56 -0.5 -86s0.833008 -60.833 2.5 -92.5s5.66699 -62.334 12 -92.001
s15.833 -57.5 28.5 -83.5s29.667 -48.333 51 -67c8 -7.33301 20.833 -11.166 38.5 -11.499s36.834 0 57.501 1s41.334 1.66699 62.001 2s38 -1.83398 52 -6.50098c11.333 -2.66699 20 -5.5 26 -8.5s10.5 -6.5 13.5 -10.5s4.66699 -9 5 -15s0.5 -13 0.5 -21
c0 -14.667 -4.5 -28.167 -13.5 -40.5s-20.833 -23.5 -35.5 -33.5s-31.167 -18.667 -49.5 -26s-36.666 -13.333 -54.999 -18s-35.833 -8.16699 -52.5 -10.5s-30.334 -3.5 -41.001 -3.5c-42 0.666992 -78 8.66699 -108 24s-55.167 35.333 -75.5 60
s-36.666 52.834 -48.999 84.501s-21.666 64.167 -27.999 97.5s-10.666 65.833 -12.999 97.5s-4 60 -5 85l-2.5 60.5c-0.666992 15.333 -2.66699 23.333 -6 24c-8.66699 1.33301 -19.667 -6.66699 -33 -24s-28.333 -40.333 -45 -69s-34.667 -61.667 -54 -99l-61.5 -114.5
l-66.5 -115c-22.667 -37.667 -45.667 -71.167 -69 -100.5s-46.666 -52.833 -69.999 -70.5s-46.333 -26.167 -69 -25.5z" />
    <glyph glyph-name="i" unicode="i" horiz-adv-x="466" 
d="M95 50c-2.66699 19.333 -3.83594 46.832 -3.50293 82.499s1.83301 75.334 4.5 119.001s6.16699 89.5 10.5 137.5s8.83301 93.833 13.5 137.5s9.16699 83.5 13.5 119.5l10.5 85c2.66699 18 5.83398 32 9.50098 42s8.83398 17.167 15.501 21.5s15.667 6.83301 27 7.5
s26 1 44 1c22.667 -0.666992 41.5 -8.83398 56.5 -24.501s26.667 -36.5 35 -62.5s14 -56.167 17 -90.5s4.16699 -70.166 3.5 -107.499s-2.66699 -75 -6 -113s-7 -73.667 -11 -107s-8.16699 -63.5 -12.5 -90.5s-7.5 -48.167 -9.5 -63.5l-7.5 -43
c-3 -16.667 -7.83301 -32.5 -14.5 -47.5s-15.667 -27.667 -27 -38s-26 -15.5 -44 -15.5c-9.33301 0 -20.666 0.166992 -33.999 0.5s-26.5 2 -39.5 5s-24.333 8 -34 15s-15.5 16.833 -17.5 29.5zM142.998 1060c4.66699 30.667 15.835 56 33.502 76s38.5 36 62.5 48
s49.167 20.5 75.5 25.5s50.166 7.16699 71.499 6.5c12 0 24 0.333008 36 1s22.5 -0.333008 31.5 -3s15.667 -7.5 20 -14.5s5.5 -18.167 3.5 -33.5c-1.33301 -9.33301 -9 -24.666 -23 -45.999s-30.667 -43 -50 -65s-39.5 -41.167 -60.5 -57.5s-39.167 -24.5 -54.5 -24.5
c-18 0 -36.333 0.666992 -55 2s-35.334 4.66602 -50.001 9.99902s-26 13.833 -34 25.5s-10.333 28.167 -7 49.5z" />
    <glyph glyph-name="j" unicode="j" horiz-adv-x="499" 
d="M-369 -506c-14 32 -20.4961 61.5 -19.4961 88.5s6.5 50.5 16.5 70.5s23.167 36.5 39.5 49.5s32.666 21.167 48.999 24.5s31.333 1.83301 45 -4.5s22.834 -18.5 27.501 -36.5l19 -73c5.33301 -21.333 12.166 -40 20.499 -56s19.166 -29.167 32.499 -39.5
s32 -18.166 56 -23.499c20 -4.66699 38.667 -1.83398 56 8.49902s33.333 26.166 48 47.499s28 46.833 40 76.5s22.833 61.667 32.5 96s18.167 70 25.5 107s13.666 73.167 18.999 108.5c4 24 7.5 55.167 10.5 93.5l9.5 127c3.33301 46.333 7.66602 95.166 12.999 146.499
s12 102.5 20 153.5s18 100.333 30 148s26.667 90.834 44 129.501c11.333 26 26.5 43.167 45.5 51.5s43.5 12.5 73.5 12.5c26.667 0 47 -4 61 -12s23.5 -19 28.5 -33s6.33301 -30.167 4 -48.5s-6.33301 -37.666 -12 -57.999s-12.334 -41.333 -20.001 -63
s-14.5 -42.5 -20.5 -62.5c-17.333 -60 -30 -119.833 -38 -179.5s-14.5 -118.667 -19.5 -177l-14.5 -173.5c-4.66699 -57.333 -12 -114 -22 -170c-10 -61.333 -23.667 -121.666 -41 -180.999s-42.333 -112.333 -75 -159s-75.5 -84.167 -128.5 -112.5
s-120.5 -42.5 -202.5 -42.5c-34 0 -64.667 5.16699 -92 15.5s-51.666 23.666 -72.999 39.999s-39.333 34.333 -54 54s-26 38.5 -34 56.5zM140.004 1075c-1.33301 22.667 6.16797 42.833 22.501 60.5s36.5 32.5 60.5 44.5s49.333 21.167 76 27.5s49.667 9.5 69 9.5
c14.667 0 31 -4.33301 49 -13s34.5 -19.5 49.5 -32.5s27 -27.333 36 -43s11.833 -30.5 8.5 -44.5c-30 1.33301 -56 -2.5 -78 -11.5s-42.833 -19.333 -62.5 -31s-39.834 -22.667 -60.501 -33s-44.667 -15.5 -72 -15.5c-30 0.666992 -53.5 8 -70.5 22s-26.167 34 -27.5 60z
" />
    <glyph glyph-name="k" unicode="k" horiz-adv-x="1041" 
d="M67 141c0 32.667 1.99902 74.999 5.99902 126.999s9.83301 109.667 17.5 173s17.167 130 28.5 200s23.833 139 37.5 207s28.667 133 45 195s33.666 116.5 51.999 163.5s37.666 84.333 57.999 112s41.166 41.5 62.499 41.5c16 0 29.5 -4 40.5 -12s20 -18 27 -30
s12 -25.333 15 -40s4.5 -28.334 4.5 -41.001c0 -21.333 -2.33301 -40.333 -7 -57s-10.5 -34.334 -17.5 -53.001l-24 -61.5c-9 -22.333 -17.833 -49.5 -26.5 -81.5c-3.33301 -11.333 -8.16602 -31.5 -14.499 -60.5l-22 -101.5c-8.33301 -38.667 -16.666 -80 -24.999 -124
s-16 -86.333 -23 -127s-12.5 -77.5 -16.5 -110.5s-5.66699 -57.833 -5 -74.5l30.5 50.5c12.333 21 26.5 43.5 42.5 67.5s33.833 48.333 53.5 73s40.5 46.834 62.5 66.501s45.333 35.834 70 48.501s50 19 76 19c16 0 29 -4.33301 39 -13s18.333 -19.334 25 -32.001
s11.834 -26.667 15.501 -42s6.83398 -29.333 9.50098 -42c-10 -14 -25.667 -30.167 -47 -48.5s-42.166 -38.666 -62.499 -60.999s-37.833 -47 -52.5 -74s-20.334 -56.167 -17.001 -87.5c2 -23.333 11 -41.833 27 -55.5s34.833 -24 56.5 -31s44.5 -11.333 68.5 -13
s45.333 -2.5 64 -2.5c34 0 66.833 1.33301 98.5 4s63.667 6 96 10s65.833 8.5 100.5 13.5s72.334 9.83301 113.001 14.5c26.667 2.66699 43.334 -2 50.001 -14s7.66699 -28.333 3 -49c-7.33301 -28 -22 -51.667 -44 -71s-48.167 -35.166 -78.5 -47.499
s-63 -21.833 -98 -28.5s-68.833 -11.5 -101.5 -14.5s-62.334 -4.83301 -89.001 -5.5s-47 -1 -61 -1c-32.667 0 -67.334 2 -104.001 6s-71 12.167 -103 24.5s-59.667 30 -83 53s-38 53.5 -44 91.5c-16 -16 -29.167 -32 -39.5 -48s-19.5 -32 -27.5 -48
s-15.667 -32.167 -23 -48.5s-16 -33.166 -26 -50.499h-42c-18.667 0 -38 3.5 -58 10.5s-38.333 16.667 -55 29s-30.5 27.166 -41.5 44.499s-16.5 36.333 -16.5 57z" />
    <glyph glyph-name="l" unicode="l" horiz-adv-x="441" 
d="M57 92c-1.33301 20 -0.328125 48.833 3.00488 86.5s8.16602 81.667 14.499 132s14 105.333 23 165l29 184l32 189l32.5 180.5c6 53.333 8.5 97.833 7.5 133.5s-2.5 64.834 -4.5 87.501s-3.33301 39.667 -4 51s2 19.666 8 24.999c15.333 13.333 31 24.5 47 33.5
s29.333 13.5 40 13.5c23.333 0 42.5 -6.16699 57.5 -18.5s27 -27.5 36 -45.5s15.5 -37.5 19.5 -58.5s6.33301 -39.833 7 -56.5c2 -33.333 1.16699 -69.833 -2.5 -109.5s-8.66699 -80.334 -15 -122.001s-13.333 -83.667 -21 -126l-21.5 -121.5l-25 -156l-21 -132.5l-18 -115
l-15 -101.5c-2.66699 -18 -5.16699 -38.167 -7.5 -60.5s-3.83301 -44.333 -4.5 -66s0.166016 -42 2.49902 -61s7.16602 -34.167 14.499 -45.5c4 -6 6.16699 -14.167 6.5 -24.5s-1.33398 -20.166 -5.00098 -29.499s-9.33398 -17 -17.001 -23s-17.167 -7.66699 -28.5 -5
c-22 4.66699 -43 12.5 -63 23.5s-37.667 24.833 -53 41.5s-27.833 36 -37.5 58s-15.167 46.667 -16.5 74z" />
    <glyph glyph-name="m" unicode="m" horiz-adv-x="1385" 
d="M182 581c-2.66699 31.333 -9.66699 59.498 -21 84.498s-24 46.667 -38 65s-27.833 33.166 -41.5 44.499s-24.167 19.333 -31.5 24c-18.667 11.333 -29.667 24.166 -33 38.499s-0.833008 27.833 7.5 40.5s21.666 23.334 39.999 32.001s39.833 13.334 64.5 14.001
c29.333 0.666992 56.166 -8.66602 80.499 -27.999s45.666 -42.333 63.999 -69s33.5 -53.667 45.5 -81s20.333 -49 25 -65c6 30 20.333 58 43 84s48 48.667 76 68s56 34.833 84 46.5s50.333 18.5 67 20.5c26 2 50.833 -2.5 74.5 -13.5s44.334 -26.333 62.001 -46
s31.5 -42.5 41.5 -68.5c9.33301 -25.333 14 -51.333 14 -78c0.666992 4.66699 4.66699 11.667 12 21c8 11.333 18.833 23.833 32.5 37.5s29.667 27.834 48 42.501s37.666 28.167 57.999 40.5s41.166 22.5 62.499 30.5s42 12.333 62 13c46.667 0.666992 86 -7.33301 118 -24
s58 -39.5 78 -68.5s34.667 -62.667 44 -101s14.833 -78.666 16.5 -120.999s0.333984 -85.333 -3.99902 -129s-10.166 -85.167 -17.499 -124.5s-15.333 -75.166 -24 -107.499s-16.667 -58.5 -24 -78.5c-15.333 -20.667 -33.833 -34.334 -55.5 -41.001s-43 -7.16699 -64 -1.5
s-39.833 16.834 -56.5 33.501s-27.334 38.334 -32.001 65.001c1.33301 -2 4.33301 2.33301 9 13c5.33301 11.333 11.833 27.666 19.5 48.999s15.834 46.333 24.501 75s16.334 58.167 23.001 88.5s11.5 60.666 14.5 90.999s3.16699 57.666 0.5 81.999s-9 44.666 -19 60.999
s-25 26.166 -45 29.499c-31.333 4.66699 -58.666 0.333984 -81.999 -12.999s-43.833 -32.333 -61.5 -57s-32.667 -53.667 -45 -87s-23 -68 -32 -104s-16.5 -71.667 -22.5 -107l-16 -96c-4.66699 -28.667 -9 -52.667 -13 -72s-8.66699 -30.666 -14 -33.999
c-26 -17.333 -51.667 -26 -77 -26s-47.5 6 -66.5 18s-33.667 28.167 -44 48.5s-13.5 42.166 -9.5 65.499c4.66699 28.667 10.167 60.834 16.5 96.501s12.166 71.834 17.499 108.501s9.5 72 12.5 106s3.33301 64 1 90s-7.83301 46.167 -16.5 60.5s-21.667 19.833 -39 16.5
c-28.667 -5.33301 -53.5 -17.166 -74.5 -35.499s-39 -41.166 -54 -68.499s-27.833 -58 -38.5 -92s-20 -69.5 -28 -106.5s-15.167 -74.5 -21.5 -112.5l-18.5 -109c-5.33301 -24 -14.666 -42.667 -27.999 -56s-28.5 -22.333 -45.5 -27s-34.5 -6 -52.5 -4s-34.5 6 -49.5 12
s-27.167 13.5 -36.5 22.5s-13.333 17.833 -12 26.5c-1.33301 20.667 1.16699 45.667 7.5 75s13 62.666 20 99.999s12.667 78.666 17 123.999s4.5 94.666 0.5 147.999z" />
    <glyph glyph-name="n" unicode="n" horiz-adv-x="952" 
d="M642 161c0.666992 8 3.16992 24.4971 7.50293 49.4971s9 54.167 14 87.5s9.83301 68.333 14.5 105s7.5 71 8.5 103s-0.333008 59 -4 81s-10.834 35 -21.501 39c-12.667 4 -26.5 3 -41.5 -3s-30.333 -15.5 -46 -28.5s-31.167 -28.5 -46.5 -46.5s-29.833 -36.5 -43.5 -55.5
s-26.167 -37.5 -37.5 -55.5s-20.666 -34 -27.999 -48c-21.333 -40 -38.666 -76.833 -51.999 -110.5s-24.833 -64.167 -34.5 -91.5s-18.834 -51.166 -27.501 -71.499s-18.667 -37.5 -30 -51.5s-25.5 -24.5 -42.5 -31.5s-38.833 -10.5 -65.5 -10.5
c-18.667 0 -34.334 6.5 -47.001 19.5s-22.5 29.333 -29.5 49s-11.5 41 -13.5 64s-1.66699 44.5 1 64.5c6.66699 46 14.5 92.333 23.5 139s13.5 93 13.5 139c0 17.333 -1.66699 35.5 -5 54.5s-7 38 -11 57l-11.5 56.5c-3.66699 18.667 -5.83398 36.667 -6.50098 54
c-0.666992 16.667 -0.5 30.834 0.5 42.501s4 21.167 9 28.5s12.833 12.5 23.5 15.5s25.334 4.5 44.001 4.5c16 0 30.167 -1.33301 42.5 -4s24.166 -11.834 35.499 -27.501s22.5 -40.334 33.5 -74.001s23.167 -81.167 36.5 -142.5c22 34 47.5 68.833 76.5 104.5
s60 68.334 93 98.001s67 54.5 102 74.5s69.5 31.333 103.5 34c38.667 2.66699 70.334 -3.83301 95.001 -19.5s44 -37.667 58 -66s23.667 -61.166 29 -98.499s8 -76.333 8 -117c0 -17.333 -0.166992 -44.333 -0.5 -81s-1.66602 -77.167 -3.99902 -121.5
s-6.33301 -89.666 -12 -135.999s-13.834 -87.833 -24.501 -124.5s-24.334 -65.667 -41.001 -87s-37.334 -29 -62.001 -23c-28 -8 -48.5 -8 -61.5 0s-21.5 20.5 -25.5 37.5s-5 36.667 -3 59z" />
    <glyph glyph-name="o" unicode="o" horiz-adv-x="1002" 
d="M865 730c17.333 -6 29.1641 -15.0039 35.4971 -27.0039s8.83301 -24.667 7.5 -38c13.333 -26 22.833 -59.333 28.5 -100s6.83398 -83.834 3.50098 -129.501s-11.833 -91.167 -25.5 -136.5s-33.5 -85.333 -59.5 -120c-24 -32 -53.5 -59.667 -88.5 -83
s-72.833 -42.166 -113.5 -56.499s-83 -24.166 -127 -29.499s-87.333 -6.16602 -130 -2.49902s-83.167 11.834 -121.5 24.501s-72.166 30 -101.499 52c-46.667 34.667 -78.834 74.667 -96.501 120s-25 92.5 -22 141.5s14.833 98.167 35.5 147.5s46.334 95.5 77.001 138.5
s64.5 80.833 101.5 113.5s73.5 57.334 109.5 74.001c48.667 24 95.834 37.5 141.501 40.5s89 -1 130 -12s79.5 -27.333 115.5 -49s68.667 -44.5 98 -68.5h2zM734.998 600.996c-16 10.667 -30.667 21.6709 -44 33.0039s-26.333 21.666 -39 30.999s-25.667 17.166 -39 23.499
s-28.166 9.83301 -44.499 10.5s-34.666 -2 -54.999 -8s-44.166 -16.667 -71.499 -32c-29.333 -17.333 -57 -39.833 -83 -67.5s-48.5 -57.834 -67.5 -90.501s-33 -66 -42 -100s-11.667 -65.667 -8 -95s15.167 -54.833 34.5 -76.5s48.333 -36.5 87 -44.5
c31.333 -6.66699 65.666 -7.83398 102.999 -3.50098s73.666 13.833 108.999 28.5s68.166 34.167 98.499 58.5s54 53 71 86s25.667 70.167 26 111.5s-11.5 86.333 -35.5 135z" />
    <glyph glyph-name="p" unicode="p" horiz-adv-x="1105" 
d="M359 -326c4 -44 3.66504 -77.833 -1.00195 -101.5s-11.5 -40.667 -20.5 -51s-19 -16 -30 -17s-20.833 -1.16699 -29.5 -0.5c-8.66699 0 -18.5 3.66699 -29.5 11s-21.667 17.666 -32 30.999s-19.833 29.333 -28.5 48s-15 39.667 -19 63
c-2.66699 14.667 -4.66699 33.334 -6 56.001s-2 47.5 -2 74.5s0.5 55.167 1.5 84.5s2.33301 58.5 4 87.5s3.83398 56.667 6.50098 83s5.33398 49.833 8.00098 70.5c2 17.333 5.33301 42.333 10 75l15.5 112l18.5 134.5l20 141.5c-48 -0.666992 -84 3 -108 11
s-40.667 18.333 -50 31s-13.333 26.667 -12 42s3 30 5 44c2 11.333 9 22 21 32s27.167 19.167 45.5 27.5s39.166 15.833 62.499 22.5s47.333 12.667 72 18l10 65c2.66699 18 5 30.667 7 38c5.33301 18 16.333 29.333 33 34s34.167 6 52.5 4s34.833 -5.16699 49.5 -9.5
s22.667 -6.16602 24 -5.49902c0.666992 0.666992 3.33398 -1.16602 8.00098 -5.49902s9.66699 -10.5 15 -18.5s10.5 -18 15.5 -30s8.16699 -25.667 9.5 -41c36.667 1.33301 77 0.666016 121 -2.00098s87.667 -8.16699 131 -16.5s84.833 -20.166 124.5 -35.499
s73.667 -35.333 102 -60s49.5 -54.334 63.5 -89.001s17 -75.334 9 -122.001c-10 -58 -28.5 -108.833 -55.5 -152.5s-59.5 -81.167 -97.5 -112.5s-79.5 -57 -124.5 -77s-90.667 -35.5 -137 -46.5s-91.5 -17.667 -135.5 -20s-83.667 -1.83301 -119 1.5
c-4.66699 -33.333 -9.16699 -69 -13.5 -107s-8 -76 -11 -114s-5 -75 -6 -111s-0.166992 -68.333 2.5 -97zM737.998 646c-16 4 -34.1699 7.50098 -54.5029 10.501s-41.666 5 -63.999 6s-45.5 1 -69.5 0s-47.333 -2.83301 -70 -5.5l-16.5 -96l-17 -95.5l-15.5 -88l-12 -72.5
c31.333 -3.33301 63.333 -3.83301 96 -1.5s64.834 7.33301 96.501 15s62 17.667 91 30s54.833 26.833 77.5 43.5s41.334 35 56.001 55s24 41.667 28 65c2.66699 16 0.166992 31.333 -7.5 46s-18.167 28 -31.5 40s-27.833 22.167 -43.5 30.5s-30.167 14.166 -43.5 17.499z
" />
    <glyph glyph-name="q" unicode="q" horiz-adv-x="931" 
d="M712 136c22.667 4.66699 46.3379 10.501 71.0049 17.501l71.5 19.5c23 6 44 10.667 63 14s34.167 4 45.5 2c14.667 -4 24.667 -11.667 30 -23s6.83301 -23.5 4.5 -36.5s-8 -25.833 -17 -38.5s-19.833 -22.334 -32.5 -29.001c-7.33301 -4 -21 -10.333 -41 -19l-66 -28
l-72.5 -29.5l-60.5 -23.5v-145c7.33301 -17.333 15.666 -38.666 24.999 -63.999s17.5 -52 24.5 -80s11.833 -56.333 14.5 -85s0.5 -55 -6.5 -79s-19.667 -44.5 -38 -61.5s-44.5 -28.167 -78.5 -33.5c-28 -4.66699 -51 -1.83398 -69 8.49902s-32.167 25.333 -42.5 45
s-17.333 42.5 -21 68.5s-5.5 52.5 -5.5 79.5s1.33301 53 4 78l7 63.5c-7.33301 11.333 -14.833 24.166 -22.5 38.499s-14.834 29.166 -21.501 44.499s-12.167 30.833 -16.5 46.5s-6.83301 30.834 -7.5 45.501c-0.666992 16.667 1.83301 32.167 7.5 46.5
s13.167 27.333 22.5 39s19.666 21.834 30.999 30.501s22 16 32 22l3.5 71c1 20.667 1.83301 36.667 2.5 48c0.666992 2.66699 0.666992 8.66699 0 18s-1.16699 19.5 -1.5 30.5s-0.666016 21.333 -0.999023 31s0.166992 15.834 1.5 18.501l-72 -74
c-24.667 -25.333 -49.5 -48.666 -74.5 -69.999s-50.333 -39.5 -76 -54.5s-50.834 -24.333 -75.501 -28s-48.834 -0.666992 -72.501 9s-46.5 28.5 -68.5 56.5c-21.333 27.333 -35.5 61.5 -42.5 102.5s-7.83301 85.5 -2.5 133.5s16.166 97.167 32.499 147.5
s37.5 98.833 63.5 145.5s56 89.167 90 127.5s71.333 69.166 112 92.499s83.834 37.5 129.501 42.5s93.167 -3.16699 142.5 -24.5c22.667 -10 47.5 -26.5 74.5 -49.5s51 -49.5 72 -79.5s35.833 -62.167 44.5 -96.5s6 -67.5 -8 -99.5c-2 0 -5.33301 -0.666992 -10 -2l-14 -4
l-14 -3c-4.66699 -0.666992 -8 -0.333984 -10 0.999023c-3.33301 -12 -6.83301 -28.833 -10.5 -50.5s-7.33398 -46 -11.001 -73l-11 -85l-11 -85.5l-10 -75.5c-3 -23 -5.5 -41.167 -7.5 -54.5zM352.004 284.001c28 24 53.5 49.8311 76.5 77.498s44.5 56.5 64.5 86.5
s38.5 61 55.5 93s33.167 64 48.5 96c-5.33301 10.667 -11.833 20.834 -19.5 30.501s-18.167 19.167 -31.5 28.5c-28 19.333 -55 28 -81 26s-50.333 -11.167 -73 -27.5s-43.334 -38.166 -62.001 -65.499s-35 -56.833 -49 -88.5s-25 -63.667 -33 -96
s-12.333 -61.833 -13 -88.5c-2 -49.333 7.83301 -81.333 29.5 -96s50.834 -6.66699 87.501 24zM640.004 -358.001c-1.33301 -8 -2.33496 -15.832 -3.00195 -23.499s-0.666992 -14.5 0 -20.5s2.16699 -10.833 4.5 -14.5s5.5 -5.16699 9.5 -4.5
c8.66699 0.666992 13.334 6.66699 14.001 18s-0.166016 24.166 -2.49902 38.499s-4.83301 28.5 -7.5 42.5c-2 9.33301 -2.66699 16.666 -2 21.999c-6.66699 -21.333 -11 -40.666 -13 -57.999z" />
    <glyph glyph-name="r" unicode="r" horiz-adv-x="818" 
d="M94 254c0 34 2 67.4961 6 100.496s8.5 65.167 13.5 96.5s10.167 62 15.5 92s9.33301 59 12 87c2.66699 26 3.83398 51.333 3.50098 76s-1.33301 49.834 -3 75.501s-3.83398 52.334 -6.50098 80.001s-5 57.5 -7 89.5c8.66699 8.66699 17.5 13.667 26.5 15s19.833 2 32.5 2
c25.333 0 45.666 -6 60.999 -18s28 -26.167 38 -42.5s18.667 -33.5 26 -51.5s16 -33 26 -45c24 14.667 49.667 28.334 77 41.001s55.5 23.167 84.5 31.5s58.833 13.833 89.5 16.5c26.667 2.66699 53 3 79 1c-2.66699 0.666992 -3.33398 1 -2.00098 1
c2 0.666992 8 -0.166016 18 -2.49902s23 -6 39 -11s32.333 -12 49 -21s32.334 -20.333 47.001 -34s26 -30.334 34 -50.001s11.167 -42.5 9.5 -68.5s-10.5 -55.667 -26.5 -89c-6 -12.667 -12.667 -18.667 -20 -18s-16.166 4.83398 -26.499 12.501s-22.333 17.667 -36 30
s-29.334 24.166 -47.001 35.499s-38 20.666 -61 27.999s-48.833 10 -77.5 8c-35.333 -2.66699 -63.666 -8.5 -84.999 -17.5s-38.833 -20 -52.5 -33s-25.167 -27.667 -34.5 -44l-30 -50.5c-6.66699 -10 -13.5 -23.667 -20.5 -41s-13.667 -37.166 -20 -59.499
s-11.666 -46.833 -15.999 -73.5s-6.83301 -54 -7.5 -82c-1.33301 -34 -3.83301 -65 -7.5 -93s-9.16699 -51.667 -16.5 -71s-16.333 -34 -27 -44s-23.334 -14 -38.001 -12c-15.333 2 -30 8.33301 -44 19s-26.667 23.334 -38 38.001s-20.333 30.5 -27 47.5
s-10 33.167 -10 48.5z" />
    <glyph glyph-name="s" unicode="s" horiz-adv-x="829" 
d="M30 216c0 10 1.00879 21.6582 3.00879 34.9912s5.66699 25.5 11 36.5s13.166 19.667 23.499 26s23.833 7.83301 40.5 4.5c20 -4.66699 36.833 -10.667 50.5 -18s25.667 -15.5 36 -24.5s19.666 -18.333 27.999 -28s17.666 -18.667 27.999 -27s22.166 -15.833 35.499 -22.5
s30 -11.334 50 -14.001c17.333 -2.66699 39 -3.16699 65 -1.5s51 5.83398 75 12.501s44.667 16.334 62 29.001s26 29 26 49c0 28.667 -11.167 54.834 -33.5 78.501s-50.333 45.5 -84 65.5s-70 39 -109 57s-75.333 36.333 -109 55s-61.834 38.167 -84.501 58.5
s-34 42.833 -34 67.5c0 35.333 6 67 18 95s28.333 52.833 49 74.5s44.667 40.334 72 56.001s55.833 28.334 85.5 38.001s59.667 16.834 90 21.501s58.833 7 85.5 7c20 0 42.333 -1.33301 67 -4s48 -8.16699 70 -16.5s40.333 -20.5 55 -36.5s22 -37.333 22 -64
c0 -14.667 -7.33301 -27.667 -22 -39s-31.834 -20.5 -51.501 -27.5s-39.167 -11.333 -58.5 -13s-33.666 0.5 -42.999 6.5c-19.333 11.333 -39.333 18.333 -60 21s-40.334 1.83398 -59.001 -2.49902s-35.5 -11 -50.5 -20s-26.333 -19 -34 -30s-10.834 -22.5 -9.50098 -34.5
s9.33301 -22.667 24 -32c6.66699 -4.66699 22 -12.5 46 -23.5s52 -24.833 84 -41.5s65.833 -36 101.5 -58s68.334 -46.167 98.001 -72.5s54.167 -54.666 73.5 -84.999s29 -62.166 29 -95.499c0 -31.333 -6.83301 -60 -20.5 -86s-31.834 -49.5 -54.501 -70.5
s-48.667 -39.333 -78 -55s-59.333 -28.667 -90 -39s-61 -18.166 -91 -23.499s-57.333 -8 -82 -8c-20 0 -42.5 1 -67.5 3s-50.167 6 -75.5 12s-50.333 14 -75 24s-46.334 23.167 -65.001 39.5s-33.834 36 -45.501 59s-17.5 50.167 -17.5 81.5z" />
    <glyph glyph-name="t" unicode="t" horiz-adv-x="753" 
d="M358 7c-32 5.33301 -59 15.9951 -81 31.9951s-39.667 35 -53 57s-22.5 46.333 -27.5 73s-6.16699 53.334 -3.5 80.001c8.66699 93.333 17.667 176 27 248s19 139.333 29 202c-9.33301 -0.666992 -21.333 -2.16699 -36 -4.5s-30.5 -4.33301 -47.5 -6
s-34.167 -2.33398 -51.5 -2.00098s-33 2.83301 -47 7.5s-25.333 11.834 -34 21.501s-13 23.5 -13 41.5c0 8.66699 0.333008 17.667 1 27s2.83398 18 6.50098 26s9 15.5 16 22.5s17.167 13.167 30.5 18.5c4.66699 2 12.834 3.83301 24.501 5.5s25 3.33398 40 5.00098
s30.667 3.5 47 5.5l46 5.5c14.333 1.66699 26.666 3.5 36.999 5.5s17.166 4.33301 20.499 7c0 1.33301 1.66699 7.16602 5 17.499s7.66602 22.833 12.999 37.5s10.833 30.667 16.5 48s11.167 33.333 16.5 48s9.66602 27.167 12.999 37.5s5 16.166 5 17.499l67 300
c4 17.333 13.333 32.833 28 46.5s30.334 20.5 47.001 20.5c14.667 0 28.834 -1.83301 42.501 -5.5s25.5 -8.83398 35.5 -15.501s18 -15.167 24 -25.5s8.66699 -21.833 8 -34.5c-2.66699 -58.667 -10.667 -115.334 -24 -170.001s-30.333 -110 -51 -166
c-4 -11.333 -7.83301 -23.666 -11.5 -36.999s-6.5 -25.666 -8.5 -36.999s-2.66699 -20.833 -2 -28.5s3 -11.167 7 -10.5c10.667 0.666992 21.334 1.66699 32.001 3s22.834 3.33301 36.501 6s30.167 5.66699 49.5 9l71 12c8 1.33301 14.5 0 19.5 -4s8.83301 -9.5 11.5 -16.5
s4.16699 -15.333 4.5 -25s-0.166992 -19.5 -1.5 -29.5c-1.33301 -7.33301 -7 -16.166 -17 -26.499s-25.333 -21.5 -46 -33.5s-47.167 -24.167 -79.5 -36.5s-70.833 -24.166 -115.5 -35.499c-4.66699 -3.33301 -10.334 -12.5 -17.001 -27.5s-13.834 -34.667 -21.501 -59
s-15.167 -52.333 -22.5 -84s-14 -65.667 -20 -102s-10.833 -74 -14.5 -113s-5.5 -77.833 -5.5 -116.5c0 -6 0.666992 -13.333 2 -22s3.5 -17 6.5 -25s7.16699 -14.667 12.5 -20s12.333 -8 21 -8c16.667 0 33 4.83301 49 14.5s31 20.834 45 33.501s27 25.334 39 38.001
s22.333 21.667 31 27c10 6.66699 18.333 8.5 25 5.5s12 -8.5 16 -16.5s6.5 -17.167 7.5 -27.5s1.16699 -19.833 0.5 -28.5c-3.33301 -28 -12.333 -56.167 -27 -84.5s-34 -53.166 -58 -74.499s-52.667 -37.333 -86 -48s-70 -12.667 -110 -6z" />
    <glyph glyph-name="u" unicode="u" horiz-adv-x="1000" 
d="M80 165c0 52 3.66602 104.999 10.999 158.999s15.833 107.667 25.5 161l29 156c9.66699 50.667 16.5 98.334 20.5 143.001c5.33301 10.667 15 20.334 29 29.001s28.667 13 44 13c22.667 0 41.667 -4.5 57 -13.5s27.5 -20.833 36.5 -35.5s15.333 -31.5 19 -50.5
s5.5 -38.833 5.5 -59.5c0 -28.667 -4.16699 -62.667 -12.5 -102s-17.5 -79.333 -27.5 -120l-27.5 -116c-8.33301 -36.667 -12.5 -66.667 -12.5 -90c0 -14 10.5 -19.833 31.5 -17.5s47.833 13 80.5 32s68.667 46.5 108 82.5s77.666 80.667 114.999 134
c20.667 29.333 36.834 55 48.501 77s20.834 41.333 27.501 58s11.667 31.334 15 44.001s6.66602 24 9.99902 34c2.66699 7.33301 4.5 14.833 5.5 22.5s4 14.5 9 20.5s12.833 11 23.5 15s26.667 6 48 6c18 0 33.5 -5.33301 46.5 -16s24.167 -23.667 33.5 -39
s17.166 -31.5 23.499 -48.5s12.166 -31.833 17.499 -44.5c-37.333 -81.333 -63.666 -147.833 -78.999 -199.5s-23.666 -92.334 -24.999 -122.001s2.5 -50 11.5 -61s18.833 -16.5 29.5 -16.5c18 2.66699 33 1.66699 45 -3s21.667 -11.667 29 -21s12.5 -20.5 15.5 -33.5
s4.5 -26.167 4.5 -39.5c0 -8 -2 -16.333 -6 -25s-10.167 -16.5 -18.5 -23.5s-19 -12.833 -32 -17.5s-28.5 -6.66699 -46.5 -6c-31.333 0.666992 -60 6.83398 -86 18.501s-48.333 26.167 -67 43.5s-32.667 36.666 -42 57.999s-13 42 -11 62l-84.5 -70.5
c-30.333 -25 -61.666 -48 -93.999 -69s-65 -38.5 -98 -52.5s-64.833 -21 -95.5 -21c-23.333 0 -46.333 4.16699 -69 12.5s-43 19.833 -61 34.5s-32.5 32.167 -43.5 52.5s-16.5 42.166 -16.5 65.499z" />
    <glyph glyph-name="v" unicode="v" horiz-adv-x="821" 
d="M26 768c0 28.667 6.99707 52.9971 20.9971 72.9971s35.333 33.667 64 41c17.333 4.66699 34 1.5 50 -9.5s31.333 -27.167 46 -48.5s28.834 -46.833 42.501 -76.5s26.667 -60.5 39 -92.5l36.5 -96.5l34.5 -89.5c11 -27.333 21.833 -50.666 32.5 -69.999
s21.334 -32.333 32.001 -39c3.33301 -2 7.33301 4.66699 12 20s10.334 36.333 17.001 63l23 92.5c8.66699 35 18.334 70.833 29.001 107.5s22.5 72.667 35.5 108s27.333 67 43 95s32.667 50.5 51 67.5s38.166 25.5 59.499 25.5c14 0 25 -2.66699 33 -8
s15.167 -12.166 21.5 -20.499s12.833 -17.5 19.5 -27.5s15.334 -19.667 26.001 -29c-0.666992 -9.33301 -5.16699 -20.833 -13.5 -34.5s-18.5 -31.834 -30.5 -54.501s-24.5 -51.167 -37.5 -85.5s-24.833 -76.5 -35.5 -126.5c-18 -87.333 -35.333 -161.5 -52 -222.5
s-32.167 -111.667 -46.5 -152s-27.833 -72 -40.5 -95s-24.334 -40 -35.001 -51s-20.5 -17.833 -29.5 -20.5s-16.833 -4 -23.5 -4c-25.333 0 -49.333 11.833 -72 35.5s-45 54.834 -67 93.501s-44 82.667 -66 132l-68 151c-16.667 36.667 -34 72.334 -52 107.001l-49 97.5
c-14.667 30.333 -26.667 57.833 -36 82.5s-14 45 -14 61z" />
    <glyph glyph-name="w" unicode="w" horiz-adv-x="1211" 
d="M550 426c-4 -6.66699 -11.335 -20.168 -22.002 -40.501l-38 -70c-14.667 -26.333 -31.167 -53.666 -49.5 -81.999s-36.833 -54.333 -55.5 -78s-37.334 -43 -56.001 -58s-36 -22.167 -52 -21.5c-34.667 1.33301 -64.167 8.33301 -88.5 21s-44.166 30.334 -59.499 53.001
s-26.5 49.667 -33.5 81s-10.833 66.666 -11.5 105.999c-0.666992 24.667 -0.166992 56.167 1.5 94.5s4 79 7 122s6.66699 85.833 11 128.5s9 80.834 14 114.501s10.167 60.667 15.5 81s11 29.5 17 27.5l27.5 20c7.66699 5.33301 14.834 9.83301 21.501 13.5
s13.834 6.16699 21.501 7.5s16.834 2 27.501 2c22 0 39 -4 51 -12s20.833 -18.833 26.5 -32.5s8.33398 -29.167 8.00098 -46.5s-1.83301 -35.333 -4.5 -54c-2 -10.667 -5 -31.667 -9 -63s-8.16699 -68.5 -12.5 -111.5s-8.33301 -89.667 -12 -140
s-5.83398 -99.5 -6.50098 -147.5c3.33301 5.33301 11.333 19.833 24 43.5l46 83.5l60 102c22 36 44.5 69 67.5 99s45.5 55 67.5 75s42 30 60 30c10.667 0 22.667 -4.16699 36 -12.5s25.666 -18.833 36.999 -31.5s20.833 -26.5 28.5 -41.5s11.5 -29.167 11.5 -42.5
c-4 -38 -8.33301 -74.5 -13 -109.5s-7.83398 -67.5 -9.50098 -97.5s-0.833984 -57.333 2.49902 -82s11.333 -46 24 -64c12.667 -18.667 26.334 -26.834 41.001 -24.501s29.667 12.166 45 29.499s31 40.5 47 69.5s32 61.333 48 97l48.5 111l48 111.5
c15.667 36 31 69.167 46 99.5s29.167 55.166 42.5 74.499h21c18.667 0 32.667 -8.83301 42 -26.5s15.333 -38.334 18 -62.001s3.33398 -47.667 2.00098 -72s-3 -43.166 -5 -56.499c-6 -38.667 -14.5 -80.167 -25.5 -124.5s-24.5 -88.333 -40.5 -132
s-34.667 -85.5 -56 -125.5s-45.166 -75.167 -71.499 -105.5s-55.5 -54.666 -87.5 -72.999s-66.333 -27.5 -103 -27.5c-34 0 -67 6.83301 -99 20.5s-59.667 35.334 -83 65.001s-40.833 68 -52.5 115s-13.834 103.5 -6.50098 169.5z" />
    <glyph glyph-name="x" unicode="x" horiz-adv-x="950" 
d="M913 810c-6.66699 -32.667 -22.332 -65.666 -46.999 -98.999s-53.5 -65.666 -86.5 -96.999s-67.5 -61 -103.5 -89l-96 -76l57.5 -63.5l60.5 -67l57.5 -66c18.333 -21.667 34.166 -41.667 47.499 -60s23.666 -34.333 30.999 -48s10.333 -23.834 9 -30.501
c-5.33301 -20 -10.166 -35.5 -14.499 -46.5s-10 -19.167 -17 -24.5s-16 -8.5 -27 -9.5s-25.833 -1.5 -44.5 -1.5c-30.667 0 -59.667 9 -87 27s-53.666 41 -78.999 69s-50 59 -74 93l-71 99c-23.333 -23.333 -47 -48.333 -71 -75s-46.5 -53.834 -67.5 -81.501
s-39.833 -55.167 -56.5 -82.5s-29 -53 -37 -77l-21 -4c-18.667 0 -36.167 2.16699 -52.5 6.5s-30.5 11 -42.5 20s-21.5 20.667 -28.5 35s-10.5 31.833 -10.5 52.5c0 33.333 8.5 66.833 25.5 100.5s38.667 66.5 65 98.5s55.666 62.5 87.999 91.5s63.833 55.5 94.5 79.5
l-89 112l-79 97c-23.333 29.333 -42 55.333 -56 78s-20.333 41.667 -19 57c2.66699 24.667 12.5 44.5 29.5 59.5s36.833 22.5 59.5 22.5c20 0 41.333 -9.16699 64 -27.5s46.5 -42.5 71.5 -72.5s51 -64 78 -102l84.5 -115c24 20.667 49 43.5 75 68.5l77 76l74 75.5
c24 24.667 46.167 46.5 66.5 65.5s38.333 34.333 54 46s28.167 17.5 37.5 17.5c18.667 0 33.667 -3.16699 45 -9.5s19.5 -15.333 24.5 -27s7.33301 -25.5 7 -41.5s-2.5 -34 -6.5 -54z" />
    <glyph glyph-name="y" unicode="y" horiz-adv-x="956" 
d="M430 -690c-21.333 10.667 -38.502 20.665 -51.502 29.998s-22.5 18 -28.5 26s-9.16699 15.333 -9.5 22s1.16699 12.667 4.5 18c6.66699 15.333 15.167 32 25.5 50s18.166 34.667 23.499 50l29 97l20.5 70.5l15.5 56c4.66699 17 9.16699 34.5 13.5 52.5l15 59.5l20.5 78.5
l29 108l41 149c-35.333 -26 -70.666 -46.667 -105.999 -62s-68.833 -26.666 -100.5 -33.999s-60.167 -11.5 -85.5 -12.5s-45.333 0.166992 -60 3.5c-23.333 4.66699 -46 16.167 -68 34.5s-41.5 39.666 -58.5 63.999s-30.5 49.833 -40.5 76.5s-15 50.667 -15 72
c0 32.667 4 67 12 103s17.5 72 28.5 108l32 107c10.333 35.333 18.166 68.666 23.499 99.999c9.33301 14.667 22.333 24.667 39 30s32.334 8 47.001 8c24 0 43.833 -4.83301 59.5 -14.5s28.334 -22.167 38.001 -37.5s16.5 -32.666 20.5 -51.999s6 -38.333 6 -57
c0 -24 -4 -46.5 -12 -67.5s-16.833 -42 -26.5 -63s-18.5 -42 -26.5 -63s-12 -43.5 -12 -67.5c0 -4.66699 0.666992 -11 2 -19s3.83301 -16 7.5 -24s8.66699 -14.833 15 -20.5s14.166 -8.5 23.499 -8.5c32 0 63.833 8 95.5 24s61.834 36.833 90.501 62.5s55 54.5 79 86.5
s45 64 63 96s32 62.5 42 91.5s15.333 53.5 16 73.5c0 9.33301 3.66699 17 11 23s16.333 11 27 15s21.834 7.33301 33.501 10s22.167 5.66699 31.5 9c14 2.66699 27.667 -0.166016 41 -8.49902s25 -19.166 35 -32.499s18 -27.666 24 -42.999s9 -29 9 -41
c0 -6.66699 -4.66699 -22.834 -14 -48.501l-33.5 -89.5l-41 -108c-14.333 -38 -26.166 -72.667 -35.499 -104c-17.333 -57.333 -32.666 -114 -45.999 -170s-26 -112.5 -38 -169.5l-37.5 -176c-13 -60.333 -27.5 -123.833 -43.5 -190.5
c-10.667 -42.667 -18.334 -75.334 -23.001 -98.001s-7.66699 -39.167 -9 -49.5s-1.83301 -16.666 -1.5 -18.999s0.5 -4.5 0.5 -6.5s-1 -6 -3 -12l-12 -36c-4.66699 -14 -12.5 -25 -23.5 -33s-23.667 -14 -38 -18s-29.333 -6.5 -45 -7.5s-30.834 -1.5 -45.501 -1.5z" />
    <glyph glyph-name="z" unicode="z" horiz-adv-x="1052" 
d="M466 28c-21.333 0 -46.8369 2 -76.5039 6s-59.834 10 -90.501 18s-59.834 18.5 -87.501 31.5s-50.167 28.333 -67.5 46s-27.5 38.167 -30.5 61.5s4.83301 49.333 23.5 78c4.66699 7.33301 16.334 18.166 35.001 32.499s41.5 30.666 68.5 48.999l90 60l100 65l98 64
l84.5 57.5c24.667 17.333 44.5 32.333 59.5 45s22.5 21.667 22.5 27s-2.5 12.166 -7.5 20.499s-11.5 16.333 -19.5 24s-17.167 13.667 -27.5 18s-20.833 5.16602 -31.5 2.49902c-32 0 -67 -4.33301 -105 -13s-76.167 -18.167 -114.5 -28.5s-75.666 -19.833 -111.999 -28.5
s-69.166 -13 -98.499 -13h-11c-4.66699 0 -11.167 2.33301 -19.5 7s-19.333 12.834 -33 24.501s-30.834 29.5 -51.501 53.5c-5.33301 8 -6 18.5 -2 31.5s9.83301 25.667 17.5 38s16 23 25 32s16.167 13.5 21.5 13.5c58.667 4 110.334 8.5 155.001 13.5l129.5 14
c41.667 4.33301 84.834 8 129.501 11s96 4.5 154 4.5c28.667 0 57.667 -1.83301 87 -5.5s55.833 -11.5 79.5 -23.5s42.834 -29.667 57.501 -53s22 -55 22 -95c0 -27.333 -7.66699 -54 -23 -80s-35.666 -51.167 -60.999 -75.5s-54.166 -47.666 -86.499 -69.999
s-65.166 -43.666 -98.499 -63.999l-97.5 -59c-31.667 -19 -59.834 -36.833 -84.501 -53.5s-44.334 -32.5 -59.001 -47.5s-21.334 -29.167 -20.001 -42.5c0.666992 -8 7.5 -13.833 20.5 -17.5s30 -5.66699 51 -6s45 0.666992 72 3s54.667 5.33301 83 9
s56.333 7.83398 84 12.501l75.5 12.5l57 9.5c15.333 2.66699 25 4 29 4c8 0 14.167 -2.83301 18.5 -8.5s7.5 -12.334 9.5 -20.001s3.16699 -15.667 3.5 -24s0.5 -15.166 0.5 -20.499c0 -20.667 -9.16699 -38.834 -27.5 -54.501s-41.666 -29.167 -69.999 -40.5
s-59.833 -20.666 -94.5 -27.999s-68.667 -13 -102 -17s-63.833 -6.83301 -91.5 -8.5s-48.5 -2.5 -62.5 -2.5z" />
    <glyph glyph-name="braceleft" unicode="{" horiz-adv-x="666" 
d="M493 1089c2 -15.333 4.16602 -35.332 6.49902 -59.999s4.5 -54.667 6.5 -90c2 -38 0 -75.167 -6 -111.5s-14.167 -70.666 -24.5 -102.999s-22.5 -61.833 -36.5 -88.5l-12 -23c6 -10.667 11 -22 15 -34c8 -23.333 13 -46 15 -68c1.33301 -17.333 1.33301 -39 0 -65
s-3.66602 -53 -6.99902 -81s-7 -55.167 -11 -81.5s-8 -47.833 -12 -64.5c-4 -17.333 -5.83301 -33 -5.5 -47s1.16602 -25.667 2.49902 -35c2 -12 4.66699 -22 8 -30c2.66699 -2 7.16699 -1.16699 13.5 2.5s13.333 9 21 16s15 15.667 22 26s12.5 21.5 16.5 33.5
c3.33301 11.333 10.333 14.666 21 9.99902s21.667 -12.667 33 -24s21.5 -23.166 30.5 -35.499s13.5 -20.166 13.5 -23.499c0 -2 -2 -8.16699 -6 -18.5s-9.83301 -22.5 -17.5 -36.5s-17.167 -28.833 -28.5 -44.5s-24.5 -30 -39.5 -43s-31.5 -23.5 -49.5 -31.5
s-37.667 -11.667 -59 -11c-32 1.33301 -56.833 9 -74.5 23s-31 31 -40 51s-15 41.333 -18 64s-5.83301 43 -8.5 61c-2 12 -2.33301 28.5 -1 49.5s3.5 44.167 6.5 69.5s6.33301 51.5 10 78.5l11 77.5c3.66699 24.667 6.5 46.667 8.5 66c2 14 3.33301 25.667 4 35
c-4 -1.33301 -8 -3 -12 -5c-24 -10 -49.167 -18.333 -75.5 -25s-51 -9.83398 -74 -9.50098s-42.833 4.83301 -59.5 13.5s-27.334 23.334 -32.001 44.001c-7.33301 32 -8 59.333 -2 82s18 41.167 36 55.5s41 25.333 69 33s60.333 12.5 97 14.5c18 0.666992 34.667 0 50 -2
c4 8.66699 7.33301 18 10 28c8 23.333 15 45.666 21 66.999s10.833 40.666 14.5 57.999s5.83398 30.333 6.50098 39c2 22 2.5 48 1.5 78s-2.5 61 -4.5 93s-3.5 63.167 -4.5 93.5s-0.166992 57.166 2.5 80.499c2.66699 22.667 12.334 39.167 29.001 49.5
s36.167 15.333 58.5 15s45.5 -5.83301 69.5 -16.5s44.667 -25 62 -43c16.667 -18 25.667 -35.5 27 -52.5s-1.66699 -31.667 -9 -44s-17.5 -22.166 -30.5 -29.499s-24.833 -10.666 -35.5 -9.99902c-7.33301 0.666992 -13 2.16699 -17 4.5s-7 5.16602 -9 8.49902
c-1.33301 1.33301 -2.33301 2.66602 -3 3.99902c2 -10 4 -22.333 6 -37zM203.999 608.001c-18 -4 -30.167 -7.66699 -36.5 -11s-8 -6 -5 -8s9.83301 -2.83301 20.5 -2.5s24 2.5 40 6.5c8 2 16 7 24 15c-12 3.33301 -26.333 3.33301 -43 0z" />
    <glyph glyph-name="bar" unicode="|" horiz-adv-x="449" 
d="M98 -38c-9.33301 62.667 17.335 365.666 80.002 908.999c-0.666992 21.333 -1.33398 45.666 -2.00098 72.999s-1 54.333 -1 81s0.5 51.667 1.5 75s3.5 42 7.5 56c12 36 28.5 61 49.5 75s52.167 21 93.5 21c8.66699 0 18.667 -1.5 30 -4.5s21.833 -7.5 31.5 -13.5
s17.834 -13.5 24.501 -22.5s10 -19.5 10 -31.5c-7.33301 -105.333 -18.5 -209.166 -33.5 -311.499l-43 -303c-13.667 -99.667 -24.5 -197.667 -32.5 -294s-8.33301 -191.5 -1 -285.5c1.33301 -15.333 -1.33398 -27.666 -8.00098 -36.999s-15.334 -16.5 -26.001 -21.5
s-22.667 -8.5 -36 -10.5s-26 -3 -38 -3c-17.333 0 -36.5 3.5 -57.5 10.5s-37.5 19.5 -49.5 37.5z" />
    <glyph glyph-name="braceright" unicode="}" horiz-adv-x="623" 
d="M198 1201c9.33301 1.33301 20.5059 2.66699 33.5059 4s26.167 1.16602 39.5 -0.500977s26.333 -5.83398 39 -12.501s23.5 -17.667 32.5 -33s15.167 -35.666 18.5 -60.999s2.66602 -57.333 -2.00098 -96c-3.33301 -26 -7 -51.333 -11 -76s-7.5 -49.167 -10.5 -73.5
s-5 -48.666 -6 -72.999s-0.166992 -49.166 2.5 -74.499c1.33301 -14.667 2.66602 -28.334 3.99902 -41.001c10.667 4 22 8 34 12c31.333 11.333 65.666 18.666 102.999 21.999c30 2.66699 53 0.166992 69 -7.5s27 -18.167 33 -31.5s7.83301 -28.666 5.5 -45.999
s-6.66602 -34.666 -12.999 -51.999s-13.833 -33.5 -22.5 -48.5s-16.334 -26.833 -23.001 -35.5c-8 -10 -19.167 -21.5 -33.5 -34.5s-30.5 -25.333 -48.5 -37s-37.167 -21.167 -57.5 -28.5s-40.833 -10.666 -61.5 -9.99902c-6 0.666992 -11.667 1.33398 -17 2.00098
c-2 -11.333 -4 -24 -6 -38c-9.33301 -56 -16.333 -104 -21 -144s-10.167 -74.667 -16.5 -104s-14.666 -55 -24.999 -77s-25.166 -43.333 -44.499 -64s-41 -33.334 -65 -38.001s-46.167 -3.33398 -66.5 3.99902s-36.5 19.833 -48.5 37.5s-16 38.167 -12 61.5
c2 10.667 6.5 20 13.5 28s14.833 15.5 23.5 22.5l26 20.5c8.66699 6.66699 16 14.667 22 24c4.66699 7.33301 9.16699 20.333 13.5 39s8.16602 38.667 11.499 60s6.33301 42 9 62s5 35.333 7 46s4.66699 27.5 8 50.5s7.66602 47.667 12.999 74s11.666 51.5 18.999 75.5
c4 13.333 8.33301 25 13 35c-8 29.333 -13.833 57.166 -17.5 83.499s-5.83398 51 -6.50098 74s-1 43.5 -1 61.5c0 12 1 27.167 3 45.5s4.33301 37.666 7 57.999s5.5 40.666 8.5 60.999s5.16699 38.833 6.5 55.5s1.66602 30.334 0.999023 41.001s-3 16.334 -7 17.001
c-8 1.33301 -15.167 6 -21.5 14s-11.333 17.5 -15 28.5s-5.66699 23 -6 36s1.66699 25 6 36s11.5 20.667 21.5 29s23 13.833 39 16.5zM383.006 537.001c8.66699 0 16.498 1.66797 23.498 5.00098s13 7.33301 18 12s9 9.5 12 14.5s4.5 9.16699 4.5 12.5
c0 4 -3.66699 5.33301 -11 4s-15.666 -4 -24.999 -8s-18.666 -9.33301 -27.999 -16c-5.33301 -4.66699 -10 -9.33398 -14 -14.001c5.33301 -6.66699 12 -10 20 -10z" />
    <glyph glyph-name="asciitilde" unicode="~" horiz-adv-x="992" 
d="M312 568c-20.667 2 -34.1621 -2.82617 -40.4951 -14.4932s-10 -25.834 -11 -42.501s-1.33301 -33.334 -1 -50.001s-3.16699 -29.334 -10.5 -38.001c-8 -8.66699 -20.167 -17 -36.5 -25s-33.333 -13.667 -51 -17s-34.334 -3.33301 -50.001 0s-26.5 12.333 -32.5 27
c-14.667 35.333 -22.834 73.666 -24.501 114.999s5 80 20 116s38.667 66 71 90s75.166 36.333 128.499 37c45.333 0.666992 82.166 -3.33301 110.499 -12s51.833 -19.667 70.5 -33s33.834 -27.666 45.501 -42.999s23.667 -29.5 36 -42.5s26.5 -24 42.5 -33
s37.333 -13.5 64 -13.5c22.667 0 41.5 4.16699 56.5 12.5s27.5 18.5 37.5 30.5s18.5 24.667 25.5 38s14.167 25 21.5 35c4.66699 6.66699 16.167 12.334 34.5 17.001s37.666 7.16699 57.999 7.5s38.5 -2.33398 54.5 -8.00098s24 -15.834 24 -30.501
c0 -48.667 -7.33301 -92.167 -22 -130.5s-35.5 -70.833 -62.5 -97.5s-59.333 -47.334 -97 -62.001s-79.834 -22.334 -126.501 -23.001c-33.333 -0.666992 -62.5 3.33301 -87.5 12s-47.333 19.834 -67 33.501s-37.334 28.5 -53.001 44.5l-44 45.5
c-13.667 14.333 -27.167 26.666 -40.5 36.999s-27.666 16.166 -42.999 17.499z" />
    <glyph glyph-name="thothannobasethai" horiz-adv-x="1039" 
d="M588 628c17.333 -6 32.8311 -18.8398 46.498 -38.5068s26 -41.5 37 -65.5s21.167 -47.667 30.5 -71s18.333 -42 27 -56c9.33301 4 17.333 16.5 24 37.5s11.667 46.333 15 76s5.33301 61.667 6 96s0.166992 66.5 -1.5 96.5s-4.5 56 -8.5 78s-9 35.667 -15 41
c-10 8.66699 -22.333 13.667 -37 15s-30.834 0.166016 -48.501 -3.50098s-36.167 -9.16699 -55.5 -16.5s-38.333 -15 -57 -23c-9.33301 -4 -23.666 -11 -42.999 -21l-66 -34l-78 -39.5c-27.333 -13.667 -53.666 -26.167 -78.999 -37.5s-48.333 -20.666 -69 -27.999
s-36.667 -11 -48 -11c-14.667 0 -29.334 0.833008 -44.001 2.5s-28 5.16699 -40 10.5s-21.833 13.333 -29.5 24s-11.5 24.667 -11.5 42c0 20.667 4.5 39.167 13.5 55.5s20.333 31.333 34 45s28.5 25.834 44.5 36.501s31.333 20.334 46 29.001l98 46l106 48.5l121.5 54
l145.5 63.5l147.5 62.5c41.667 17 80.167 31.667 115.5 44s69.666 23.166 102.999 32.499s70 19 110 29c18.667 4.66699 36.334 6.83398 53.001 6.50098s31.334 -3.66602 44.001 -9.99902s22.667 -15.833 30 -28.5s11 -29 11 -49c0 -25.333 -3.66699 -46 -11 -62
s-19 -29.333 -35 -40s-37 -19.5 -63 -26.5s-57.333 -13.833 -94 -20.5c-8 -1.33301 -18.167 -3.5 -30.5 -6.5s-25.833 -6.66699 -40.5 -11s-30 -9.83301 -46 -16.5s-31.333 -14.667 -46 -24c14 -0.666992 26 -12.667 36 -36s18 -53.833 24 -91.5
s9.83301 -80.167 11.5 -127.5s1.33398 -94.833 -0.999023 -142.5s-6.5 -93.5 -12.5 -137.5s-14 -81.667 -24 -113c-6.66699 -20.667 -14.667 -42.167 -24 -64.5s-20 -43.833 -32 -64.5s-25 -39.834 -39 -57.501s-29 -31.667 -45 -42s-32.667 -16.5 -50 -18.5
s-35 2.33301 -53 13c-16 9.33301 -30.667 22.833 -44 40.5s-26 37.334 -38 59.001s-23.5 44.334 -34.5 68.001s-22.167 46.334 -33.5 68.001s-23.166 41.334 -35.499 59.001s-25.833 31.167 -40.5 40.5c-11.333 6.66699 -24.5 11.834 -39.5 15.501s-29.667 8 -44 13
s-26.833 11.667 -37.5 20s-17 20.833 -19 37.5c-1.33301 12 1.16699 24.833 7.5 38.5s15.666 26.5 27.999 38.5s27 23 44 33s35.5 17.667 55.5 23s41 8 63 8s43.667 -4 65 -12z" />
    <glyph glyph-name="thothannobasethai" unicode="&#xf700;" horiz-adv-x="1039" 
d="M588 628c17.333 -6 32.8311 -18.8398 46.498 -38.5068s26 -41.5 37 -65.5s21.167 -47.667 30.5 -71s18.333 -42 27 -56c9.33301 4 17.333 16.5 24 37.5s11.667 46.333 15 76s5.33301 61.667 6 96s0.166992 66.5 -1.5 96.5s-4.5 56 -8.5 78s-9 35.667 -15 41
c-10 8.66699 -22.333 13.667 -37 15s-30.834 0.166016 -48.501 -3.50098s-36.167 -9.16699 -55.5 -16.5s-38.333 -15 -57 -23c-9.33301 -4 -23.666 -11 -42.999 -21l-66 -34l-78 -39.5c-27.333 -13.667 -53.666 -26.167 -78.999 -37.5s-48.333 -20.666 -69 -27.999
s-36.667 -11 -48 -11c-14.667 0 -29.334 0.833008 -44.001 2.5s-28 5.16699 -40 10.5s-21.833 13.333 -29.5 24s-11.5 24.667 -11.5 42c0 20.667 4.5 39.167 13.5 55.5s20.333 31.333 34 45s28.5 25.834 44.5 36.501s31.333 20.334 46 29.001l98 46l106 48.5l121.5 54
l145.5 63.5l147.5 62.5c41.667 17 80.167 31.667 115.5 44s69.666 23.166 102.999 32.499s70 19 110 29c18.667 4.66699 36.334 6.83398 53.001 6.50098s31.334 -3.66602 44.001 -9.99902s22.667 -15.833 30 -28.5s11 -29 11 -49c0 -25.333 -3.66699 -46 -11 -62
s-19 -29.333 -35 -40s-37 -19.5 -63 -26.5s-57.333 -13.833 -94 -20.5c-8 -1.33301 -18.167 -3.5 -30.5 -6.5s-25.833 -6.66699 -40.5 -11s-30 -9.83301 -46 -16.5s-31.333 -14.667 -46 -24c14 -0.666992 26 -12.667 36 -36s18 -53.833 24 -91.5
s9.83301 -80.167 11.5 -127.5s1.33398 -94.833 -0.999023 -142.5s-6.5 -93.5 -12.5 -137.5s-14 -81.667 -24 -113c-6.66699 -20.667 -14.667 -42.167 -24 -64.5s-20 -43.833 -32 -64.5s-25 -39.834 -39 -57.501s-29 -31.667 -45 -42s-32.667 -16.5 -50 -18.5
s-35 2.33301 -53 13c-16 9.33301 -30.667 22.833 -44 40.5s-26 37.334 -38 59.001s-23.5 44.334 -34.5 68.001s-22.167 46.334 -33.5 68.001s-23.166 41.334 -35.499 59.001s-25.833 31.167 -40.5 40.5c-11.333 6.66699 -24.5 11.834 -39.5 15.501s-29.667 8 -44 13
s-26.833 11.667 -37.5 20s-17 20.833 -19 37.5c-1.33301 12 1.16699 24.833 7.5 38.5s15.666 26.5 27.999 38.5s27 23 44 33s35.5 17.667 55.5 23s41 8 63 8s43.667 -4 65 -12z" />
    <glyph glyph-name="thothannobasethai" unicode="&#x20ac;" horiz-adv-x="1039" 
d="M588 628c17.333 -6 32.8311 -18.8398 46.498 -38.5068s26 -41.5 37 -65.5s21.167 -47.667 30.5 -71s18.333 -42 27 -56c9.33301 4 17.333 16.5 24 37.5s11.667 46.333 15 76s5.33301 61.667 6 96s0.166992 66.5 -1.5 96.5s-4.5 56 -8.5 78s-9 35.667 -15 41
c-10 8.66699 -22.333 13.667 -37 15s-30.834 0.166016 -48.501 -3.50098s-36.167 -9.16699 -55.5 -16.5s-38.333 -15 -57 -23c-9.33301 -4 -23.666 -11 -42.999 -21l-66 -34l-78 -39.5c-27.333 -13.667 -53.666 -26.167 -78.999 -37.5s-48.333 -20.666 -69 -27.999
s-36.667 -11 -48 -11c-14.667 0 -29.334 0.833008 -44.001 2.5s-28 5.16699 -40 10.5s-21.833 13.333 -29.5 24s-11.5 24.667 -11.5 42c0 20.667 4.5 39.167 13.5 55.5s20.333 31.333 34 45s28.5 25.834 44.5 36.501s31.333 20.334 46 29.001l98 46l106 48.5l121.5 54
l145.5 63.5l147.5 62.5c41.667 17 80.167 31.667 115.5 44s69.666 23.166 102.999 32.499s70 19 110 29c18.667 4.66699 36.334 6.83398 53.001 6.50098s31.334 -3.66602 44.001 -9.99902s22.667 -15.833 30 -28.5s11 -29 11 -49c0 -25.333 -3.66699 -46 -11 -62
s-19 -29.333 -35 -40s-37 -19.5 -63 -26.5s-57.333 -13.833 -94 -20.5c-8 -1.33301 -18.167 -3.5 -30.5 -6.5s-25.833 -6.66699 -40.5 -11s-30 -9.83301 -46 -16.5s-31.333 -14.667 -46 -24c14 -0.666992 26 -12.667 36 -36s18 -53.833 24 -91.5
s9.83301 -80.167 11.5 -127.5s1.33398 -94.833 -0.999023 -142.5s-6.5 -93.5 -12.5 -137.5s-14 -81.667 -24 -113c-6.66699 -20.667 -14.667 -42.167 -24 -64.5s-20 -43.833 -32 -64.5s-25 -39.834 -39 -57.501s-29 -31.667 -45 -42s-32.667 -16.5 -50 -18.5
s-35 2.33301 -53 13c-16 9.33301 -30.667 22.833 -44 40.5s-26 37.334 -38 59.001s-23.5 44.334 -34.5 68.001s-22.167 46.334 -33.5 68.001s-23.166 41.334 -35.499 59.001s-25.833 31.167 -40.5 40.5c-11.333 6.66699 -24.5 11.834 -39.5 15.501s-29.667 8 -44 13
s-26.833 11.667 -37.5 20s-17 20.833 -19 37.5c-1.33301 12 1.16699 24.833 7.5 38.5s15.666 26.5 27.999 38.5s27 23 44 33s35.5 17.667 55.5 23s41 8 63 8s43.667 -4 65 -12z" />
    <glyph glyph-name="saraileftthai" 
d="M-1115 1474c13.333 22.667 35.5049 40.5039 66.5049 53.5039s66.167 21.833 105.5 26.5s81.166 6.16699 125.499 4.5s86.5 -5.33398 126.5 -11.001s76.167 -12.834 108.5 -21.501s56.166 -17.667 71.499 -27c20.667 -12.667 40.167 -27.667 58.5 -45
s33.666 -36.333 45.999 -57s21 -42.5 26 -65.5s4.5 -46.167 -1.5 -69.5c-3.33301 -14 -11.333 -22 -24 -24s-24.667 0.666992 -36 8c-46 29.333 -90.833 50.166 -134.5 62.499s-85.667 19.833 -126 22.5s-78.5 2.16699 -114.5 -1.5s-69.333 -7.33398 -100 -11.001
s-58.334 -5.5 -83.001 -5.5s-45.334 5 -62.001 15c-12 6.66699 -22.667 15.834 -32 27.501s-16.833 24.167 -22.5 37.5s-8.66699 27.166 -9 41.499s3.16699 27.5 10.5 39.5z" />
    <glyph glyph-name="saraileftthai" unicode="&#xf701;" 
d="M-1115 1474c13.333 22.667 35.5049 40.5039 66.5049 53.5039s66.167 21.833 105.5 26.5s81.166 6.16699 125.499 4.5s86.5 -5.33398 126.5 -11.001s76.167 -12.834 108.5 -21.501s56.166 -17.667 71.499 -27c20.667 -12.667 40.167 -27.667 58.5 -45
s33.666 -36.333 45.999 -57s21 -42.5 26 -65.5s4.5 -46.167 -1.5 -69.5c-3.33301 -14 -11.333 -22 -24 -24s-24.667 0.666992 -36 8c-46 29.333 -90.833 50.166 -134.5 62.499s-85.667 19.833 -126 22.5s-78.5 2.16699 -114.5 -1.5s-69.333 -7.33398 -100 -11.001
s-58.334 -5.5 -83.001 -5.5s-45.334 5 -62.001 15c-12 6.66699 -22.667 15.834 -32 27.501s-16.833 24.167 -22.5 37.5s-8.66699 27.166 -9 41.499s3.16699 27.5 10.5 39.5z" />
    <glyph glyph-name="saraiileftthai" 
d="M-1116 1354c4.66699 26 22.9961 47.5029 54.9961 64.5029s71.5 30.167 118.5 39.5s98.5 15.333 154.5 18s110.333 3 163 1c6.66699 8 13.834 20.833 21.501 38.5s15.167 36 22.5 55s14.833 37.333 22.5 55s15.5 30.5 23.5 38.5c2.66699 2.66699 6.83398 4 12.501 4
s11.834 -0.5 18.501 -1.5s13.167 -2.16699 19.5 -3.5s11.5 -2 15.5 -2c24.667 0 44.5 -1.66699 59.5 -5s26.333 -9.16602 34 -17.499s12.667 -19.333 15 -33s3.5 -30.834 3.5 -51.501c0 -52.667 -3.16699 -96.834 -9.5 -132.501s-19.666 -64 -39.999 -85
s-49.5 -35.167 -87.5 -42.5s-88.667 -8.33301 -152 -3c0 -10.667 -2 -22.167 -6 -34.5s-10 -23.833 -18 -34.5s-17.667 -19.5 -29 -26.5s-24 -10.5 -38 -10.5c-25.333 0 -52.666 2.33301 -81.999 7s-58.5 11.167 -87.5 19.5s-56.5 18 -82.5 29s-48.833 22.667 -68.5 35
s-34.834 25.166 -45.501 38.499s-15 26.666 -13 39.999z" />
    <glyph glyph-name="saraiileftthai" unicode="&#xf702;" 
d="M-1116 1354c4.66699 26 22.9961 47.5029 54.9961 64.5029s71.5 30.167 118.5 39.5s98.5 15.333 154.5 18s110.333 3 163 1c6.66699 8 13.834 20.833 21.501 38.5s15.167 36 22.5 55s14.833 37.333 22.5 55s15.5 30.5 23.5 38.5c2.66699 2.66699 6.83398 4 12.501 4
s11.834 -0.5 18.501 -1.5s13.167 -2.16699 19.5 -3.5s11.5 -2 15.5 -2c24.667 0 44.5 -1.66699 59.5 -5s26.333 -9.16602 34 -17.499s12.667 -19.333 15 -33s3.5 -30.834 3.5 -51.501c0 -52.667 -3.16699 -96.834 -9.5 -132.501s-19.666 -64 -39.999 -85
s-49.5 -35.167 -87.5 -42.5s-88.667 -8.33301 -152 -3c0 -10.667 -2 -22.167 -6 -34.5s-10 -23.833 -18 -34.5s-17.667 -19.5 -29 -26.5s-24 -10.5 -38 -10.5c-25.333 0 -52.666 2.33301 -81.999 7s-58.5 11.167 -87.5 19.5s-56.5 18 -82.5 29s-48.833 22.667 -68.5 35
s-34.834 25.166 -45.501 38.499s-15 26.666 -13 39.999z" />
    <glyph glyph-name="saraiileftthai" unicode="&#x201a;" 
d="M-1116 1354c4.66699 26 22.9961 47.5029 54.9961 64.5029s71.5 30.167 118.5 39.5s98.5 15.333 154.5 18s110.333 3 163 1c6.66699 8 13.834 20.833 21.501 38.5s15.167 36 22.5 55s14.833 37.333 22.5 55s15.5 30.5 23.5 38.5c2.66699 2.66699 6.83398 4 12.501 4
s11.834 -0.5 18.501 -1.5s13.167 -2.16699 19.5 -3.5s11.5 -2 15.5 -2c24.667 0 44.5 -1.66699 59.5 -5s26.333 -9.16602 34 -17.499s12.667 -19.333 15 -33s3.5 -30.834 3.5 -51.501c0 -52.667 -3.16699 -96.834 -9.5 -132.501s-19.666 -64 -39.999 -85
s-49.5 -35.167 -87.5 -42.5s-88.667 -8.33301 -152 -3c0 -10.667 -2 -22.167 -6 -34.5s-10 -23.833 -18 -34.5s-17.667 -19.5 -29 -26.5s-24 -10.5 -38 -10.5c-25.333 0 -52.666 2.33301 -81.999 7s-58.5 11.167 -87.5 19.5s-56.5 18 -82.5 29s-48.833 22.667 -68.5 35
s-34.834 25.166 -45.501 38.499s-15 26.666 -13 39.999z" />
    <glyph glyph-name="saraueleftthai" 
d="M-551 1204c-16 -1.33301 -30.1709 -1.50488 -42.5039 -0.504883s-23.166 2.83301 -32.499 5.5c-14 -9.33301 -26.667 -12.333 -38 -9c-25.333 8 -58 14.5 -98 19.5s-82.833 10 -128.5 15s-91.334 10.5 -137.001 16.5s-87 14.167 -124 24.5s-66.833 23.666 -89.5 39.999
s-33.667 37.166 -33 62.499s6.33398 48.166 17.001 68.499s23.834 38.5 39.501 54.5s32.834 29.833 51.501 41.5s36.167 21.334 52.5 29.001s30.5 13.334 42.5 17.001s19.333 5.5 22 5.5c56.667 2 104.334 -2.83301 143.001 -14.5s70 -25.5 94 -41.5s41.333 -32 52 -48
c9.33301 -14 15 -24.667 17 -32c2 12.667 4.5 25.334 7.5 38.001s8.33301 25.167 16 37.5s18.334 24.333 32.001 36s32.5 23.167 56.5 34.5c9.33301 4.66699 22.166 8.83398 38.499 12.501s34.166 5.5 53.499 5.5s39.166 -2 59.499 -6s39.333 -11.167 57 -21.5
s32.834 -24.666 45.501 -42.999s21.334 -41.166 26.001 -68.499c4.66699 -32 6.66699 -64.167 6 -96.5s-7.66699 -61.666 -21 -87.999s-34.5 -48.166 -63.5 -65.499s-69.5 -27 -121.5 -29zM-582.004 1386c0.666992 -12.667 6.33398 -21.167 17.001 -25.5
s21.334 -6.5 32.001 -6.5c8 0 14.167 2.66699 18.5 8s7.5 11.833 9.5 19.5s3.33301 15.5 4 23.5s1 14.667 1 20c0 14.667 -3.83301 24.667 -11.5 30s-19.167 8 -34.5 8c-8 0 -14.333 -3 -19 -9s-8.33398 -13 -11.001 -21s-4.33398 -16.333 -5.00098 -25s-1 -16 -1 -22z
M-877.004 1354l78.0029 -8.99902c-29.333 20.667 -56.833 35.834 -82.5 45.501s-47.167 13.834 -64.5 12.501c-0.666992 0 -3.33398 -0.833008 -8.00098 -2.5s-9 -3.83398 -13 -6.50098s-6.66699 -5.66699 -8 -9s0.666992 -6.83301 6 -10.5s15.166 -7.33398 29.499 -11.001
s35.166 -6.83398 62.499 -9.50098z" />
    <glyph glyph-name="saraueleftthai" unicode="&#xf703;" 
d="M-551 1204c-16 -1.33301 -30.1709 -1.50488 -42.5039 -0.504883s-23.166 2.83301 -32.499 5.5c-14 -9.33301 -26.667 -12.333 -38 -9c-25.333 8 -58 14.5 -98 19.5s-82.833 10 -128.5 15s-91.334 10.5 -137.001 16.5s-87 14.167 -124 24.5s-66.833 23.666 -89.5 39.999
s-33.667 37.166 -33 62.499s6.33398 48.166 17.001 68.499s23.834 38.5 39.501 54.5s32.834 29.833 51.501 41.5s36.167 21.334 52.5 29.001s30.5 13.334 42.5 17.001s19.333 5.5 22 5.5c56.667 2 104.334 -2.83301 143.001 -14.5s70 -25.5 94 -41.5s41.333 -32 52 -48
c9.33301 -14 15 -24.667 17 -32c2 12.667 4.5 25.334 7.5 38.001s8.33301 25.167 16 37.5s18.334 24.333 32.001 36s32.5 23.167 56.5 34.5c9.33301 4.66699 22.166 8.83398 38.499 12.501s34.166 5.5 53.499 5.5s39.166 -2 59.499 -6s39.333 -11.167 57 -21.5
s32.834 -24.666 45.501 -42.999s21.334 -41.166 26.001 -68.499c4.66699 -32 6.66699 -64.167 6 -96.5s-7.66699 -61.666 -21 -87.999s-34.5 -48.166 -63.5 -65.499s-69.5 -27 -121.5 -29zM-582.004 1386c0.666992 -12.667 6.33398 -21.167 17.001 -25.5
s21.334 -6.5 32.001 -6.5c8 0 14.167 2.66699 18.5 8s7.5 11.833 9.5 19.5s3.33301 15.5 4 23.5s1 14.667 1 20c0 14.667 -3.83301 24.667 -11.5 30s-19.167 8 -34.5 8c-8 0 -14.333 -3 -19 -9s-8.33398 -13 -11.001 -21s-4.33398 -16.333 -5.00098 -25s-1 -16 -1 -22z
M-877.004 1354l78.0029 -8.99902c-29.333 20.667 -56.833 35.834 -82.5 45.501s-47.167 13.834 -64.5 12.501c-0.666992 0 -3.33398 -0.833008 -8.00098 -2.5s-9 -3.83398 -13 -6.50098s-6.66699 -5.66699 -8 -9s0.666992 -6.83301 6 -10.5s15.166 -7.33398 29.499 -11.001
s35.166 -6.83398 62.499 -9.50098z" />
    <glyph glyph-name="saraueleftthai" unicode="&#x192;" 
d="M-551 1204c-16 -1.33301 -30.1709 -1.50488 -42.5039 -0.504883s-23.166 2.83301 -32.499 5.5c-14 -9.33301 -26.667 -12.333 -38 -9c-25.333 8 -58 14.5 -98 19.5s-82.833 10 -128.5 15s-91.334 10.5 -137.001 16.5s-87 14.167 -124 24.5s-66.833 23.666 -89.5 39.999
s-33.667 37.166 -33 62.499s6.33398 48.166 17.001 68.499s23.834 38.5 39.501 54.5s32.834 29.833 51.501 41.5s36.167 21.334 52.5 29.001s30.5 13.334 42.5 17.001s19.333 5.5 22 5.5c56.667 2 104.334 -2.83301 143.001 -14.5s70 -25.5 94 -41.5s41.333 -32 52 -48
c9.33301 -14 15 -24.667 17 -32c2 12.667 4.5 25.334 7.5 38.001s8.33301 25.167 16 37.5s18.334 24.333 32.001 36s32.5 23.167 56.5 34.5c9.33301 4.66699 22.166 8.83398 38.499 12.501s34.166 5.5 53.499 5.5s39.166 -2 59.499 -6s39.333 -11.167 57 -21.5
s32.834 -24.666 45.501 -42.999s21.334 -41.166 26.001 -68.499c4.66699 -32 6.66699 -64.167 6 -96.5s-7.66699 -61.666 -21 -87.999s-34.5 -48.166 -63.5 -65.499s-69.5 -27 -121.5 -29zM-582.004 1386c0.666992 -12.667 6.33398 -21.167 17.001 -25.5
s21.334 -6.5 32.001 -6.5c8 0 14.167 2.66699 18.5 8s7.5 11.833 9.5 19.5s3.33301 15.5 4 23.5s1 14.667 1 20c0 14.667 -3.83301 24.667 -11.5 30s-19.167 8 -34.5 8c-8 0 -14.333 -3 -19 -9s-8.33398 -13 -11.001 -21s-4.33398 -16.333 -5.00098 -25s-1 -16 -1 -22z
M-877.004 1354l78.0029 -8.99902c-29.333 20.667 -56.833 35.834 -82.5 45.501s-47.167 13.834 -64.5 12.501c-0.666992 0 -3.33398 -0.833008 -8.00098 -2.5s-9 -3.83398 -13 -6.50098s-6.66699 -5.66699 -8 -9s0.666992 -6.83301 6 -10.5s15.166 -7.33398 29.499 -11.001
s35.166 -6.83398 62.499 -9.50098z" />
    <glyph glyph-name="saraueeleftthai" 
d="M-586 1653c0.666992 -87.333 0.999023 -158.498 0.999023 -213.498s-2.66699 -98.167 -8 -129.5s-14.166 -52.833 -26.499 -64.5s-30.166 -17.5 -53.499 -17.5c-27.333 0 -53.833 3.5 -79.5 10.5s-51 15.5 -76 25.5l-74 30.5c-24.333 10.333 -48.5 18.5 -72.5 24.5
c-52.667 14 -98.167 25.5 -136.5 34.5s-73.5 14.167 -105.5 15.5c-10.667 0 -20 3.66699 -28 11s-14.833 16.166 -20.5 26.499s-9.83398 21 -12.501 32s-4 20.5 -4 28.5c0 24.667 6.5 43.667 19.5 57s29.333 22.833 49 28.5s41.167 8.83398 64.5 9.50098s45.333 1 66 1
c22 0 45.5 -3 70.5 -9s50.167 -13.333 75.5 -22s50.5 -18 75.5 -28s48.5 -19 70.5 -27c0 19.333 1.5 41.666 4.5 66.999s8.83301 49.166 17.5 71.499s20.667 41.333 36 57s35.333 23.5 60 23.5c16.667 0 32.667 -3 48 -9s28.333 -17.333 39 -34zM-537.001 1572
c0.666992 19.333 0.335938 38.998 -0.99707 58.998s-0.333008 38 3 54s10.666 29.167 21.999 39.5s30.666 15.5 57.999 15.5s48.666 -7.66699 63.999 -23s23 -36.666 23 -63.999c0 -42 -3 -83.5 -9 -124.5s-10.333 -83.167 -13 -126.5
c-2.66699 -11.333 -6.66699 -19.833 -12 -25.5s-11.666 -10 -18.999 -13s-15.833 -4.66699 -25.5 -5s-19.834 -0.5 -30.501 -0.5c-8 0 -15.833 3.16699 -23.5 9.5s-14.5 17.5 -20.5 33.5s-10.5 37.833 -13.5 65.5s-3.83301 62.834 -2.5 105.501z" />
    <glyph glyph-name="saraueeleftthai" unicode="&#xf704;" 
d="M-586 1653c0.666992 -87.333 0.999023 -158.498 0.999023 -213.498s-2.66699 -98.167 -8 -129.5s-14.166 -52.833 -26.499 -64.5s-30.166 -17.5 -53.499 -17.5c-27.333 0 -53.833 3.5 -79.5 10.5s-51 15.5 -76 25.5l-74 30.5c-24.333 10.333 -48.5 18.5 -72.5 24.5
c-52.667 14 -98.167 25.5 -136.5 34.5s-73.5 14.167 -105.5 15.5c-10.667 0 -20 3.66699 -28 11s-14.833 16.166 -20.5 26.499s-9.83398 21 -12.501 32s-4 20.5 -4 28.5c0 24.667 6.5 43.667 19.5 57s29.333 22.833 49 28.5s41.167 8.83398 64.5 9.50098s45.333 1 66 1
c22 0 45.5 -3 70.5 -9s50.167 -13.333 75.5 -22s50.5 -18 75.5 -28s48.5 -19 70.5 -27c0 19.333 1.5 41.666 4.5 66.999s8.83301 49.166 17.5 71.499s20.667 41.333 36 57s35.333 23.5 60 23.5c16.667 0 32.667 -3 48 -9s28.333 -17.333 39 -34zM-537.001 1572
c0.666992 19.333 0.335938 38.998 -0.99707 58.998s-0.333008 38 3 54s10.666 29.167 21.999 39.5s30.666 15.5 57.999 15.5s48.666 -7.66699 63.999 -23s23 -36.666 23 -63.999c0 -42 -3 -83.5 -9 -124.5s-10.333 -83.167 -13 -126.5
c-2.66699 -11.333 -6.66699 -19.833 -12 -25.5s-11.666 -10 -18.999 -13s-15.833 -4.66699 -25.5 -5s-19.834 -0.5 -30.501 -0.5c-8 0 -15.833 3.16699 -23.5 9.5s-14.5 17.5 -20.5 33.5s-10.5 37.833 -13.5 65.5s-3.83301 62.834 -2.5 105.501z" />
    <glyph glyph-name="saraueeleftthai" unicode="&#x201e;" 
d="M-586 1653c0.666992 -87.333 0.999023 -158.498 0.999023 -213.498s-2.66699 -98.167 -8 -129.5s-14.166 -52.833 -26.499 -64.5s-30.166 -17.5 -53.499 -17.5c-27.333 0 -53.833 3.5 -79.5 10.5s-51 15.5 -76 25.5l-74 30.5c-24.333 10.333 -48.5 18.5 -72.5 24.5
c-52.667 14 -98.167 25.5 -136.5 34.5s-73.5 14.167 -105.5 15.5c-10.667 0 -20 3.66699 -28 11s-14.833 16.166 -20.5 26.499s-9.83398 21 -12.501 32s-4 20.5 -4 28.5c0 24.667 6.5 43.667 19.5 57s29.333 22.833 49 28.5s41.167 8.83398 64.5 9.50098s45.333 1 66 1
c22 0 45.5 -3 70.5 -9s50.167 -13.333 75.5 -22s50.5 -18 75.5 -28s48.5 -19 70.5 -27c0 19.333 1.5 41.666 4.5 66.999s8.83301 49.166 17.5 71.499s20.667 41.333 36 57s35.333 23.5 60 23.5c16.667 0 32.667 -3 48 -9s28.333 -17.333 39 -34zM-537.001 1572
c0.666992 19.333 0.335938 38.998 -0.99707 58.998s-0.333008 38 3 54s10.666 29.167 21.999 39.5s30.666 15.5 57.999 15.5s48.666 -7.66699 63.999 -23s23 -36.666 23 -63.999c0 -42 -3 -83.5 -9 -124.5s-10.333 -83.167 -13 -126.5
c-2.66699 -11.333 -6.66699 -19.833 -12 -25.5s-11.666 -10 -18.999 -13s-15.833 -4.66699 -25.5 -5s-19.834 -0.5 -30.501 -0.5c-8 0 -15.833 3.16699 -23.5 9.5s-14.5 17.5 -20.5 33.5s-10.5 37.833 -13.5 65.5s-3.83301 62.834 -2.5 105.501z" />
    <glyph glyph-name="ellipsis" unicode="&#x85;" horiz-adv-x="1002" 
d="M404 107c0 40 10.666 69.832 31.999 89.499s56 29.5 104 29.5c16.667 0 30.334 -3 41.001 -9s19 -14 25 -24s10.167 -21.333 12.5 -34s3.5 -25.667 3.5 -39c0 -16 -2.66699 -31.167 -8 -45.5s-13.5 -26.5 -24.5 -36.5s-25.167 -17.167 -42.5 -21.5s-38 -4.83301 -62 -1.5
c-20 3.33301 -35.5 7.5 -46.5 12.5s-19 11.333 -24 19s-8 16.334 -9 26.001s-1.5 21.167 -1.5 34.5zM72.999 147.999c0 12.667 5.16602 24.668 15.499 36.001s22.833 21.166 37.5 29.499s29.834 14.833 45.501 19.5s28.5 7 38.5 7c13.333 0 26.5 -1.66699 39.5 -5
s24.667 -8.66602 35 -15.999s18.666 -16.833 24.999 -28.5s9.5 -25.834 9.5 -42.501c0 -79.333 -41 -119 -123 -119c-17.333 0 -33.333 3.66699 -48 11s-27.667 16.833 -39 28.5s-20.166 24.5 -26.499 38.5s-9.5 27.667 -9.5 41zM718.998 128
c0.666992 22.667 3.99805 40.668 9.99805 54.001s13.833 23.166 23.5 29.499s20.834 10.5 33.501 12.5s26 3.66699 40 5c21.333 1.33301 39.666 -2 54.999 -10s27.666 -19 36.999 -33s15.5 -30 18.5 -48s2.83301 -36 -0.5 -54
c-3.33301 -17.333 -11.166 -30.833 -23.499 -40.5s-26 -16.5 -41 -20.5s-29.667 -6 -44 -6s-25.166 1.33301 -32.499 4c-21.333 7.33301 -39.666 19.5 -54.999 36.5s-22.333 40.5 -21 70.5z" />
    <glyph glyph-name="ellipsis" unicode="&#x2026;" horiz-adv-x="1002" 
d="M404 107c0 40 10.666 69.832 31.999 89.499s56 29.5 104 29.5c16.667 0 30.334 -3 41.001 -9s19 -14 25 -24s10.167 -21.333 12.5 -34s3.5 -25.667 3.5 -39c0 -16 -2.66699 -31.167 -8 -45.5s-13.5 -26.5 -24.5 -36.5s-25.167 -17.167 -42.5 -21.5s-38 -4.83301 -62 -1.5
c-20 3.33301 -35.5 7.5 -46.5 12.5s-19 11.333 -24 19s-8 16.334 -9 26.001s-1.5 21.167 -1.5 34.5zM72.999 147.999c0 12.667 5.16602 24.668 15.499 36.001s22.833 21.166 37.5 29.499s29.834 14.833 45.501 19.5s28.5 7 38.5 7c13.333 0 26.5 -1.66699 39.5 -5
s24.667 -8.66602 35 -15.999s18.666 -16.833 24.999 -28.5s9.5 -25.834 9.5 -42.501c0 -79.333 -41 -119 -123 -119c-17.333 0 -33.333 3.66699 -48 11s-27.667 16.833 -39 28.5s-20.166 24.5 -26.499 38.5s-9.5 27.667 -9.5 41zM718.998 128
c0.666992 22.667 3.99805 40.668 9.99805 54.001s13.833 23.166 23.5 29.499s20.834 10.5 33.501 12.5s26 3.66699 40 5c21.333 1.33301 39.666 -2 54.999 -10s27.666 -19 36.999 -33s15.5 -30 18.5 -48s2.83301 -36 -0.5 -54
c-3.33301 -17.333 -11.166 -30.833 -23.499 -40.5s-26 -16.5 -41 -20.5s-29.667 -6 -44 -6s-25.166 1.33301 -32.499 4c-21.333 7.33301 -39.666 19.5 -54.999 36.5s-22.333 40.5 -21 70.5z" />
    <glyph glyph-name="maieklowleftthai" 
d="M-570 1254c-4 42 -6.83105 78.001 -8.49805 108.001s-2.83398 56 -3.50098 78s-0.666992 41.333 0 58s1.83398 33 3.50098 49l5 50c1.66699 17.333 3.5 37.666 5.5 60.999c0.666992 7.33301 4.66699 15.666 12 24.999s15.5 18 24.5 26s18 14.667 27 20s15.167 8 18.5 8
c38.667 8 68.5 9.33301 89.5 4s35.667 -17.166 44 -35.499s11.666 -43 9.99902 -74s-5.5 -68 -11.5 -111l-20.5 -147c-7.66699 -55 -13.834 -115.5 -18.501 -181.5c-3.33301 -10 -9.66602 -18.333 -18.999 -25s-19.833 -12.167 -31.5 -16.5s-24 -7.33301 -37 -9
s-24.5 -2.5 -34.5 -2.5c-11.333 0 -20.333 4.83301 -27 14.5s-12 21 -16 34s-6.83301 25.833 -8.5 38.5s-2.83398 22 -3.50098 28z" />
    <glyph glyph-name="maieklowleftthai" unicode="&#xf705;" 
d="M-570 1254c-4 42 -6.83105 78.001 -8.49805 108.001s-2.83398 56 -3.50098 78s-0.666992 41.333 0 58s1.83398 33 3.50098 49l5 50c1.66699 17.333 3.5 37.666 5.5 60.999c0.666992 7.33301 4.66699 15.666 12 24.999s15.5 18 24.5 26s18 14.667 27 20s15.167 8 18.5 8
c38.667 8 68.5 9.33301 89.5 4s35.667 -17.166 44 -35.499s11.666 -43 9.99902 -74s-5.5 -68 -11.5 -111l-20.5 -147c-7.66699 -55 -13.834 -115.5 -18.501 -181.5c-3.33301 -10 -9.66602 -18.333 -18.999 -25s-19.833 -12.167 -31.5 -16.5s-24 -7.33301 -37 -9
s-24.5 -2.5 -34.5 -2.5c-11.333 0 -20.333 4.83301 -27 14.5s-12 21 -16 34s-6.83301 25.833 -8.5 38.5s-2.83398 22 -3.50098 28z" />
    <glyph glyph-name="maieklowleftthai" unicode="&#x2020;" 
d="M-570 1254c-4 42 -6.83105 78.001 -8.49805 108.001s-2.83398 56 -3.50098 78s-0.666992 41.333 0 58s1.83398 33 3.50098 49l5 50c1.66699 17.333 3.5 37.666 5.5 60.999c0.666992 7.33301 4.66699 15.666 12 24.999s15.5 18 24.5 26s18 14.667 27 20s15.167 8 18.5 8
c38.667 8 68.5 9.33301 89.5 4s35.667 -17.166 44 -35.499s11.666 -43 9.99902 -74s-5.5 -68 -11.5 -111l-20.5 -147c-7.66699 -55 -13.834 -115.5 -18.501 -181.5c-3.33301 -10 -9.66602 -18.333 -18.999 -25s-19.833 -12.167 -31.5 -16.5s-24 -7.33301 -37 -9
s-24.5 -2.5 -34.5 -2.5c-11.333 0 -20.333 4.83301 -27 14.5s-12 21 -16 34s-6.83301 25.833 -8.5 38.5s-2.83398 22 -3.50098 28z" />
    <glyph glyph-name="maitholowleftthai" 
d="M-717 1150c-15.333 0 -29.0039 -0.331055 -41.0039 -0.998047s-22 0.666016 -30 3.99902s-14 9.66602 -18 18.999s-6 23.666 -6 42.999c0 18.667 5 35.667 15 51s20.833 30.5 32.5 45.5s22.5 30 32.5 45s15 31.167 15 48.5c0 14.667 -6.16699 27.167 -18.5 37.5
s-25.833 20.5 -40.5 30.5s-28.167 20.333 -40.5 31s-18.5 23.334 -18.5 38.001c0 23.333 5.33301 43.666 16 60.999s24.167 31.833 40.5 43.5s34.833 20.5 55.5 26.5s41 9 61 9c34.667 0 63 -7.16699 85 -21.5s38 -34.666 48 -60.999s14 -58.5 12 -96.5
s-10 -80.667 -24 -128c38 0 74 5.83301 108 17.5s65.667 26.334 95 44.001s56.5 36.834 81.5 57.501s47.5 40.167 67.5 58.5s37.833 34 53.5 47s28.834 20.5 39.501 22.5c14 2.66699 26.833 5.66699 38.5 9s22.334 4.83301 32.001 4.5s18.667 -3.5 27 -9.5
s16.833 -16.667 25.5 -32c11.333 -20.667 12 -42.834 2 -66.501s-27.667 -47.834 -53 -72.501s-56.666 -49.334 -93.999 -74.001s-77.666 -48.167 -120.999 -70.5s-88 -43.333 -134 -63s-90.5 -36.667 -133.5 -51s-82.833 -25.666 -119.5 -33.999s-67 -12.5 -91 -12.5z" />
    <glyph glyph-name="maitholowleftthai" unicode="&#xf706;" 
d="M-717 1150c-15.333 0 -29.0039 -0.331055 -41.0039 -0.998047s-22 0.666016 -30 3.99902s-14 9.66602 -18 18.999s-6 23.666 -6 42.999c0 18.667 5 35.667 15 51s20.833 30.5 32.5 45.5s22.5 30 32.5 45s15 31.167 15 48.5c0 14.667 -6.16699 27.167 -18.5 37.5
s-25.833 20.5 -40.5 30.5s-28.167 20.333 -40.5 31s-18.5 23.334 -18.5 38.001c0 23.333 5.33301 43.666 16 60.999s24.167 31.833 40.5 43.5s34.833 20.5 55.5 26.5s41 9 61 9c34.667 0 63 -7.16699 85 -21.5s38 -34.666 48 -60.999s14 -58.5 12 -96.5
s-10 -80.667 -24 -128c38 0 74 5.83301 108 17.5s65.667 26.334 95 44.001s56.5 36.834 81.5 57.501s47.5 40.167 67.5 58.5s37.833 34 53.5 47s28.834 20.5 39.501 22.5c14 2.66699 26.833 5.66699 38.5 9s22.334 4.83301 32.001 4.5s18.667 -3.5 27 -9.5
s16.833 -16.667 25.5 -32c11.333 -20.667 12 -42.834 2 -66.501s-27.667 -47.834 -53 -72.501s-56.666 -49.334 -93.999 -74.001s-77.666 -48.167 -120.999 -70.5s-88 -43.333 -134 -63s-90.5 -36.667 -133.5 -51s-82.833 -25.666 -119.5 -33.999s-67 -12.5 -91 -12.5z" />
    <glyph glyph-name="maitholowleftthai" unicode="&#x2021;" 
d="M-717 1150c-15.333 0 -29.0039 -0.331055 -41.0039 -0.998047s-22 0.666016 -30 3.99902s-14 9.66602 -18 18.999s-6 23.666 -6 42.999c0 18.667 5 35.667 15 51s20.833 30.5 32.5 45.5s22.5 30 32.5 45s15 31.167 15 48.5c0 14.667 -6.16699 27.167 -18.5 37.5
s-25.833 20.5 -40.5 30.5s-28.167 20.333 -40.5 31s-18.5 23.334 -18.5 38.001c0 23.333 5.33301 43.666 16 60.999s24.167 31.833 40.5 43.5s34.833 20.5 55.5 26.5s41 9 61 9c34.667 0 63 -7.16699 85 -21.5s38 -34.666 48 -60.999s14 -58.5 12 -96.5
s-10 -80.667 -24 -128c38 0 74 5.83301 108 17.5s65.667 26.334 95 44.001s56.5 36.834 81.5 57.501s47.5 40.167 67.5 58.5s37.833 34 53.5 47s28.834 20.5 39.501 22.5c14 2.66699 26.833 5.66699 38.5 9s22.334 4.83301 32.001 4.5s18.667 -3.5 27 -9.5
s16.833 -16.667 25.5 -32c11.333 -20.667 12 -42.834 2 -66.501s-27.667 -47.834 -53 -72.501s-56.666 -49.334 -93.999 -74.001s-77.666 -48.167 -120.999 -70.5s-88 -43.333 -134 -63s-90.5 -36.667 -133.5 -51s-82.833 -25.666 -119.5 -33.999s-67 -12.5 -91 -12.5z" />
    <glyph glyph-name="maitrilowleftthai" 
d="M-578 1221c-16.667 -5.33301 -32.168 -6.83203 -46.501 -4.49902s-27.666 6.66602 -39.999 12.999s-23.333 13.833 -33 22.5s-17.834 16.334 -24.501 23.001s-11.834 11.667 -15.501 15s-5.5 3 -5.5 -1c-1.33301 -30 -6.16602 -54.5 -14.499 -73.5
s-17.666 -34 -27.999 -45s-20.333 -18.5 -30 -22.5s-16.5 -6.33301 -20.5 -7c-15.333 -2 -28.166 0.333008 -38.499 7s-18.5 15.834 -24.5 27.501s-10.167 25 -12.5 40s-3.5 30.167 -3.5 45.5v57c0 22 0.833008 44.5 2.5 67.5s4.83398 45.5 9.50098 67.5
s11.834 41.667 21.501 59s22.167 31.333 37.5 42s34.666 16 57.999 16c20 0 35.833 -2.83301 47.5 -8.5s21.334 -13 29.001 -22s13.667 -19.333 18 -31s9.16602 -23.667 14.499 -36s11.666 -24.5 18.999 -36.5s17.666 -23 30.999 -33c10 10 23.167 25.333 39.5 46
s34.333 41.5 54 62.5s40.167 39.333 61.5 55s42 23.5 62 23.5c18.667 0 33.834 -3.83301 45.501 -11.5s21 -17.167 28 -28.5s12.833 -23.833 17.5 -37.5s9.66699 -26.334 15 -38.001s12 -21.667 20 -30s19 -12.833 33 -13.5c8.66699 -0.666992 22.5 4.16602 41.5 14.499
s40.667 23.833 65 40.5s49.833 35.334 76.5 56.001l76.5 61l65.5 56c19.333 17.333 33.333 31 42 41c16.667 18.667 34.334 33.334 53.001 44.001s40.667 16 66 16c16 0 25.167 -7 27.5 -21s0.666016 -30.333 -5.00098 -49s-13.834 -37.5 -24.501 -56.5s-21 -33.5 -31 -43.5
l-50.5 -53c-20.333 -22 -43.166 -45.5 -68.499 -70.5s-52.666 -50.167 -81.999 -75.5s-59.5 -48.333 -90.5 -69s-62.333 -37.667 -94 -51s-62.167 -20 -91.5 -20c-30 0 -54 3 -72 9s-32 13.5 -42 22.5s-17.167 18.833 -21.5 29.5s-7.83301 20.667 -10.5 30
s-5.66699 17 -9 23s-9 9 -17 9c-4 0 -9.5 -6.83301 -16.5 -20.5s-15.833 -29.334 -26.5 -47.001s-23.334 -34.834 -38.001 -51.501s-31.334 -28 -50.001 -34z" />
    <glyph glyph-name="maitrilowleftthai" unicode="&#xf707;" 
d="M-578 1221c-16.667 -5.33301 -32.168 -6.83203 -46.501 -4.49902s-27.666 6.66602 -39.999 12.999s-23.333 13.833 -33 22.5s-17.834 16.334 -24.501 23.001s-11.834 11.667 -15.501 15s-5.5 3 -5.5 -1c-1.33301 -30 -6.16602 -54.5 -14.499 -73.5
s-17.666 -34 -27.999 -45s-20.333 -18.5 -30 -22.5s-16.5 -6.33301 -20.5 -7c-15.333 -2 -28.166 0.333008 -38.499 7s-18.5 15.834 -24.5 27.501s-10.167 25 -12.5 40s-3.5 30.167 -3.5 45.5v57c0 22 0.833008 44.5 2.5 67.5s4.83398 45.5 9.50098 67.5
s11.834 41.667 21.501 59s22.167 31.333 37.5 42s34.666 16 57.999 16c20 0 35.833 -2.83301 47.5 -8.5s21.334 -13 29.001 -22s13.667 -19.333 18 -31s9.16602 -23.667 14.499 -36s11.666 -24.5 18.999 -36.5s17.666 -23 30.999 -33c10 10 23.167 25.333 39.5 46
s34.333 41.5 54 62.5s40.167 39.333 61.5 55s42 23.5 62 23.5c18.667 0 33.834 -3.83301 45.501 -11.5s21 -17.167 28 -28.5s12.833 -23.833 17.5 -37.5s9.66699 -26.334 15 -38.001s12 -21.667 20 -30s19 -12.833 33 -13.5c8.66699 -0.666992 22.5 4.16602 41.5 14.499
s40.667 23.833 65 40.5s49.833 35.334 76.5 56.001l76.5 61l65.5 56c19.333 17.333 33.333 31 42 41c16.667 18.667 34.334 33.334 53.001 44.001s40.667 16 66 16c16 0 25.167 -7 27.5 -21s0.666016 -30.333 -5.00098 -49s-13.834 -37.5 -24.501 -56.5s-21 -33.5 -31 -43.5
l-50.5 -53c-20.333 -22 -43.166 -45.5 -68.499 -70.5s-52.666 -50.167 -81.999 -75.5s-59.5 -48.333 -90.5 -69s-62.333 -37.667 -94 -51s-62.167 -20 -91.5 -20c-30 0 -54 3 -72 9s-32 13.5 -42 22.5s-17.167 18.833 -21.5 29.5s-7.83301 20.667 -10.5 30
s-5.66699 17 -9 23s-9 9 -17 9c-4 0 -9.5 -6.83301 -16.5 -20.5s-15.833 -29.334 -26.5 -47.001s-23.334 -34.834 -38.001 -51.501s-31.334 -28 -50.001 -34z" />
    <glyph glyph-name="maitrilowleftthai" unicode="&#x2c6;" 
d="M-578 1221c-16.667 -5.33301 -32.168 -6.83203 -46.501 -4.49902s-27.666 6.66602 -39.999 12.999s-23.333 13.833 -33 22.5s-17.834 16.334 -24.501 23.001s-11.834 11.667 -15.501 15s-5.5 3 -5.5 -1c-1.33301 -30 -6.16602 -54.5 -14.499 -73.5
s-17.666 -34 -27.999 -45s-20.333 -18.5 -30 -22.5s-16.5 -6.33301 -20.5 -7c-15.333 -2 -28.166 0.333008 -38.499 7s-18.5 15.834 -24.5 27.501s-10.167 25 -12.5 40s-3.5 30.167 -3.5 45.5v57c0 22 0.833008 44.5 2.5 67.5s4.83398 45.5 9.50098 67.5
s11.834 41.667 21.501 59s22.167 31.333 37.5 42s34.666 16 57.999 16c20 0 35.833 -2.83301 47.5 -8.5s21.334 -13 29.001 -22s13.667 -19.333 18 -31s9.16602 -23.667 14.499 -36s11.666 -24.5 18.999 -36.5s17.666 -23 30.999 -33c10 10 23.167 25.333 39.5 46
s34.333 41.5 54 62.5s40.167 39.333 61.5 55s42 23.5 62 23.5c18.667 0 33.834 -3.83301 45.501 -11.5s21 -17.167 28 -28.5s12.833 -23.833 17.5 -37.5s9.66699 -26.334 15 -38.001s12 -21.667 20 -30s19 -12.833 33 -13.5c8.66699 -0.666992 22.5 4.16602 41.5 14.499
s40.667 23.833 65 40.5s49.833 35.334 76.5 56.001l76.5 61l65.5 56c19.333 17.333 33.333 31 42 41c16.667 18.667 34.334 33.334 53.001 44.001s40.667 16 66 16c16 0 25.167 -7 27.5 -21s0.666016 -30.333 -5.00098 -49s-13.834 -37.5 -24.501 -56.5s-21 -33.5 -31 -43.5
l-50.5 -53c-20.333 -22 -43.166 -45.5 -68.499 -70.5s-52.666 -50.167 -81.999 -75.5s-59.5 -48.333 -90.5 -69s-62.333 -37.667 -94 -51s-62.167 -20 -91.5 -20c-30 0 -54 3 -72 9s-32 13.5 -42 22.5s-17.167 18.833 -21.5 29.5s-7.83301 20.667 -10.5 30
s-5.66699 17 -9 23s-9 9 -17 9c-4 0 -9.5 -6.83301 -16.5 -20.5s-15.833 -29.334 -26.5 -47.001s-23.334 -34.834 -38.001 -51.501s-31.334 -28 -50.001 -34z" />
    <glyph glyph-name="maichattawalowleftthai" 
d="M-580 1377c-16.667 -2.66699 -36.832 -6.33594 -60.499 -11.0029s-47.334 -9 -71.001 -13s-45.667 -7 -66 -9s-35.5 -1.33301 -45.5 2c-24.667 8 -44.167 24.167 -58.5 48.5s-19.833 50.5 -16.5 78.5c2.66699 21.333 12 38.166 28 50.499s35.333 21.833 58 28.5
s47 11 73 13s50 3.33301 72 4s40.333 1.33398 55 2.00098s22.334 3.33398 23.001 8.00098c-0.666992 7.33301 -2.33398 18 -5.00098 32l-8.5 44c-3 15.333 -5.66699 29.833 -8 43.5s-3.5 23.834 -3.5 30.501c0 11.333 4 20.833 12 28.5s17.667 13.667 29 18
s23.5 7.33301 36.5 9s24.167 2.5 33.5 2.5c22.667 0 41.167 -5.16699 55.5 -15.5s25.833 -23.166 34.5 -38.499s15 -32.166 19 -50.499s7.16699 -35.5 9.5 -51.5s4.83301 -29.667 7.5 -41s6.66699 -18 12 -20c16.667 -2 34.334 -2.66699 53.001 -2l55 2
c18 0.666992 36.333 0.666992 55 0s36.667 -3 54 -7c12.667 -3.33301 22.5 -8.5 29.5 -15.5s12 -14.5 15 -22.5s4.66699 -16 5 -24s0.166016 -14.333 -0.500977 -19c-2.66699 -21.333 -13.834 -38.5 -33.501 -51.5s-43.334 -23.167 -71.001 -30.5s-57 -12.333 -88 -15
s-59.167 -4 -84.5 -4c-2.66699 0 -4.66699 -7.33301 -6 -22l-4.5 -50.5c-1.66699 -19 -3.66699 -38.167 -6 -57.5s-5.5 -33.333 -9.5 -42c-25.333 -46 -62.666 -69 -111.999 -69c-3.33301 0 -7.66602 0.166992 -12.999 0.5s-10.833 1.16602 -16.5 2.49902
s-10.5 3.5 -14.5 6.5s-6 7.5 -6 13.5c-4 33.333 -6.66699 67 -8 101s-4 71.667 -8 113z" />
    <glyph glyph-name="maichattawalowleftthai" unicode="&#xf708;" 
d="M-580 1377c-16.667 -2.66699 -36.832 -6.33594 -60.499 -11.0029s-47.334 -9 -71.001 -13s-45.667 -7 -66 -9s-35.5 -1.33301 -45.5 2c-24.667 8 -44.167 24.167 -58.5 48.5s-19.833 50.5 -16.5 78.5c2.66699 21.333 12 38.166 28 50.499s35.333 21.833 58 28.5
s47 11 73 13s50 3.33301 72 4s40.333 1.33398 55 2.00098s22.334 3.33398 23.001 8.00098c-0.666992 7.33301 -2.33398 18 -5.00098 32l-8.5 44c-3 15.333 -5.66699 29.833 -8 43.5s-3.5 23.834 -3.5 30.501c0 11.333 4 20.833 12 28.5s17.667 13.667 29 18
s23.5 7.33301 36.5 9s24.167 2.5 33.5 2.5c22.667 0 41.167 -5.16699 55.5 -15.5s25.833 -23.166 34.5 -38.499s15 -32.166 19 -50.499s7.16699 -35.5 9.5 -51.5s4.83301 -29.667 7.5 -41s6.66699 -18 12 -20c16.667 -2 34.334 -2.66699 53.001 -2l55 2
c18 0.666992 36.333 0.666992 55 0s36.667 -3 54 -7c12.667 -3.33301 22.5 -8.5 29.5 -15.5s12 -14.5 15 -22.5s4.66699 -16 5 -24s0.166016 -14.333 -0.500977 -19c-2.66699 -21.333 -13.834 -38.5 -33.501 -51.5s-43.334 -23.167 -71.001 -30.5s-57 -12.333 -88 -15
s-59.167 -4 -84.5 -4c-2.66699 0 -4.66699 -7.33301 -6 -22l-4.5 -50.5c-1.66699 -19 -3.66699 -38.167 -6 -57.5s-5.5 -33.333 -9.5 -42c-25.333 -46 -62.666 -69 -111.999 -69c-3.33301 0 -7.66602 0.166992 -12.999 0.5s-10.833 1.16602 -16.5 2.49902
s-10.5 3.5 -14.5 6.5s-6 7.5 -6 13.5c-4 33.333 -6.66699 67 -8 101s-4 71.667 -8 113z" />
    <glyph glyph-name="maichattawalowleftthai" unicode="&#x2030;" 
d="M-580 1377c-16.667 -2.66699 -36.832 -6.33594 -60.499 -11.0029s-47.334 -9 -71.001 -13s-45.667 -7 -66 -9s-35.5 -1.33301 -45.5 2c-24.667 8 -44.167 24.167 -58.5 48.5s-19.833 50.5 -16.5 78.5c2.66699 21.333 12 38.166 28 50.499s35.333 21.833 58 28.5
s47 11 73 13s50 3.33301 72 4s40.333 1.33398 55 2.00098s22.334 3.33398 23.001 8.00098c-0.666992 7.33301 -2.33398 18 -5.00098 32l-8.5 44c-3 15.333 -5.66699 29.833 -8 43.5s-3.5 23.834 -3.5 30.501c0 11.333 4 20.833 12 28.5s17.667 13.667 29 18
s23.5 7.33301 36.5 9s24.167 2.5 33.5 2.5c22.667 0 41.167 -5.16699 55.5 -15.5s25.833 -23.166 34.5 -38.499s15 -32.166 19 -50.499s7.16699 -35.5 9.5 -51.5s4.83301 -29.667 7.5 -41s6.66699 -18 12 -20c16.667 -2 34.334 -2.66699 53.001 -2l55 2
c18 0.666992 36.333 0.666992 55 0s36.667 -3 54 -7c12.667 -3.33301 22.5 -8.5 29.5 -15.5s12 -14.5 15 -22.5s4.66699 -16 5 -24s0.166016 -14.333 -0.500977 -19c-2.66699 -21.333 -13.834 -38.5 -33.501 -51.5s-43.334 -23.167 -71.001 -30.5s-57 -12.333 -88 -15
s-59.167 -4 -84.5 -4c-2.66699 0 -4.66699 -7.33301 -6 -22l-4.5 -50.5c-1.66699 -19 -3.66699 -38.167 -6 -57.5s-5.5 -33.333 -9.5 -42c-25.333 -46 -62.666 -69 -111.999 -69c-3.33301 0 -7.66602 0.166992 -12.999 0.5s-10.833 1.16602 -16.5 2.49902
s-10.5 3.5 -14.5 6.5s-6 7.5 -6 13.5c-4 33.333 -6.66699 67 -8 101s-4 71.667 -8 113z" />
    <glyph glyph-name="thanthakhatlowleftthai" 
d="M-737 1242c0 5.33301 2.50195 12.5068 7.50195 21.5068s12.5 18.5 22.5 28.5s22.333 20.333 37 31s32 20.667 52 30c52 24.667 99.167 44.167 141.5 58.5s82.833 26.166 121.5 35.499s76.167 17.333 112.5 24s74.5 15 114.5 25c15.333 4 30.666 7 45.999 9
s29.666 3.66699 42.999 5s25 2.16602 35 2.49902s17.667 0.5 23 0.5c19.333 0 35.333 -4.83301 48 -14.5s21.667 -21 27 -34s6.83301 -26.333 4.5 -40s-8.83301 -24.834 -19.5 -33.501c-18 -14 -42.5 -25 -73.5 -33l-107.5 -26.5
c-40.667 -9.66699 -85.5 -22.334 -134.5 -38.001s-100.167 -38.5 -153.5 -68.5l-79.5 -46.5c-21.667 -13 -41.667 -23.833 -60 -32.5s-36.333 -15.167 -54 -19.5s-38.5 -6.5 -62.5 -6.5c-15.333 0 -28.666 4.16699 -39.999 12.5s-20.833 18.666 -28.5 30.999
s-13.334 25.666 -17.001 39.999s-5.5 27.166 -5.5 38.499z" />
    <glyph glyph-name="thanthakhatlowleftthai" unicode="&#xf709;" 
d="M-737 1242c0 5.33301 2.50195 12.5068 7.50195 21.5068s12.5 18.5 22.5 28.5s22.333 20.333 37 31s32 20.667 52 30c52 24.667 99.167 44.167 141.5 58.5s82.833 26.166 121.5 35.499s76.167 17.333 112.5 24s74.5 15 114.5 25c15.333 4 30.666 7 45.999 9
s29.666 3.66699 42.999 5s25 2.16602 35 2.49902s17.667 0.5 23 0.5c19.333 0 35.333 -4.83301 48 -14.5s21.667 -21 27 -34s6.83301 -26.333 4.5 -40s-8.83301 -24.834 -19.5 -33.501c-18 -14 -42.5 -25 -73.5 -33l-107.5 -26.5
c-40.667 -9.66699 -85.5 -22.334 -134.5 -38.001s-100.167 -38.5 -153.5 -68.5l-79.5 -46.5c-21.667 -13 -41.667 -23.833 -60 -32.5s-36.333 -15.167 -54 -19.5s-38.5 -6.5 -62.5 -6.5c-15.333 0 -28.666 4.16699 -39.999 12.5s-20.833 18.666 -28.5 30.999
s-13.334 25.666 -17.001 39.999s-5.5 27.166 -5.5 38.499z" />
    </font>
</defs>
</svg>
